<?xml version="1.0" encoding="utf-8"?>
<!-- Generator: Adobe Illustrator 28.0.0, SVG Export Plug-In . SVG Version: 6.00 Build 0)  -->
<svg version="1.1" id="レイヤー_1" xmlns="http://www.w3.org/2000/svg" xmlns:xlink="http://www.w3.org/1999/xlink" x="0px"
	 y="0px" viewBox="0 0 56 806" style="enable-background:new 0 0 56 806;" xml:space="preserve">
<style type="text/css">
	.st0{fill:#FFFFFF;}
</style>
<g>
	<path class="st0" d="M51.9,50.6c-3.1-1.3-7.6-2.8-10.5-3.5c-0.6-0.3-0.5-1.9,0.1-2.1c6.8,1.5,10.5-0.5,10.5-8.5
		c0-5.6-1.7-12.9-8.8-20.1c-3.9-3.9-13.1-9.3-23.4-9.3C8.6,7.1,2.6,12.4,2.6,22.3c0,8.2,4.8,13.1,11,16.9c0.3,0.8,0.2,1.6-0.5,1.9
		c-2.1-0.7-6.3-2.4-11.1-5.1c0-1.7-0.5-3.8-0.9-6.2c-0.4-2.3-0.9-4.9-0.9-7.6c0-10.2,4.6-22,21.1-22C30.3,0.2,39,5,44.8,11.4
		c6,6.6,9.6,16.1,9.6,26.3C54.4,43.9,52.7,48.7,51.9,50.6z"/>
	<path class="st0" d="M42,62.4c7.4,2.4,8.2,2,8.5-0.7l0.3-3c0.6-0.4,1.6-0.3,2,0.4c0.5,4.5,0.6,8.9,0.6,13.3
		c0,7.5-1.6,12.1-4.1,14.8c-2.4,2.7-5.6,3.6-8.9,3.6c-7.9,0-12.9-7.5-13.9-13.5c-0.2-1.1-0.5-1.3-1.9-0.9c-4.2,1-9.4,2.5-13.6,3.9
		c-5.3,1.8-7.6,2.7-8.2,7.8c-0.3,0.5-1.3,0.2-1.5,0c-0.2-1.3-0.2-2.6-0.2-4.9c0-3.8,0.7-6,4.6-7.3c5.8-2,10.3-3.4,15.2-4.6
		c3.6-0.9,3.9-1.4,3.9-3.9c0-4.1-0.2-4.5-2.5-5.2l-9.7-3.1c-7.3-2.3-8.8-2.5-9.3,1.6l-0.2,1.9c-0.5,0.5-1.6,0.2-2-0.3
		c0.2-3.3,0.2-6.3,0.2-9.4c0-3.2-0.1-5.9-0.2-8.3c0.4-0.6,1.5-0.6,2-0.1l0.2,1.7c0.5,3.8,1.3,4.5,9.3,7.1L42,62.4z M30.5,64.7
		c-3.2-0.9-3.3-0.9-3.3,3.1c0,8.2,5.6,16.3,14.2,16.5c6.1,0.2,9.6-3.5,9.6-10.3c0-3.1-0.5-3.3-2.5-3.9L30.5,64.7z"/>
	<path class="st0" d="M41.8,107.3c7.4,2.3,8.4,2.4,9.3-1.7l0.3-1.6c0.6-0.5,1.6-0.4,2,0.5c-0.1,2.4-0.2,4.7-0.2,8.7V128
		c0,5,0,8.7,0.2,11.1c-1.3-0.5-7.6-2.4-10.4-3.2c-0.6-0.3-0.5-1.7,0.1-2c4.1,0.5,6,0.7,7-2.7c0.5-1.8,0.7-4.2,0.7-8.3v-4.6
		c0-2-0.3-2.4-2.7-3.1l-16.1-5c-2.2-0.7-2.3-0.8-2.3,1.4v3.9c0,7.4,0.5,9,3.8,10.8l2.4,1.3c0.5,0.3,0.5,1.8-0.2,2
		c-1.3-0.5-4.7-1.8-7.6-2.7c-3-0.9-5.9-1.6-7.6-2c-0.6-0.5-0.5-1.6,0.1-2h2.2c4.1,0,4.2-2,4.2-8.1v-3.9c0-2.2-0.1-2.4-2.3-3.1
		l-10.6-3.2c-4.4-1.3-7.1-2.1-8.6-1.3c-1.1,0.5-1.6,2-1.6,8.7c0,8.6,0.5,11.8,8.2,16.7c0.4,0.6,0.2,1.5-0.5,1.8
		c-2.3-0.7-8.2-3.4-10.3-5.4c0.2-5.6,0.2-11.2,0.2-18v-9.3c0-3.2-0.1-5.9-0.2-9.3c0.4-0.6,1.5-0.6,2-0.1l0.2,2.7
		c0.3,3.8,1.3,4.5,9.3,7.1L41.8,107.3z"/>
	<path class="st0" d="M3.1,177.6c-0.5,0.5-1.6,0.2-2-0.3c0.2-2.4,0.2-5.4,0.2-8.9c0-3.6-0.1-6.7-0.2-9c0.3-0.8,1.6-0.8,2-0.1
		l0.2,2.4c0.2,1.7,0.8,2.7,1.3,3.1c0.4,0.2,1.5,0.6,4.9,0.9l10.5,0.7c1.8,0.2,2,0,2-1.6v-11.3c0-2.4-0.1-2.6-2.4-4.1l-8.9-6.1
		c-4.3-2.7-5.5-3.5-5.9-3.5c-0.5,0-0.9,0.3-1.2,1.8l-0.5,3.4c-0.5,0.6-1.6,0.4-2-0.2c0.2-2.4,0.2-4.9,0.2-8c0-3.1-0.1-5.9-0.2-8.7
		c0.5-0.4,1.5-0.3,2,0.2l0.2,2.1c0.2,2.4,1.4,4.1,3.3,5.6c2.8,2.3,9.1,6.8,17.6,12.9l19.4,13.8c4.7,3.4,6.7,4.4,8.1,4.7
		c0.4,2.7,2.6,5.6,2.6,5.7c0,0.4-0.3,0.9-0.6,0.9c-1.3,0-4.7-0.4-11.5-0.8l-29.6-1.6c-8.7-0.5-8.8-0.4-9.3,3.8L3.1,177.6z
		 M25.1,165.1c0,1.3,0.2,1.5,1.6,1.6l17.2,1.3c1.1,0.1,2,0,2-0.2c0-0.2-0.5-0.7-3.8-3l-15.8-10.9c-0.9-0.6-1.2-0.4-1.2,1.3V165.1z"
		/>
	<path class="st0" d="M53.1,232c0,4,0.2,5.1,1.8,6.7c0.2,0.4,0,1.2-0.4,1.3c-2.7-1.6-9-4-11.1-4.5c-0.5-0.3-0.5-1.4,0-1.8
		c6.2,0.4,7.3,0.2,7.3-7.4v-4.8c0-2.5-0.2-2.6-3.4-3.6L12.7,207c-7.3-2.3-9-2.5-9.3,1.4l-0.2,2.9c-0.5,0.6-1.6,0.5-2-0.3
		c0.2-4.2,0.2-7,0.2-10.3c0-3.2-0.1-5.9-0.2-9.6c0.4-0.6,1.5-0.6,2-0.1l0.2,3.1c0.2,3.5,1.3,4.5,9.3,7.1L47.2,212
		c3.4,1.1,3.4,0.9,3.4-1.6v-5.2c0-7.8-1.9-9.4-7.1-13.2c-0.3-0.8,0.1-1.6,0.8-1.8c3.1,2,8,4.5,10.5,5.6c0.4,0.3,0.4,1.2,0,1.5
		c-1.4-0.2-1.8,0.9-1.8,5.6V232z"/>
	<path class="st0" d="M41.8,248.3c7.4,2.4,8.5,2.5,9.3-1.8l0.3-1.9c0.6-0.5,1.6-0.4,2,0.5c-0.2,3.1-0.2,5.8-0.2,9.1
		c0,3.2,0.1,5.6,0.2,9.4c-0.3,0.5-1.6,0.7-2,0l-0.3-2.1c-0.7-4.5-1.5-4.9-9.3-7.3L12.7,245c-7.3-2.3-8.9-2.5-9.3,1.5l-0.2,2.4
		c-0.5,0.5-1.6,0.2-2-0.3c0.2-3.8,0.2-6.5,0.2-9.9c0-3.2-0.1-5.9-0.2-9c0.4-0.6,1.5-0.6,2-0.1l0.2,2.4c0.4,3.8,1.3,4.5,9.3,7.1
		L41.8,248.3z"/>
	<path class="st0" d="M42.5,271.7c6.5-0.6,8.2-1,8.7-3.8l0.3-2c0.6-0.5,1.6-0.4,1.9,0.4c-0.2,2.4-0.2,4.9-0.2,7.6
		c0,3.7,0.1,6,0.2,8.5c-0.3,0.7-1.5,0.7-1.9,0.1l-0.3-2.2c-0.5-3.4-1-3.8-5.7-3.3L16,279.9c-2.9,0.2-4.5,0.5-4.7,0.8
		c0.2,0.5,2.7,2.3,4.6,3.5l13.3,8.9c5.5,3.7,14.1,9.5,17.6,11.6c2.9,1.8,3.9,1.6,4.2-0.2l0.5-2.9c0.5-0.5,1.6-0.4,1.9,0.2
		c-0.2,3.1-0.2,5.9-0.2,8.8c0,2.6,0.1,4.9,0.2,7c-0.3,0.6-1.4,0.5-1.9,0.2l-0.3-2.3c-0.2-1.9-1-3.2-2.7-4.6c-2-1.9-10-7.9-18-13.3
		l-9.7-6.7c-5-3.4-19.1-12.6-20.5-13.4c-0.2-0.2-0.2-0.5-0.2-0.9c0-0.3,0.1-0.7,0.2-1c2.5-0.1,6.6-0.4,8.5-0.5L42.5,271.7z"/>
	<path class="st0" d="M41.8,323.6c7.4,2.3,8.4,2.4,9.3-1.7l0.3-1.6c0.6-0.5,1.6-0.4,2,0.5c-0.1,2.4-0.2,4.7-0.2,8.7v14.8
		c0,5,0,8.7,0.2,11.1c-1.3-0.5-7.6-2.4-10.4-3.2c-0.6-0.3-0.5-1.7,0.1-2c4.1,0.5,6,0.7,7-2.7c0.5-1.8,0.7-4.2,0.7-8.3v-4.6
		c0-2-0.3-2.4-2.7-3.1l-16.1-5c-2.2-0.7-2.3-0.8-2.3,1.4v3.9c0,7.4,0.5,9,3.8,10.8l2.4,1.3c0.5,0.3,0.5,1.8-0.2,2
		c-1.3-0.5-4.7-1.8-7.6-2.7c-3-0.9-5.9-1.6-7.6-2c-0.6-0.5-0.5-1.6,0.1-2h2.2c4.1,0,4.2-2,4.2-8.1v-3.9c0-2.2-0.1-2.4-2.3-3.1
		l-10.6-3.2c-4.4-1.3-7.1-2.1-8.6-1.3c-1.1,0.5-1.6,2-1.6,8.7c0,8.6,0.5,11.8,8.2,16.7c0.4,0.6,0.2,1.5-0.5,1.8
		c-2.3-0.7-8.2-3.4-10.3-5.4c0.2-5.6,0.2-11.2,0.2-18v-9.3c0-3.2-0.1-5.9-0.2-9.3c0.4-0.6,1.5-0.6,2-0.1l0.2,2.7
		c0.3,3.8,1.3,4.5,9.3,7.1L41.8,323.6z"/>
	<path class="st0" d="M14.1,384.9c-8.6-2.7-10.3-3.2-10.3,6.4c0,9,0.4,12.4,8.2,17.2c0.2,0.8,0.1,1.6-0.5,1.7
		c-2.7-0.9-8.2-3.6-10.3-5c0.2-5,0.2-10.1,0.2-18.1v-9.1c0-3.2-0.1-5.8-0.2-8.3c0.4-0.6,1.5-0.6,2-0.1l0.2,1.9
		c0.5,3.8,1.3,4.5,9.3,7.1l29.2,9.2c7.4,2.4,8.5,2.5,9.3-1.8l0.3-1.9c0.6-0.5,1.6-0.4,2,0.5c-0.1,3.1-0.2,5.7-0.2,8.9
		c0,3.4,0.2,5.8,0.2,9.9c-0.3,0.5-1.6,0.7-2,0l-0.3-2.4c-0.5-4.5-1.5-4.9-9.3-7.3L14.1,384.9z"/>
	<path class="st0" d="M3.1,456.3c-0.5,0.5-1.6,0.2-2-0.3c0.2-2.4,0.2-5.4,0.2-8.9c0-3.6-0.1-6.7-0.2-9c0.3-0.8,1.6-0.8,2-0.1
		l0.2,2.4c0.2,1.7,0.8,2.7,1.3,3.1c0.4,0.2,1.5,0.6,4.9,0.9L20,445c1.8,0.2,2,0,2-1.6v-11.3c0-2.4-0.1-2.6-2.4-4.1l-8.9-6.1
		c-4.3-2.7-5.5-3.5-5.9-3.5c-0.5,0-0.9,0.3-1.2,1.8l-0.5,3.4c-0.5,0.6-1.6,0.4-2-0.2c0.2-2.4,0.2-4.9,0.2-8c0-3.1-0.1-5.9-0.2-8.7
		c0.5-0.4,1.5-0.3,2,0.2l0.2,2.1c0.2,2.4,1.4,4.1,3.3,5.6c2.8,2.3,9.1,6.8,17.6,12.9l19.4,13.8c4.7,3.4,6.7,4.4,8.1,4.7
		c0.4,2.7,2.6,5.6,2.6,5.7c0,0.4-0.3,0.9-0.6,0.9c-1.3,0-4.7-0.4-11.5-0.8l-29.6-1.6c-8.7-0.5-8.8-0.4-9.3,3.8L3.1,456.3z
		 M25.1,443.8c0,1.3,0.2,1.5,1.6,1.6l17.2,1.3c1.1,0.1,2,0,2-0.2c0-0.2-0.5-0.7-3.8-3l-15.8-10.9c-0.9-0.6-1.2-0.4-1.2,1.3V443.8z"
		/>
	<path class="st0" d="M43.5,477.7c6,1.9,6.9,1.2,7-2.4l0.1-2.6c0.4-0.5,1.5-0.4,1.9,0c0.4,2.8,0.9,7.4,0.9,13.2
		c0,4.2-0.3,8.9-1.9,12.7c-1.6,3.8-4.6,6.7-9.9,6.7c-7.9,0-11.6-7.9-11.9-12.2c-0.1-1.3-0.6-0.7-0.9,0c-1.5,4.5-5.9,8.2-11.5,8.2
		c-2.9,0-6.9-0.9-10.2-4.2c-3.3-3.3-6-9.1-6-18.8c0-4.2,0.2-7.1,0.2-10.4c0-3.1-0.1-5.8-0.2-8.1c0.4-0.6,1.5-0.6,2-0.1l0.2,1.6
		c0.5,3.8,1.3,4.6,9.3,7.1L43.5,477.7z M10.4,473.3c-5.2-1.6-6.8,0.6-6.8,6.3c0,6.6,4.1,14.8,14.7,14.8c6.7,0,9.9-5.7,9.9-11.6
		c0-3.8-0.1-4.1-2.7-4.9L10.4,473.3z M32.7,480.2c-1.9-0.5-2.3-0.5-2.3,2.9c0,5.6,2.7,15.7,12.6,15.7c4.5,0,7.8-3.5,7.8-9.9
		c0-3,0.1-3.1-2.5-3.8L32.7,480.2z"/>
	<path class="st0" d="M41.8,522.7c7.4,2.3,8.4,2.4,9.3-1.7l0.3-1.6c0.6-0.5,1.6-0.4,2,0.5c-0.1,2.4-0.2,4.7-0.2,8.7v14.8
		c0,5,0,8.7,0.2,11.1c-1.3-0.5-7.6-2.4-10.4-3.2c-0.6-0.3-0.5-1.7,0.1-2c4.1,0.5,6,0.7,7-2.7c0.5-1.8,0.7-4.2,0.7-8.3v-4.6
		c0-2-0.3-2.4-2.7-3.1l-16.1-5c-2.2-0.7-2.3-0.8-2.3,1.4v3.9c0,7.4,0.5,9,3.8,10.8l2.4,1.3c0.5,0.3,0.5,1.8-0.2,2
		c-1.3-0.5-4.7-1.8-7.6-2.7c-3-0.9-5.9-1.6-7.6-2c-0.6-0.5-0.5-1.6,0.1-2h2.2c4.1,0,4.2-2,4.2-8.1v-3.9c0-2.2-0.1-2.4-2.3-3.1
		l-10.6-3.2c-4.4-1.3-7.1-2.1-8.6-1.3c-1.1,0.5-1.6,2-1.6,8.7c0,8.6,0.5,11.8,8.2,16.7c0.4,0.6,0.2,1.5-0.5,1.8
		c-2.3-0.7-8.2-3.4-10.3-5.4c0.2-5.6,0.2-11.2,0.2-18v-9.3c0-3.2-0.1-5.9-0.2-9.3c0.4-0.6,1.5-0.6,2-0.1l0.2,2.7
		c0.3,3.8,1.3,4.5,9.3,7.1L41.8,522.7z"/>
	<path class="st0" d="M14.1,564.4c-8.6-2.7-10.3-3.2-10.3,6.4c0,9,0.4,12.4,8.2,17.2c0.2,0.8,0.1,1.6-0.5,1.7
		c-2.7-0.9-8.2-3.6-10.3-5c0.2-5,0.2-10.1,0.2-18.1v-9.1c0-3.2-0.1-5.8-0.2-8.3c0.4-0.6,1.5-0.6,2-0.1l0.2,1.9
		c0.5,3.8,1.3,4.5,9.3,7.1l29.2,9.2c7.4,2.4,8.5,2.5,9.3-1.8l0.3-1.9c0.6-0.5,1.6-0.4,2,0.5c-0.1,3.1-0.2,5.7-0.2,8.9
		c0,3.4,0.2,5.8,0.2,9.9c-0.3,0.5-1.6,0.7-2,0l-0.3-2.4c-0.5-4.5-1.5-4.9-9.3-7.3L14.1,564.4z"/>
	<path class="st0" d="M45,616.4c5.5,0,9.5,6.5,10.9,11.5c-0.2,0.5-0.9,0.7-1.5,0.5c-1.2-2.5-3.8-7-7.9-7c-1.4,0-2.4,0.9-3,2.5
		c-0.2,0.6-0.8,1.2-1.6,1.2c-1.6,0-2.9-1.6-2.9-3.3C38.9,618.2,42.2,616.4,45,616.4z M45,629.1c5.5,0,9.5,6.5,10.9,11.5
		c-0.2,0.5-0.9,0.7-1.5,0.5c-1.2-2.5-3.8-7-7.9-7c-1.4,0-2.4,0.9-3,2.5c-0.2,0.6-0.8,1.2-1.6,1.2c-1.6,0-2.9-1.6-2.9-3.3
		C38.9,630.9,42.2,629.1,45,629.1z"/>
	<g>
		<path class="st0" d="M41.1,663.2c-5,0.1-10.7-0.1-17.2-1.2v0.3c3.8,2.6,8.7,4.9,13.5,6.6c4.5,1.6,12.5,2.8,14.5,2.9
			c2.3,0.2,2.4,1.3,2.4,1.9s-0.3,1.6-0.7,2.2c-0.3,0.5-0.7,0.7-1.6,0.7c-2,0.1-12.1-2-23.9-9.1c-6.5-3.8-11.7-6.7-18.8-12.9
			c-6.7-5.8-7.9-9.7-7.9-12.2c0-2.5,1.6-4.1,3.6-4.1s3.4,1.4,3.4,3.1c0,0.8-0.5,1.6-1.3,2.1c-0.4,0.2-1.4,0.9-1.4,2.2
			c0,1,0.6,2.4,2.2,4.3c1.6,2,6.6,5.4,11.8,6.9c4,1.1,11.2,1.6,17.9,1.6c8.7-0.2,11.8-1.5,11.8-3c0-1.6-2.7-2.9-6-4.5
			c-0.2-0.9,0.3-1.3,1-1.5c5.3,1.6,10.1,5.1,10.1,8.9C54.5,662.5,46.6,663.1,41.1,663.2z"/>
		<path class="st0" d="M44.6,705.9c-4.3-0.2-11.8-2.5-17.8-8.3c-5-4.9-5.4-9.1-5.4-11.2c0-5,3.7-8.3,10.4-7.8
			c4.9,0.3,12.5,3.2,17.6,8.5c3.9,4.1,5.1,7.6,5.1,10.8C54.5,703.5,50.3,706.2,44.6,705.9z M48.3,691.6c-6.1-4.5-15.4-7.6-19.6-7.8
			c-2.7-0.2-5,0.9-5,3.2c0,1.7,0.7,3.7,4.1,6.2c4.6,3.4,15,7.1,19.1,7.3c2.4,0.1,5.2-0.4,5.2-3.1C52.1,695.8,51.4,693.9,48.3,691.6z
			"/>
		<path class="st0" d="M47,723.3l-9.9-3.4v0.4c4.4,2.4,10.7,6.2,13.2,8.2c2.4,1.8,4.1,3.8,4.1,5.7c0,2.7-2.7,3.1-3.8,3.1
			s-3.4-0.7-4.7-1.6c-1.2-0.9-1.3-2.2,0.4-2.5c2-0.4,3.1-0.9,3.1-1.6c0-0.7-0.8-1.6-2.4-2.7c-6.1-4.8-15.7-9.2-24.7-13.3
			c-0.6-0.3-0.9-0.7-0.9-1.3c0-0.9,0.3-3.1,2-2.6c3.1,1,17,6,24.7,8.1c0.9,0.2,1.6,0.1,1.6-0.6c0-2-2.2-4.2-4.1-5.6
			c-0.2-0.8,0.3-1.3,1.3-1.3c4.2,2.5,7.5,5.5,7.5,9.3C54.5,725.4,49.1,724,47,723.3z"/>
		<path class="st0" d="M29.2,745.1c-1.9-0.7-2.7-0.3-2.7,0.5c0,1.2,2.5,4.3,6.5,8.4c7.1,7.1,16.2,11.2,20.9,13.8
			c0.3,1.6-0.5,3.5-1.4,3.8c-2.1-0.8-15-5.9-24.3-9.2c-1-0.4-2-0.5-2,0.3c0,1.5,3.7,5.6,6.1,7.7c0.2,0.7-0.2,1.3-1.1,1.4
			c-3.8-2-10-9.6-10-13.7c0-1.3,1.5-2.4,2.7-2l14.3,5.3l0.1-0.2c-7.1-5.6-17.2-15.4-17.2-19.6c0-3.2,3.2-3.6,6.7-2.3l19.1,7.2
			c1.5,0.5,2.3,0.6,2.3,0c0-1.5-3.4-5.6-5.4-7.4c-0.2-0.8,0.5-1.4,1.2-1.3c3.1,2,9.3,9.9,9.3,13.6c0,1-1,2.8-2.4,2.4L29.2,745.1z"/>
	</g>
	<path class="st0" d="M48.7,793.1c-5.5,0-9.5-6.5-10.9-11.5c0.2-0.5,0.9-0.7,1.5-0.5c1.2,2.5,3.8,7,7.9,7c1.4,0,2.4-0.9,3-2.5
		c0.2-0.6,0.8-1.2,1.6-1.2c1.6,0,2.9,1.6,2.9,3.3C54.8,791.3,51.6,793.1,48.7,793.1z M48.7,805.8c-5.5,0-9.5-6.5-10.9-11.5
		c0.2-0.5,0.9-0.7,1.5-0.5c1.2,2.5,3.8,7,7.9,7c1.4,0,2.4-0.9,3-2.5c0.2-0.6,0.8-1.2,1.6-1.2c1.6,0,2.9,1.6,2.9,3.3
		C54.8,804,51.6,805.8,48.7,805.8z"/>
</g>
</svg>
