<?xml version="1.0" encoding="utf-8"?>
<!-- Generator: Adobe Illustrator 25.4.1, SVG Export Plug-In . SVG Version: 6.00 Build 0)  -->
<svg version="1.1" id="レイヤー_1" xmlns="http://www.w3.org/2000/svg" xmlns:xlink="http://www.w3.org/1999/xlink" x="0px"
	 y="0px" viewBox="0 0 30 30" style="enable-background:new 0 0 30 30;" xml:space="preserve">
<style type="text/css">
	.st0{fill:#FFFFFF;}
</style>
<g>
	<path class="st0" d="M15,3.1c3.9,0,4.3,0,5.9,0.1c1.4,0.1,2.2,0.3,2.7,0.5c0.7,0.3,1.2,0.6,1.7,1.1c0.5,0.5,0.8,1,1.1,1.7
		c0.2,0.5,0.4,1.3,0.5,2.7c0.1,1.5,0.1,2,0.1,5.9s0,4.3-0.1,5.9c-0.1,1.4-0.3,2.2-0.5,2.7c-0.3,0.7-0.6,1.2-1.1,1.7
		c-0.5,0.5-1,0.8-1.7,1.1c-0.5,0.2-1.3,0.4-2.7,0.5c-1.5,0.1-2,0.1-5.9,0.1s-4.3,0-5.9-0.1c-1.4-0.1-2.2-0.3-2.7-0.5
		c-0.7-0.3-1.2-0.6-1.7-1.1c-0.5-0.5-0.8-1-1.1-1.7c-0.2-0.5-0.4-1.3-0.5-2.7c-0.1-1.5-0.1-2-0.1-5.9s0-4.3,0.1-5.9
		C3.3,7.7,3.5,7,3.7,6.4C4,5.8,4.3,5.3,4.8,4.8c0.5-0.5,1-0.8,1.7-1.1C7,3.5,7.7,3.3,9.1,3.2C10.7,3.1,11.1,3.1,15,3.1 M15,0.5
		c-3.9,0-4.4,0-6,0.1C7.5,0.7,6.4,0.9,5.5,1.3c-1,0.4-1.8,0.9-2.6,1.7C2.1,3.7,1.6,4.5,1.3,5.5C0.9,6.4,0.7,7.5,0.6,9
		c-0.1,1.5-0.1,2-0.1,6c0,3.9,0,4.4,0.1,6c0.1,1.5,0.3,2.6,0.7,3.5c0.4,1,0.9,1.8,1.7,2.6c0.8,0.8,1.6,1.3,2.6,1.7
		c0.9,0.4,2,0.6,3.5,0.7c1.5,0.1,2,0.1,6,0.1s4.4,0,6-0.1c1.5-0.1,2.6-0.3,3.5-0.7c1-0.4,1.8-0.9,2.6-1.7c0.8-0.8,1.3-1.6,1.7-2.6
		c0.4-0.9,0.6-2,0.7-3.5c0.1-1.5,0.1-2,0.1-6s0-4.4-0.1-6c-0.1-1.5-0.3-2.6-0.7-3.5c-0.4-1-0.9-1.8-1.7-2.6
		c-0.8-0.8-1.6-1.3-2.6-1.7c-0.9-0.4-2-0.6-3.5-0.7C19.4,0.5,18.9,0.5,15,0.5L15,0.5z"/>
	<path class="st0" d="M15,7.6c-4.1,0-7.4,3.3-7.4,7.4s3.3,7.4,7.4,7.4s7.4-3.3,7.4-7.4S19.1,7.6,15,7.6z M15,19.8
		c-2.7,0-4.8-2.2-4.8-4.8c0-2.7,2.2-4.8,4.8-4.8c2.7,0,4.8,2.2,4.8,4.8C19.8,17.7,17.7,19.8,15,19.8z"/>
	<circle class="st0" cx="22.7" cy="7.3" r="1.7"/>
</g>
</svg>
