<svg xmlns="http://www.w3.org/2000/svg" viewBox="0 0 396.55 157.51"><g data-name="レイヤー 2"><path d="M264.39 33c-.12-.4-.23-.4-.32-.76h-.22c-.09-.32-.26-.42-.43-.65h-.11v-.32h-.11l-.54-.65h-.22l-.43-.54h-.22c-.21-.26-.43-.51-.65-.76h-.21l-.33-.44h-.22l-.65-.75h-.21l-.33-.44H259l-.55-.65h-.21l-.44-.54h-.21l-.44-.54h-.21l-.54-.65h-.22l-.33-.43h-.21l-.11-.22h-.11l-.11-.22h-.21l-.22-.32h-.22l-.11-.22h-.21l-.33-.43h-.21l-.11-.22h-.22l-.22-.32-.43-.11-.11-.22-.32-.11v-.11l-.65-.21-.11-.22-.43-.11v-.11h-.2v-.1l-.65-.22v-.11H250v-.11h-.21v-.11h-.22V21h-.22v-.11H249v-.09h-.33v-.11h-.32v-.11h-.54a14.15 14.15 0 0 0-7.69 0l-.87.11v.11H239v.11h-.43V21h-.33v.1H238v.11h-.33v.11h-.21v.11h-.33v.11h-.21v.11h-.33v.1l-.65.22v.11h-.22v.11h-.21v.11h-.22v.1H235v.11h-.21l-.22.22h-.22l-.1.22h-.22v.1l-.43.11-.11.22-.44.11-.1.21h-.22v.11l-.33.11-.1.22h-.22l-.22.32h-.21l-.22.33h-.22l-.21.32h-.22l-.33.44h-.21l-.44.54-.32.11-.76.86-1.72 1.65v.21l-.76.65v.22l-.22.11-.21.32h-.11v.22c-.2.28-.41.18-.54.65H225a1.18 1.18 0 0 1-.33.54h-.1v.22l-.55.43-.1.33-.22.11v.21l-.65.54v.22l-.54.43v.22l-.44.33v.21l-.43.33v.21l-.32.22v.22l-.44.32v.22l-.21.11v.11l-.22.1v.22l-.22.11v.22l-.43.32v.22l-.32.21-.11.33-.22.11v.21l-.22.11-.1.33h-.11v.21l-.33.22v.22l-.21.11-.11.32h-.11v.22l-.33.21v.22l-.21.11-.11.43-.33.22-.1.43-.22.11v.22l-.22.11v.21h-.11v.22l-.32.22v.21h-.11v.22l-.22.11-.1.43-.22.11-.11.43-.22.11-.1.43-.22.11-.11.44-.22.1-.1.44-.22.11-.22.65-.21.1v.22l-.22.22v.21l-.22.11v.22H213v.22l-.21.1-.22.65-.22.11-.1.44-.22.1-.11.44-.22.11-.21.64-.22.11-.11.33h-.11v.21l-.21.22V52h-.11v.21h-.11l-.11.33-.21.11-.11.43-.22.11-.11.43-.21.11-.11.43-.22.11v.22l-.22.11v.21l-.21.11-.11.44-.22.1v.22l-.21.11V56l-.22.1v.22l-.22.11v.22h-.11l-.1.32-.22.11v.22l-.33.21v.22l-.21.11v.21l-.44.33v.22l-.21.1v.22l-.22.11v.11l-.22.11v.21c-.19.28-.43.21-.54.65h-.21v.22a3.71 3.71 0 0 1-.87.43v-.65c0-.15-.12.05-.11-.11h.11v-.75h.11v-.75h.11v-.44h.1l.15-1.06.54-1.95v-.54h.11v-.33h.11l.22-1.4c.55-1.64.87-3.57 1.41-5.2l.21-1.41h.11v-.33h.11v-.43h.11V45h.11v-.44h.1v-.43h.16l.11-.87h.11c.14-.68.29-1.37.43-2h.11l.11-.76h.11l.11-.76h.1c.08-.36.15-.72.22-1.08h.11v-.33h.11v-.32h.11v-.33h.1l.22-1h.11v-.28h.11l.11-.65h.1l.22-.65h.11v-.22h.11v-.32l.21-.11v-.22h.11V34h.11v-.2h.11v-.22l.22-.21v-.22l.21-.11v-.22l.22-.21v-.22h.11v-.22l.21-.1.11-.44.22-.11.22-.65.21-.1.22-.65.22-.11.21-.65.22-.11V29l.22-.21v-.19l.21-.11v-.22l.22-.21v-.22h.11v-.22l.21-.1v-.22h.11V27h.11v-.21h.11v-.22l.22-.11.1-.54.22-.11.11-.43h.11l.21-.65h.11v-.33h.11v-.21h.11l.22-1h.1V23h.11v-.33h.11v-.22h.11V22h.11v-.54h.11l-.16-2.46-1-1.3h-.21l-.11-.22h-.22v-.11h-.22v-.11h-.32v-.1h-.22V17h-.43v-.1h-.87a1.91 1.91 0 0 0-1-.11v.11h-.22v.1h-.32v.11h-.22v.1h-.22l-.11.22-.43.11v.11a1.58 1.58 0 0 1-.65.43.88.88 0 0 1-.22.43h-.1l-.11.33-.18.16v.21h-.11v.22l-.21.11-.22.65-.22.11v.32h-.11v.22H209l-.11.43h-.11v.33h-.11v.21h-.11V22l-.21.11v.32h-.11l-.11.44h-.11v.32H208l-.11.44h-.1v.32h-.11v.22h-.11v.32h-.11v.22h-.11l-.11.54h-.1v.33H207l-.11.65h-.11v.21h-.11v.33h-.11V27h-.1l-.11.65h-.11v.22h-.11v.33H206v.21h-.11l-.1.65h-.11v.22h-.11l-.11.65h-.11l-.11.43h-.1v.33H205v.21h-.11v.33h-.11l-.22.65h-.1v.22h-.11v.21h-.11v.22h-.11v.22l-.22.21v.22h-.1l-.11.32-.22.11-.11.44-.21.1v.22l-.22.11v.22l-.22.1v.2h-.11l-.1.33-.22.1v.22l-.33.22v.21l-.21.11v.22l-.44.32-.1.33-.22.11v.21l-.22.11v.11l-.21.11v.22l-.55.43v.22l-.32.21V39l-.33.22v.1l-.21.11v.22h-.11c-.2.24-.45.4-.54.76h-.22c-.14.51-.51.46-.65 1h-.22a2.1 2.1 0 0 1-.65.87l-.21.11v.21L195 44.09v.22l-.21.11-.87 1h-.22v.22l-1 .86-.11.22-.33.11V47h-.1l-.22.32h-.22l-1.3 1.41h-.21c-.22.25-.44.5-.65.76h-.22l-.87 1c-.31.23-.43.17-.65.54h-.21v.22c-.55.15-.73.72-1.3.87v.21a1.21 1.21 0 0 0-.55.33v.11h-.21l-.22.32h-.22l-.32.43-.33.11-.1.22h-.22l-.33.43h-.21l-.33.44H183l-.11.21h-.22l-.32.44h-.22l-.11.21h-.22l-.21.33h-.22l-.11.21h-.21l-.22.33-.33.11-.1.21h-.22l-.11.22-.32.11v.11h-.22l-.22.32h-.21l-.11.22-.33.11V58h-.21l-.11.21h-.22l-.11.22h-.21l-.11.22-.44.1-.1.22-.33.11v.11l-.43.11-.11.21-.33.11v.11l-.65.22-.1.21-.44.11-.11.22-.43.11-.11.21h-.21l-.22.22h-.22l-.11.22h-.21l-.22.21h-.22v.11h-.21l-.11.22h-.33v.11h-.21v.1h-.22l-.11.22h-.21v.11h-.22v.11h-.33v.11l-.64.21v.11h-.22v.11h-.33v.11l-.43.11v.1h-.32l-.11.22h-.33v.11h-.21v.11h-.33v.11h-.22v.1L167 64v.11l-.43.11v.11l-.65.11v.1h-.32v.11h-.33v.11H165v.11h-.44V65h-.32v.11h-.44v.1h-.43v.11h-.54v.11h-.33v.11l-1.19.11v.11l-1.62.1a13.29 13.29 0 0 1-3.36.11v-.11h-.87v-.1h-.54v-.11h-.54v-.11h-.22v-.11h-.43l-2-1-.11-.22-.62-.51c-.23-.33 0-.39-.43-.65a5.31 5.31 0 0 1 .21-1.95h.11v-.22h.11l.11-.54.22-.11v-.32h.1v-.22h.11v-.22l.22-.11v-.21h.11v-.22h.13v-.32h.1v-.22l.22-.11v-.22l.22-.21v-.22h.11v-.22l.21-.1.11-.44.22-.21v-.22h.11v-.22h.1V56h.11l.11-.44h.11v-.21h.11v-.22h.11v-.33l.21-.1v-.33h.11l.11-.43h.11v-.33l.21-.11v-.32h.11l.11-.43h.08l.11-.55h.11l.21-1h.11l.11-.43h.11l.11-.65h.1v-.33h.11v-.32h.11v-.33h.11v-.43h.11v-.22h.11l.1-.76h.11v-.32h.11v-.33h.11l.11-.75h.11l.1-.87h.11l.22-1.3h.11v-.54c.28-.86.38-2.07.65-2.93 0-.5.07-1 .11-1.51.27-.88.15-1.58.43-2.5v-1.04h.1c.07-.26-.12-.46-.11-.54h.11v-1.41a15.34 15.34 0 0 0 .1-3.69h-.1c0-.08.18-.29.11-.54H159v-1.2h-.11v-.54h-.11l.11-.21h-.11c-.11-1.09-.22-2.17-.32-3.25h-.11v-.22h-.11l-.22-1.3h-.11l-.1-.43h-.11l-.22-1h-.11v-.22h-.11v-.21l-.26-.08-.11-.54-.22-.11-.11-.43-.32-.22v-.22l-.54-.43v-.22l-.87-.76-.11-.32h-.21v-.22l-.22.11-.22-.32-.54-.11-.11-.22h-.21l-.11-.22h-.44v-.1l-.43-.11v-.11H152v-.11h-.33V16h-.32v-.11H151v-.1h-.54v-.11a6.34 6.34 0 0 0-2.49.21c-.35.11-.55-.15-.76-.1v.1h-1.41c-.07 0 0-.14-.32-.21a1.33 1.33 0 0 0-.65-1h-.22v-.11h-.22v-.1h-.54v-.11l-.65-.22v-.11h-.2c-.18-.12-.27-.39-.54-.54v-.22l-2.46-.49v-.11h-.22v-.1h-.32v-.11l-1.63.11v-.11l-.21.11h-.87v.1h-.22v.11l-.43.11-.11.22h-.32v.11h-.22v.1l-1.3.44-.22.32-.43.33v.11h-.22l-.65.75h-.21l-.11.22-.44.11-1.19 1.52h-.21a1.9 1.9 0 0 1-.55.75h-.1v.22c-.14.19-.39.28-.55.54h-.21c-.21.89-1.31 1.19-1.52 1.95h-.22v.22c-.29.08-.24 0-.32.32h-.22v.22a1.14 1.14 0 0 0-.76.76c-.44.13-.11.08-.32.32h-.11v.11h-.22l-.75.87-.44.22v.21h-.11l-.21.33h-.22l-.11.32a1.57 1.57 0 0 0-.86.76h-.22v.22c-.42.11-.67.5-1 .76v.1l-.32.11-.11.33h-.22l-.65.76c-.31.22-.43.16-.64.54h-.22v.21a3.54 3.54 0 0 0-1.3 1.09h-.22v.21a1.18 1.18 0 0 0-.54.33v.1h-.22l-.21.32h-.22l-.43.54H116l-.43.55h-.22l-.32.43h-.22l-.33.43h-.21l-.33.44h-.21l-.33.43h-.22l-.32.43h-.22l-.43.54H112l-.32.44h-.22l-.32.43c-.38.26-.62.23-.87.65H110v.22a.87.87 0 0 0-.43.21v.11l-.33.11-.1.22h-.22l-.43.54-.33.11-.11.21h-.21l-.33.44h-.22l-.32.43h-.22l-.32.43h-.22L106 39h-.21l-.33.43h-.21l-.11.22H105l-.11.22h-.22l-.43.54h-.22l-.1.21-.33.11-.43.54H103l-.22.33h-.21l-.22.32h-.22l-.43.55h-.22l-.21.32H101l-.32.43h-.22l-.33.44H100l-.33.43h-.21l-.33.43h-.22l-.21.33h-.22l-.32.43h-.22l-.33.44h-.21l-.44.54h-.26l-.11.21h-.11l-.11.22h-.21l-.33.43h-.22l-.43.55H95l-.1.21h-.11l-.11.22c-2.93 2.1-5.53 4.51-8.45 6.61l-.33.43h-.21l-.33.43h-.21l-.33.44h-.22l-.43.54-.32.11-.11.21h-.22l-.43.54h-.22l-.32.44h-.22l-.33.43h-.21l-.33.43h-.21l-.44.55h-.21l-.33.43H80l-.32.43h-.22l-.32.44h-.22l-.32.43h-.22l-.43.54h-.22l-.54.65H77l-.32.43h-.22l-.43.55h-.22l-.43.54h-.22l-.43.54h-.22l-.54.65h-.22l-.11.22h-.11l-.21.32h-.22l-.65.76h-.22v.11l-.32.21-.22.33h-.21l-.22.32h-.11l-.11.22h-.21l-.76.87h-.22l-.65.76H69l-.54.65h-.21c-.26.28-.51.57-.76.86h-.22c-.21.26-.43.51-.65.76h-.21v.22a2.1 2.1 0 0 0-.87.65l-.11.21h-.22l-1.4 1.52h-.22v.22h-.22l-.32.43-1.19 1.08-.22.33h-.22L60 77.46l-1 .86-.33.44h-.21l-1.63 1.73-.32.22v.1h-.22l-1.52 1.63h-.21c-.17.58-.6.37-.76 1-.47.14-.37.34-.65.55h-.22l-.21.32h-.22l-.11.22a1.54 1.54 0 0 1-.76.43v.22l-1.08.65-.22-.11-.11.22c-.47-.07-.35-.24-.65-.44a13.2 13.2 0 0 1 .76-4.33l.11-.87h.11l.11-.86h.11l.21-1.2h.11v-.32h.11v-.43h.11V77h.11v-.3h.1v-.44c.72-2 1.24-4.21 1.95-6.17v-.43h.11v-.33h.11V69h.11v-.44c1-2.79 1.8-5.87 2.82-8.66v-.44h.1v-.32h.11v-.33h.11v-.31h.11v-.33h.11v-.32h.11v-.33h.1l.11-.65h.11v-.21h.11v-.33h.11l.11-.43H58v-.33h.11l.11-.43h.11v-.22l.22-.11.21-.65.22-.1.11-.44.21-.11.11-.43h.11l.11-.32.22-.11v-.22l.21-.11.11-.32h.11v-.22l.22-.11.1-.43.22-.11v-.22l.22-.1v-.22h.11v-.22l.21-.1v-.22l.22-.11v-.22l.22-.1v-.22l.21-.11.11-.43.22-.11.11-.33h.1l.11-.43.22-.11.11-.32h.11l.1-.44.22-.1v-.22l.22-.11v-.22h.11v-.21l.21-.11.11-.43.22-.11.11-.44.21-.1.11-.44.22-.11.11-.43.21-.11.11-.43.22-.11.11-.43.21-.11.11-.43.22-.11.21-.65.22-.11v-.22h.11v-.21l.22-.11.1-.44.22-.1v-.22l.22-.22v-.21h.11v-.22l.21-.11v-.22l.22-.21v-.22h.11v-.22l.21-.1.22-.65.22-.11v-.22l.21-.22v-.21h.11v-.22l.22-.11v-.21l.21-.22v-.22h.11l.22-.65.22-.11v-.21l.21-.22v-.22h.11v-.21h.11v-.22l.22-.11V34h.1v-.33l.22-.11.11-.43h.11v-.22h.11v-.21h.1v-.2h.11v-.22h.11l.11-.43H72l.11-.43.21-.11.33-1 .21-.11.11-.43h.11l.22-.65h.11v-.32h.1v-.2h.11l.11-.43h.11V28H74v-.22h.11v-.21h.1v-.27h.11v-.22h.11v-.21h.11l.11-.55h.11l.21-.65H75v-.21h.11v-.22h.11V25h.11v-.3h.1l.11-.43h.11v-.33h.11l.22-.65h.1v-.22h.11v-.32h.11l.11-.43h.11V22h.11l.1-.43h.11v-.33H77V21h.11l.11-.55h.11v-.32c1-2.21 1.81-4.76 2.6-7.15v-.54H80V12h.11v-.43h.11V9.64h.11v-.11c-.2-.28-.09-.61-.22-1H80v-.41h-.1l-.11-.43h-.11v-.22l-.22-.1v-.22L79 6.82l-.22-.32-.65-.22v-.11L77.52 6v-.15h-.43v-.11A2.29 2.29 0 0 0 75.9 6l-1 .11v.1h-.21v.11l-.44.11-.11.22H74L72.65 7.8V8l-.44.32v.22l-.32.21-.11.44-.22.11v.21l-.21.11-.11.33h-.11l-.11.54h-.11v.21l-.21.11-.11.54-.22.11-.11.54h-.1v.22h-.11l-.11.43h-.11V13h-.11v.22h-.11v.21h-.1v.22h-.11V14h-.11l-.11.44h-.11v.32H69V15h-.1v.32h-.11l-.11.44h-.11v.21h-.11v.33l-.21.11v.32h-.15v.22H68v.32h-.11v.22h-.11l-.1.43h-.11v.33h-.11v.22h-.11v.32h-.11l-.11.43H67v.33h-.11l-.11.43h-.11v.33h-.11v.21h-.11l-.1.65h-.11v.22h-.11v.33H66l-.11.54h-.11v.21h-.1v.33h-.11v.2h-.07l-.11.65h-.11l-.11.43h-.1v.32H65v.22h-.11l-.11.54h-.11l-.11.65h-.1V26h-.11v.32h-.15v.22h-.11v.33H64v.32h-.11v.22h-.1l-.11.65c-2.14 4.83-3.8 10.08-5.68 15.16l-.1.76h-.11v.33h-.09v.32h-.11V45h-.11v.32h-.11l-.21 1.09h-.11l-.33 1.4h-.1l-.33 1.41h-.11c-.11.47-.21.94-.32 1.41h-.11V51h-.11v.33h-.11v.32h-.11V52h-.1l-.11.65h-.11l-.11.43h-.11v.33h-.11l-.1.43h-.11v.22l-.22.1-.22.65-.21.11v.22l-.22.11-.11.43h-.11l-.1.33-.22.1v.22l-.22.11v.22l-.21.1V57l-.22.11v.22h-.11l-.11.32-.21.11V58l-.33.21v.22l-.22.11v.21l-.21.11-.11.33-.33.21v.22l-.21.11-.11.32-.33.22v.22l-.43.32V61l-.43.32v.22l-.44.33v.21l-.54.44v.21l-.54.44v.21h-.11l-.21.33-.22.11a32 32 0 0 1-3.47 3.79 23.82 23.82 0 0 1-2.71 2.6l-.75.86h-.22l-.65.76h-.22l-.54.65h-.22l-.32.44H38l-.32.43h-.22l-.32.43h-.24l-.22.33h-.21l-.22.32H36l-.11.22h-.21l-.22.32h-.22l-.1.22-.33.11v.11h-.22l-.1.21-.33.11v.11l-.43.11-.11.22-.43.1-.11.22h-.22l-.22.22h-.21v.11h-.22v.1H32l-.1.22-.55.11v.11h-.21v.11l-.65.21v.11h-.33v.11H30v.1h-.33v.11h-.22v.1h-.35v.11h-.33v.11h-.32v.11h-.33v.11h-.43v.11h-.43v.1h-.65a7.82 7.82 0 0 1-5.2-.54h-.33v-.11l-.43-.1V78l-.43-.11v-.11l-.33-.11-.11-.21h-.21l-.11-.22h-.22l-.43-.54h-.22l-.11-.22-.65-.54v-.22l-.54-.43v-.22l-.29-.21v-.22l-.22-.11-.11-.43-.24-.1-.11-.43-.22-.11L16 73h-.11l-.21-.65h-.11V72h-.11v-.22h-.11v-.28h-.11v-.22h-.1c-.08-.32-.15-.65-.22-1h-.12v-.44a29.1 29.1 0 0 1-1.08-10.4l.21-3.36H14V55h.11v-.87h.11v-.75h.11v-.76c.18-.61.25-1.47.43-2.06l.11-1.3c.44-1.43.63-3.16 1.08-4.55v-.51h.11l.11-.87h.11v-.43h.11v-.43h.1V42h.11v-.4h.11v-.33h.11l.11-.86h.11l.21-1.09h.11l.22-1.08h.11v-.32h.1v-.33h.11c.07-.32.15-.65.22-1h.11v-.19h.11l.21-1h.11l.11-.54h.11v-.21H19l.11-.65h.11l.11-.44h.11l.11-.65h.1l.11-.43h.11v-.33H20l.22-.65h.1v-.21h.11V31h.11l.22-.65h.11v-.21H21v-.24h.11v-.22h.11v-.21l.22-.22V29l.21-.11.22-.65.22-.1V28l.21-.11v-.22h.11l.22-.32a2.25 2.25 0 0 0 .43-.11v.11l1 .22v.1l.43.11v.11l.65.11v.11h.22v.11l.65.1v.11h.21v.11h.44v.11h.32v.11h.44v.11h.43v.1l1.08.11v.11h1a7.92 7.92 0 0 0 2.6.11v-.11h.86V29h.44v-.11h.43v-.1h.43v-.11h.44v-.08l.54-.11v-.11h.22v-.11h.32v-.1l.43-.11V28l.44-.11.11-.22.43-.1.11-.22h.21l.22-.33h.22l.43-.54H39l.11-.21.65-.55v-.21l.54-.44v-.21l.21-.11v-.22l.44-.32v-.33l.21-.11v-.21l.22-.11v-.22l.22-.11v-.32h.11v-.22h.1l.11-.43H42l.11-.54h.11l.21-1.09a11.46 11.46 0 0 0 .55-3.9v-1.56h-.11l-.11-1.3h-.11v-.33h-.11v-.32h-.11v-.33h-.1v-.32h-.11l-.22-.65h-.11l-.11-.44-.21-.1v-.22l-.22-.11v-.22h-.11a.87.87 0 0 1-.21-.43h-.23v-.22h-.22v-.21l-.32-.11-.11-.22h-.22l-.11-.21h-.21v-.11h-.22V9.1h-.22V9l-.54-.11v-.12h-.43v-.1h-.54v-.11a1.94 1.94 0 0 0-1 .11h-.86v.1h-.44v.11h-.32V9h-.44v.1l-.43.11v.11l-.54.1-.11.22h-.32l-.11.22h-.22V10h-.22l-.21.21h-.22l-.11.22-.32.11-.22.32h-.22l-.1.22h-.22l-.22.32h-.21l-.55.65h-.21l-.76.87h-.22l-.11.22-.75.65V14l-.87.76V15l-.54.43v.22l-.54.43v.22l-.33.22v.21l-.32.22v.22l-.22.1-.11.33H25v.22l-.21.1v.22l-.22.11v.22l-.22.1-.11.33h-.1l-.11.43-.22.11v.22h-.11v.21l-.21.11-.11.33h-.11l-.22.65-.21.11-.11.43-.22.11v.21l-.22.11v.22h-.1l-.33.43a2.06 2.06 0 0 1-1.08-.32v-.16h-.22l-.22-.33h-.21l-.13-.21-.43-.11-.33-.45H19l-.32-.44h-.22l-.21-.32h-.22l-.65-.76h-.22l-1.3-1.41-1.51-1.41-.11-.32-.87-.76v-.22l-.76-.65v-.21l-.54-.44v-.21l-.54-.44v-.21l-.53-.42v-.21l-.33-.22v-.22l-.32-.21v-.22l-.35-.22-.1-.32-.22-.11v-.22l-.22-.11-.11-.32h-.1v-.22l-.22-.11v-.21l-.22-.11v-.22l-.21-.11L8.52 9l-.22-.12-.11-.32h-.11L8 8.12 7.76 8l-.11-.44h-.11v-.19h-.11l-.21-.65h-.11v-.33H7v-.22l-.22-.1c-.1-.69-.21-1.38-.32-2.06h.11c0-.47.07-.94.11-1.41h-.11v-.33h-.11l-.22-.65h-.11v-.21l-.21-.11v-.22h-.11L5.59.76C5.14.45 4.48.46 4.18 0A1.8 1.8 0 0 0 3.1.32L3 .54l-.55.11-.11.22h-.21c-.07 0-.09.14-.22.21-.15.47-.29.94-.43 1.41V3L1 3.36.93 3h-.1c0-.15.08.05.1-.11A7.17 7.17 0 0 0 .83 1c-.31.09-.32.2-.55.33l-.1.54H.07a3.66 3.66 0 0 0 .76 2.79H1l.11.21h.33l.1.22h.33v.11l.54.11v.11c.37.32 0 .09.22.43l.25.15v.32l.22.11v.22l.54.35v.22l.36.25.21.65.33.22v.22l.32.21V9l.44.33.11.32.21.11V10l.44.32v.22l.43.32v.22l.32.22.11.32.22.11v.22l.22.1v.22l.43.33v.21l.32.22v.22l.44.32v.22l.43.32v.22l.54.43V15l.54.43v.22l.55.43v.22l.86.76a34.19 34.19 0 0 0 3.69 4l1.4 1.51h.22l.65.76h.22l.76.87h.21l.11.21.32.22v.11h.22c.28.2.18.41.65.54.07.32.37.6.22 1.08H20l-.22 1h-.11v.22h-.1v.32h-.11v.22h-.11v.32h-.11l-.11.44H19V29h-.1v.33h-.11v.21h-.09v.33l-.22.11v.32h-.1v.33h-.11v.21h-.11v.33h-.11v.22h-.11v.32h-.11V32h-.1l-.11.65h-.11v.21h-.11l-.11.65h-.11l-.21 1h-.11v.22h-.11V35h-.11c-.14.61-.29 1.23-.43 1.84h-.11v.22H16l-.11.87h-.1v.32h-.11v.43h-.11l-.11 1h-.11V40h-.11L15 41.38h-.11l-.11 1.09c-.35 1.11-.42 2.53-.76 3.68v.76h-.11v.65h-.1v.76h-.11c0 .57-.08 1.15-.11 1.73h-.09v.54h-.11v1.08h-.11v.87h-.1v1h-.11v1H13V56h-.11l-.11 2.81V60a6.66 6.66 0 0 0-.11 2.17h.11c.18.66-.07 1.74.11 2.38.07.94.14 1.88.22 2.82h.11l.17 1.63h.11l.11.86h.11l.11.76h.1V71H14v.32h.11l.11.65h.11v.22h.11v.32h.1v.22h.11V73h.11l.22.65h.11l.1.44.22.11v.21l.22.22v.22h.11v.21l.21.11v.22l.33.21v.22l.21.11v.22l.33.21c.23.32.17.43.54.65v.22h.22v.11c.22.19.06.22.43.32v.22l.33.11.54.65h.21l.22.32h.22l.1.22.44.11.11.21.43.11v.11h.22v.11l.65.22v.1l1.08.22a7.67 7.67 0 0 0 4 .33h.86v-.1H28v-.11h.54v-.11H29v-.11h.43v-.11h.33v-.1h.32V80h.33v-.11l.65-.11v-.11h.22v-.11h.32v-.1h.22v-.16h.32v-.11l.44-.11V79h.32v-.11h.22v-.1l.43-.11v-.11h.22v-.11H34v-.11h.22v-.11h.22v-.1h.21V78h.22v-.11h.22v-.11h.21l.22-.22h.22l.11-.21.43-.11.11-.22.65-.21.11-.22h.21l.22-.22h.22l.1-.21h.22l.11-.22h.22l.1-.22.44-.11.21-.32.44-.11.32-.43h.22l.11-.22.32-.11v-.11h.22l.32-.43h.22l.33-.43h.21l.33-.44h.21l.44-.54h.21l.76-.86h.22l.65-.76h.22v-.22c.52-.14 1.14-1 1.51-1.41l2.17-2.06V67l.22-.11.54-.65.65-.54v-.22h.11a1.94 1.94 0 0 0 .54-.76h.21c.17-.61.82-.68 1-1.3.22-.06.09 0 .22-.11h.21c-.09.24 0 .65-.11 1h-.1l-.11.87h-.11l-.11.86h-.11v.44h-.11l-.1.75h-.11v.33h-.16l-.2 1.23c-1.21 3.4-1.85 7.28-3 10.72v.55c-.49 1.43-.82 3.2-1.3 4.65v.65h-.11v.33h-.11l-.11 1.08c-.35 1.14-.5 2.57-.86 3.69V91h-.11v.43h-.11v.43h-.11v.33H45l-.1.76h-.11l-.11.43h-.11l-.11.43-.21.11-.11.44-.22.1v.22l-.22.11V95l-.21.1-.11.44-.22.11v.21L43 96v.22l-.22.11v.21l-.22.11-.11.33h-.1v.21l-.22.11v.22l-.22.11v.21l-.21.11v.22l-.22.11v.21l-.22.11-.11.43-.32.22-.11.43-.22.11v.21l-.21.11v.21l-.22.11-.11.43-.21.11-.11.33h-.14l-.11.43-.22.11-.1.32H39v.22h-.11v.22l-.22.11-.11.43-.21.11-.11.43-.22.11-.11.43-.21.11-.11.43-.22.11-.21.65-.22.11v.22h-.11v.21l-.22.11v.22l-.21.22v.21h-.11v.18l-.22.11v.21l-.21.22v.22h-.11v.24l-.22.11v.22l-.22.22v.21h-.1v.24l-.22.11v.21l-.22.22v.22h-.11v.24h-.1v.22l-.22.22v.21l-.22.11v.22l-.21.22v.21h-.11v.22h-.11v.22h-.11v.15h-.11v.22h-.11v.22h-.1l-.11.43H33l-.11.43h-.11v.22h-.11v.22h-.1v.26l-.22.22v.22l-.22.1v.33H32l-.1.43h-.11v.22h-.09v.22h-.11l-.22.65h-.1v.32h-.11l-.22.65h-.11v.22h-.11v.21h-.1l-.11.44h-.11v.32h-.11l-.22.65H30v.22h-.11v.32h-.11l-.11.44h-.11v.21h-.11v.33h-.1l-.11.43h-.14v.33H29l-.11.43h-.11v.33h-.1v.21h-.11v.33h-.11v.22h-.11v.33h-.11l-.11.54H28v.13h-.11v.32h-.09v.22h-.11l-.11.65h-.11v.22h-.1v.43h-.11v.22h-.11v.32H27v.33h-.11v.32h-.11v.33c-.18.47-.46 1-.65 1.51l-.21 1h-.11v.21h-.11v.44h-.11v.32h-.11v.22h-.1v.43h-.11v.22h-.07v.43h-.11v.33H25v.21h-.11v.32h-.1v.43h-.11v.22h-.11l-.11.87h-.11v.32h-.11v.33h-.1v.32H24v.33h-.1v.43h-.11v.32h-.11v.43c-.45 1.25-.75 2.72-1.19 4l-.11.86h-.11v.44h-.1v.43h-.11l-.11 1h-.11l-.11 1h-.11v.65h-.1v.54h-.11v.43h-.11v.65h-.11v.55h-.11l-.11 1.3h-.1c0 .57-.08 1.15-.11 1.73h-.11V152a7.63 7.63 0 0 0 .54 4.55l.54.43.11.22h.22v.1l.54.11v.11a3.58 3.58 0 0 0 2.38-.87h.22l.11-.21h.21l.65-.76h.22l.11-.22.5-.46v-.22l.76-.65v-.21l.22-.11v-.22l.43-.32v-.22l.22-.11v-.22l.32-.21v-.22l.22-.11V152l.21-.11.11-.33h.11v-.21h.11v-.22L30 151l.1-.43.22-.11.11-.43.22-.11.1-.43.22-.11v-.22l.22-.22v-.21h.11v-.22l.21-.11v-.21l.22-.22v-.22h.11v-.21h.11v-.22H32v-.22h.11v-.21h.11v-.22h.11v-.22h.11v-.21h.11l.1-.44h.11v-.21h.11v-.33l.22-.11v-.32h.11v-.22h.1l.22-.65h.11v-.32h.11l.11-.44H34v-.32h.11l.11-.44h.11v-.21h.11v-.33h.11l.1-.43h.11v-.33h.11l.11-.54h.11v-.21h.11v-.33h.1l.11-.43h.11v-.33h.11v-.3h.11v-.22h.11v-.32h.1v-.22H36v-.33h.11v-.21h.11l.11-.65h.11v-.22h.1v-.32h.11v-.22h.11V136h.11l.11-.65h.11v-.21h.1l.11-.65h.11v-.22h.11l.22-1h.1V133H38v-.43h.11v-.22h.11l.11-.65h.11v-.22h.1v-.43h.11v-.33h.11v-.21h.11l.22-1h.1v-.43h.11v-.33h.11v-.21h.11l.11-.76h.11v-.22h.1v-.32h.11v-.44H40l.11-.65h.11v-.32h.11v-.33h.1v-.32h.11v-.33h.11l.22-1.08H41v-.43h.1v-.33h.11v-.43h.11v-.22h.11v-.32h.11v-.44h.11l.1-.75h.11c.07-.37.15-.73.22-1.09h.11v-.32h.11V119c1.09-3 1.72-6.49 2.81-9.53v-.43h.11v-.44h.11v-.43h.11v-.43c1-2.75 1.42-6 2.38-8.78.22-1 .43-2 .65-3h.11v-.32h.11v-.33h.11V95h.1l.11-.65h.11l.11-.44h.11v-.21l.21-.11.11-.44h.11l.11-.32.22-.11v-.22l.54-.43v-.22l.32-.21v-.22l.54-.43v-.22l.44-.32v-.22l.65-.54v-.22l.43-.32v-.22l.65-.54v-.22c.2-.27.43-.21.54-.65h.22c.13-.47.34-.37.54-.65v-.22l.22-.1v-.11l.21-.11v-.22c.26-.21.51-.43.76-.65v-.21l.54-.44v-.21l.87-.76v-.22h.11l.32-.42c.38-.38 1.27-1 1.41-1.52.52-.14.75-.64 1.09-1l.86-.76.22-.33h.22l1-1.08h.2l.76-.87H64c.22-.25.44-.5.65-.76h.22l.65-.75h.22l.54-.65h.21v-.08l.33-.22.22-.32h.21l.44-.55h.21v-.1l.33-.22.11-.22h.21l.43-.54h.22l.43-.54h.22l.33-.43h.21l.44-.55H71l.33-.43h.21l.33-.43h.22l.32-.44h.22L73 70h.22l.32-.43h.22l.33-.44h.21l.33-.43h.21l.11-.22.33-.1.32-.44h.22l.18-.34.32-.11.11-.22h.22l.21-.32h.22l.22-.33h.21l.22-.32H78l.21-.33h.22l.22-.32.32-.11.11-.22h.22l.21-.32h.22l.22-.33h.21l.22-.32h.22l.1-.22h.22l.22-.32h.21l.22-.33h.22l.21-.32h.22l.11-.22h.22l.21-.33.33-.1.11-.22h.21l.11-.22h.22l.21-.32h.22l.11-.22h.22l.21-.32h.22L85 61h.21l.22-.33h.22l.11-.21H86l.22-.33h.22l.1-.21.33-.11v-.11h.22l.21-.33h.22l.11-.21.32-.11v-.11h.22l.22-.32h.21l.11-.22h.22l.21-.33h.22l.11-.21.32-.11v-.11H90l.22-.32h.21l.11-.22.33-.11v-.11h.21l.11-.21h.22l.22-.33.32-.11L92 56h.22l.1-.22h.22l.11-.22h.22v-.11l.32-.1.11-.22h.22l.21-.33.33-.1.11-.22h.21l.11-.22.43-.11.22-.32.33-.11v-.11h.21l.22-.32.43-.11.22-.33h.22l.1-.21.33-.11v-.11h.22l.1-.22h.22l.11-.21h.22l.1-.22h.22l.11-.22h.22l.1-.21h.22l.11-.22h.22V51l.32-.11.11-.21h.22l.21-.33.44-.1.21-.33h.22l.11-.22.32-.1v-.11h.22l.11-.22.32-.11v-.11l.44-.1.21-.33h.22l.11-.22h.21l.11-.21.33-.11V48h.21l.11-.22.33-.1v-.11l.43-.11.11-.22h.22l.21-.32.65-.22.22-.32h.22v-.11h.21l.11-.22.43-.11.11-.21.44-.11.1-.22.33-.11v-.11h.22v-.1h.21V45h.22v-.11c.23-.13.24 0 .43-.22h.76v.11h.11c-.15.23 0 .53-.11.87H110V46h-.11v.43h-.1v.22h-.11v.43h-.11v.22h-.11l-.11.76h-.11v.22h-.1l-.11.75h-.11v.22h-.11l-.22 1.08h-.1v.22h-.11l-.11.76h-.11v.21h-.11v.33H108v.43h-.1v.33h-.11V53h-.11v.33h-.11v.32h-.11v.44h-.11v.32h-.1v.33h-.11V55H107c-.07.36-.15.72-.22 1.08h-.11l-.1.87h-.11v.43h-.11v.33h-.11l-.11.87H106l-.1 1h-.11v.54c-.17.53-.27 1.29-.44 1.84v.76a5.81 5.81 0 0 0-.21 1.52v1.08H105v1.41h.11v1.52h.11v1h.1V70h.11v.54h.11v.54h.11v.33h.11v.32h.11l.32 1.41h.11l.22.65h.1V74h.11v.22h.11v.32l.22.11.11.43.21.11.11.43.22.11v.22l.32.22v.21l.44.33v.21l1 .87.33.43h.2l.44.55h.21l.11.21.43.11.11.22.33.11v.1l.54.11.11.22 2.92 1h.65a10 10 0 0 0 4 .11h1.19v-.11h.76v-.1h.65v-.15h.55v-.11h.54v-.11h.54v-.11h.44v-.11h.48v-.1h.43V80l.76-.11v-.11l.76-.11v-.11h.33v-.1h.32v-.16h.33v-.11l.65-.11V79h.21v-.11l.65-.1v-.11l.44-.11v-.11h.32v-.11h.22v-.11h.32v-.1l.65-.22v-.11h.22v-.11h.22v-.11h.32l.11-.21h.22l.21-.22h.22V77h.22v-.11h.21l.22-.21h.22l.1-.22h.33l.11-.22.43-.1.11-.22.43-.11.11-.22.43-.1.11-.22.44-.11v-.11l.32-.11.11-.21h.19l.21-.33h.22l.11-.21.32-.11V74h.22l.22-.33h.21l.11-.21h.22l.21-.33h.22l.22-.32h.21l.11-.22h.19l.32-.43h.22l.11-.22h.11l.11-.22h.21l.11-.21h.22l.21-.33h.22l.22-.32h.21l.11-.22h.22l.11-.22h.29v-.1l.44-.11v-.11h.32V70c.15 0 0 .06.11.11a1.42 1.42 0 0 1 .87 0v.11h.26v.11h.22v.1h.32v.11l.65.22v.11h.22V71l.43.1v.11l.33.11.11.22h.32v.11l.44.1v.11h.21v.11h.22V72h.22v.11h.21v.11h.33l.11.21h.43v.11h.23v.11h.32v.11h.33v.11h.35V73h.43v.11h.44v.11l1 .11v.11h.87v.11h1v.1a13.07 13.07 0 0 0 3.15-.1l2.38-.11v-.11h.76c1-.3 2.19-.46 3.14-.76h.54v-.11l.87-.11v-.1h.32v-.11h.33V72l.76-.11v-.11l1.08-.21v-.07h.22v-.11l.75-.11.11-.22.65-.1v-.11h.22v-.11h.32v-.11h.22v-.11l.54-.11v-.1h.33v-.11l.43-.11V70h.32v-.11l.44-.11v-.1h.21v-.11h.33l.11-.22h.21l.22-.22h.22V69h.08v-.1h.22v-.11h.22v-.11h.21v-.11h.22v-.11h.22v-.1h.21v-.11h.22v-.11L176 68l.11-.22h.33l.11-.21.65-.22.1-.22h.33v-.1l.32-.11.11-.22.44-.11.1-.21h.22l.11-.22h.22l.1-.22h.33l.22-.32.43-.11.11-.22.32-.11v-.1l.44-.11v-.11l.32-.11.11-.22h.22l.21-.32.44-.11.21-.32.44-.11.1-.22h.22l.33-.43h.21l.11-.22.33-.11v-.11h.21l.11-.21.33-.11.32-.43h.22l.11-.22h.21l.33-.43.32-.11.11-.22h.22l.21-.32h.22l.33-.44h.21l.33-.43h.21l.33-.43h.22V59a.8.8 0 0 0 .43-.22v-.11h.22v-.1l.32-.22.11-.22h.22v-.11l.43-.32.22-.33c.31-.22.43-.16.65-.54h.21v-.21a1.59 1.59 0 0 0 .87-.76h.22v-.22h.2c.22-.25.44-.5.65-.76h.22v-.11l.43-.32v-.22c.45-.12.59-.47.87-.76l.54-.43.11-.22h.18l.1-.32h.11l.54-.65h.25c.13-.48.26-.29.54-.54l1.52-1.63h.32c.07-.21 0-.09.11-.21v-.07h.33a4.2 4.2 0 0 1 0 1.73h-.11v.76h-.11v.32h-.11v.44h-.11l.11.21h-.11v.44h-.1v.54h-.11l-.11 1H199v.33h-.11v.43h-.11l-.1 1.09h-.11v.54h-.11l-.11 1h-.11v.44h-.11l-.1 1h-.11v.54c-.33 1-.54 2.19-.87 3.14l-.11.87h-.11l-.47 1.78h-.11v.22h-.11l-.21 1.08h-.11v.33h-.11v.21h-.11l-.21 1h-.11V69h-.11v.32h-.11l-.11.43h-.11v.33h-.1v.22h-.11l-.44 1.3h-.1v.21l-.22.11v.33h-.11l-.11.43h-.11V73h-.1l-.11.44h-.11v.43h-.11l-.11 1h-.11a3.24 3.24 0 0 0 .11 1.83 1.36 1.36 0 0 0 .22.86l.22.11.1.44.22.1.65.76h.22l.21.33a6.05 6.05 0 0 0 2.93.43v-.11h.32v-.11h.33v-.1h.43l.11-.22.33-.11V79l.43-.11.32-.43h.22l.22-.32.76-.65v-.22l.54-.43.11-.44.32-.21v-.22l.33-.22v-.21l.21-.11v-.22l.22-.11.11-.43.32-.22v-.21h.11l.11-.44.32-.21v-.22l.22-.11V73l.33-.21v-.22l.21-.11.11-.32h.11v-.22l.22-.11v-.21l.21-.11v-.22l.22-.11.11-.43.32-.22.11-.43.43-.33.11-.43.22-.11.11-.43h.11l.1-.33.22-.1v-.22l.33-.22v-.21l.21-.11.11-.33h.11v-.21l.22-.11v-.22l.21-.11v-.21l.22-.11v-.22h.11l.11-.32.21-.11v-.22l.33-.22.11-.43.32-.22v-.21l.22-.11.11-.43h.1l.11-.33.22-.11v-.21l.22-.11.1-.33h.11v-.21l.22-.11.11-.44.21-.1v-.22h.11v-.22l.22-.11v-.2l.22-.11v-.22l.21-.11.22-.65.22-.1.1-.44.22-.11.11-.43.22-.11.21-.65.22-.11.22-.65.21-.1v-.22h.11v-.22l.22-.11v-.21l.21-.22v-.22h.11v-.21l.22-.11.11-.43h.11v-.22h.1v-.22h.11v-.21h.11l.11-.44.22-.11V54l.21-.22v-.22h.11v-.26h.11v-.22h.11v-.22h.11v-.21h.1v-.22l.22-.22V52l.22-.11.11-.43h.1v-.22h.11V51h.11v-.21h.11v-.22h.08l.11-.43h.1v-.22h.11v-.22h.11v-.21h.11v-.22h.11v-.22l.21-.21v-.22l.22-.11v-.21l.22-.22v-.22h.11v-.21h.1v-.22l.22-.11V47l.22-.11v-.22h.11v-.22l.21-.21V46l.22-.11.11-.43.21-.11v-.22l.22-.21v-.22h.11v-.22l.21-.1v-.18h.11V44l.22-.11.11-.32h.11l.1-.43.22-.11v-.22l.22-.11v-.21l.21-.11v-.22l.22-.11.11-.43.22-.11v-.22l.21-.1V41l.22-.11v-.22h.11l.11-.32.21-.11V40l.33-.21.11-.33.21-.11v-.21L225 39v-.22l.43-.32v-.22l.22-.11v-.21l.22-.11.1-.33.44-.32v-.22l.32-.22v-.21l.44-.33V36l.43-.33.11-.32.21-.11V35l.55-.43v-.22l.54-.43v-.22l.43-.32v-.22l.65-.54v-.22l.76-.65v-.22l.22-.1a2.76 2.76 0 0 0 .75-1c.46-.13.59-.47.87-.76l.65-.54.22-.32.32-.11.33-.44h.21l.22-.32h.22l.21-.33h.22l.22-.32h.21l.22-.33.43-.1.11-.22.33-.11v-.11l.43-.11.11-.21.65-.22v-.11h.22v-.11h.21v-.1l.65-.22v-.11h.33v-.11h.21V25h.33v-.1h.22v-.11l.75-.11v-.11h.44v-.11h.32v-.11h.54a8.82 8.82 0 0 1 2.93-.32v.11h1.08l2.28.65v.11l.43.1v.11h.22v.11l.54.11.11.22.43.1.11.22h.22V26h.21l.22.32h.22l.1.22.33.11v.11h.22l.1.21.33.11.32.44h.22l.65.75h.22v.11l.32.22.22.32h.22l.54.65h.21l.65.76h.22l.76.87h.15v.11c.27.23.47.54.86.65v.21c.54.15 1.14 1 1.52 1.41l.76.54.21.44h.22l1 1.08a6.14 6.14 0 0 0 2.7 1.3 14.64 14.64 0 0 0 .11-3.36l.11-.11v-.1h-.11l.11-.33zM65.93 33H66v-.22h.11l.11-.43h.11v-.32l.21-.11.22-1H67c.06-.92.72-1.22.75-2.16H68v-.33h.22l.11-.65h.21v-.43h.22l-.22.65h-.11v.43h-.1l-.11.43h-.12l.11.22h-.11l-.22.65h-.11V30h-.1v.21h-.11v.33l-.22.11V31h-.11v.22l-.21.11v.32l-.22.11v.33l-.33.21a.56.56 0 0 1 0 .44h-.1a.71.71 0 0 0-.22.54H66v-.11c0-.11-.11.02-.07-.17zm-41.27-9.49h.11l.1-.54.22-.11.11-.44.22-.1.1-.44.22-.11v-.21l.22-.11v-.22l.32-.21v-.22h.11l.11-.33.22-.1v-.22l.32-.22v-.21l.33-.22v-.22l.32-.21v-.22l.65-.54v-.22l1.52-1.41 1-1.08h.22l.32-.43.33-.11.11-.22H32l.11-.22.33-.1v-.11l.43-.11.11-.22.43-.11.11-.21h.33v-.11h.21v-.11a5.09 5.09 0 0 1 2-.32v.1h.33v.11h.21v.11l1 .11.11.22.43.1.11.33h.11v.22h.11l.21.65h.11v.43h.11v.4h.1v.87h.11v1.19H39v.76h-.11v.54h-.11v.43h-.11v.33h-.11v.32h-.1v.22h-.11V21l-.22.1v.33l-.22.11-.1.43-.33.22v.21l-.32.22v.22l-.26.16-.54.65h-.22v.21l-.32.11v.11l-.33.11-.11.21-.65.22v.11h-.21v.11l-.65.21v.11l-1.09.22A10.18 10.18 0 0 1 26.5 25h-.33v-.1h-.32v-.11h-.22v-.09h-.21v-.11h-.22v-.11h-.33v-.11c-.16-.1-.18-.21-.32-.32a1 1 0 0 1 .11-.54zm18.2 80.16c-.2.65-.35 1.53-.54 2.17v.54q-1.24 5-2.5 10.07c0 .15 0 0-.1.11v.33h-.11v.54h-.11c-.07.4-.15.79-.22 1.19h-.11v.38h-.1v.54H39v.32h-.11v.44h-.11c-.07.39-.14.79-.22 1.19h-.1l-.11.76h-.15v.32h-.11v.33H38l-.21 1.3h-.11l-.22 1.08h-.11l-.11.76h-.1v.32H37v.33h-.1v.31h-.11v.44h-.11v.32h-.11v.33h-.1v.43h-.11v.22h-.11v.43h-.11v.32H36v.33h-.11c-.1.47-.21.94-.32 1.41h-.11v.43h-.11l-.11.65c-.4 1-.78 2.23-1.19 3.25v.33H34v.32h-.1v.33h-.11v.32h-.11v.33h-.11v.21h-.11v.44h-.11v.16h-.1v.44h-.11v.21H33l-.22 1h-.11v.21h-.1v.44h-.11v.21h-.11l-.11.65h-.11v.22H32l-.1.65h-.11v.22h-.09v.32h-.11v.22h-.11l-.11.54h-.1l-.11.65h-.11l-.11.43h-.11l-.11.65h-.1l-.11.44h-.11v.32h-.11l-.11.44h-.11v.21H30l-.11.54-.22.11v.33h-.11v.21h-.11v.22h-.1v.22h-.11v.21h-.14v.22H29v.22h-.11v.25h-.11v.22l-.21.22v.21l-.22.11-.22.65-.21.11-.22.65-.22.11-.1.43h-.11l-.11.33-.22.1v.22l-.32.22v.21l-.22.11v.22l-.54.43v.22l-.87.76-.21.32c-.29.21-.88.4-1.09.65h-.76v-.11c-.34-.24-.23-.27-.43-.65h-.11v-.21h-.11a11.7 11.7 0 0 1-.21-3.36h.11v-1.19h.1v-.76h.11v-.76h.11v-.65h.11l.11-1.19c.48-1.55.77-3.39 1.3-4.87v-.44h.11v-.32h.1v-.44c.93-2.57 1.65-5.37 2.71-7.8l.11-.65h.11v-.21h.11v-.33h.11v-.32h.1l.11-.44h.11v-.32h.11v-.22h.11v-.32H28v-.22h.1v-.32h.11v-.22h.11v-.33h.11l.11-.43h.11v-.32h.1v-.22h.11v-.33H29l.11-.43h.11v-.32h.11l.1-.44h.11v-.21h.11v-.33h.11l.11-.43H30v-.22h.1v-.32h.11l.11-.44h.11c.11-.32.22-.65.32-1h.11v-.22h.11V123h.11v-.21h.11v-.22h.11v-.22h.1v-.21h.11v-.22h.11v-.22h.11v-.21h.11v-.33L32 121v-.21l.22-.22v-.22h.11v-.21h.11v-.22h.11v-.22h.1v-.21h.11v-.22h.11l.11-.43h.11l.11-.44h.1v-.21h.11V118h.11v-.22l.22-.21v-.22l.21-.11V117l.22-.22v-.22h.11v-.21h.11v-.22l.21-.11v-.22h.11v-.21h.11v-.22H35v-.22h.11v-.21l.21-.22v-.22l.22-.1.22-.65.21-.11.22-.65.22-.11v-.22l.21-.21v-.22h.11V112l.22-.11v-.21l.22-.22.1-.43h.11l.11-.33.22-.11.11-.43.21-.11.22-.65.22-.11.1-.43.22-.11.11-.43.22-.11.1-.43.22-.11.11-.33h.11l.11-.43.21-.11.11-.32h.11l.11-.44.21-.1v-.22l.22-.11v-.22l.22-.1v-.22l.21-.11v-.22h.11l.11-.32.22-.11v-.22l.32-.21v-.22l.22-.11.11-.32h.11V103c.13-.19.39-.27.54-.54a2.49 2.49 0 0 1-.05 1.21zm96-41.27h-.11v.65h-.11v.32h-.11l-.21.65h-.11v.22l-.22.11-.11.32h-.11a1.25 1.25 0 0 0-.32.54h-.22c-.14.55-.73.84-1.08 1.2l-1.41 1.51-.32.11-.65.76h-.22l-.22.32h-.21l-.33.44h-.22l-.1.21h-.22l-.22.33-.32.11-.11.21-.43.11-.22.33-.43.11-.11.21-.33.11v.11l-.43.11-.11.21-.65.22-.11.22h-.21l-.22.21h-.22v.11h-.21v.11h-.22v.11h-.22v.11h-.21v.11l-.65.21v.11l-1.95.65V74h-.22v.11H124v.11h-.33v.1h-.32v.11l-.76.11v.11h-.44v.11h-.65a10.43 10.43 0 0 1-5.84-.11h-.44l-.11-.22-.65-.21v-.12l-.32-.11-.11-.22h-.22l-.32-.43-.76-.65v-.22l-.22-.11v-.21l-.21-.15-.11-.43h-.11l-.11-.44h-.11v-.32h-.1v-.22h-.11v-.32h-.11v-.22h-.11l-.11-1.19c-.58-1.94-.09-5.57.44-7.15v-.54h.1l.22-1.3h.11l.11-.76h.11v-.33h.1v-.28h.11v-.33h.11v-.43h.11v-.22h.16l.11-.65h.1v-.21h.11l.11-.65h.11l.11-.55h.11l.1-.43h.11v-.32l.22-.11v-.33h.11l.11-.43h.1v-.33h.11l.22-.65h.11v-.21h.05v-.22h.1v-.22h.11V52h.11v-.22h.11v-.22l.22-.21v-.22l.21-.11v-.32l.22-.11v-.32l.22-.11.21-.65.22-.11v-.33L117 49l.1-.44.22-.11.11-.32h.11v-.33h.11l.1-.32.22-.11.11-.43.22-.11.1-.33h.11l.11-.43.33-.22.21-.65.44-.32.1-.43.33-.22V44l.21-.11.11-.32h.11v-.22l.33-.21v-.24l.32-.22v-.21l.33-.22V42l.32-.21v-.19l.22-.11v-.11l.21-.11v-.21h.11a1.1 1.1 0 0 0 .33-.54h.21v-.22h.16a2 2 0 0 1 .43-.76l.22-.11v-.21l1.19-1.09v-.21l.22-.11.76-.87h.21c.12-.43.45-.52.65-.87h.22v-.21a1.59 1.59 0 0 0 .87-.76h.23v-.22h.22l.54-.65.33-.11v-.21a.88.88 0 0 0 .43-.22v-.11h.22l.11-.21h.1l.11-.22h.22l.11-.22h.21l.33-.43.32-.11.11-.22h.33l.11-.21a1.87 1.87 0 0 1 .75-.44v-.21a1.48 1.48 0 0 0 .65-.33v-.11l.44-.1.11-.22h.32l.11-.22a2 2 0 0 1 1-.32v-.22l.33-.11v-.11h.22v-.1l.75-.11.11-.22 1.41.22.11 1h.11l-.11.33h.11a2.72 2.72 0 0 1-.11 1.08h.11v.11h-.11v1.3H138v1h-.11v1.2h-.11v.43h-.1v1.08h-.11l-.11 1.74h-.11c0 .75-.07 1.51-.11 2.27h-.11l.11.22h-.11v1.08H137v1.08h-.11l.11.33h-.11v1.73h-.11l.11.33a32.24 32.24 0 0 0-.11 4.11l.11 2.49h.11v1.03h.1v.86c.17.56.27 1.32.44 1.85l.21 1.73h.11V58h.14v.54h.11l.11 1h.11v.44h.1v.43h.11v.43h.11v.44h.11v.54c0 .15.08 0 .11.11h-.11c-.03.07.15.2.08.47zm10.83-24v1h-.11v.11h.11v.11h-.11v.65h-.11v.65h-.1v.76h-.11l.11.22h-.11v.32h-.11v.65H149v.43h-.11v.44h-.11l-.1 1h-.11v.22h-.11v.43h-.11v.11h.11v.11h-.11v.32h-.11v.33h-.11v.43l-.21.11v.54h-.11l-.11.44h-.11v.43l-.21.11v.21h-.11l-.11.65-.22.11v.33h-.11a.75.75 0 0 0-.21.54c-.32.08-.36.11-.44.43h-.43v-.11h-.32v-.1h.1v-.11h-.1v-.44h-.11v-.43h-.11v-.43h-.11V46.8h-.1v-.11h.11a17.16 17.16 0 0 1 0-2.49h.11v-1.63h.11c0-.54.07-1.08.11-1.62h.1v-.76h.11v-.32h.11l-.11-.33h.11V39h.11v-.43h.13v-.44h.11l.1-1h.11v-.33h.11l-.11-.21h.11v-.44h.11V36h.11v-.33h.11a6.18 6.18 0 0 0 .32-1.3h.22a4.35 4.35 0 0 1 1-2.06c.3-.3.65-.16 1.09-.11-.08.26-.13.22 0 .55h.1l-.1.1c0 .16.05 0 .1.11v.33h.11v.32h.11v.76h.11v1.08a13.22 13.22 0 0 1-.15 2.9zm246.65-4.6h-.11v-.22h-.11l-.11-.21h-.32v-.11a2.84 2.84 0 0 0-1.63.65l-.21.32h-.22l-.22.33h-.21l-.44.54h-.21l-.44.54h-.21l-.55.65h-.21l-.44.54h-.21l-.44.54h-.21l-.44.55h-.21l-.54.65h-.22l-.54.65h-.22l-.43.54H387l-.43.54h-.22l-.54.65h-.22l-.11.22h-.1l-.22.32H385l-.54.65h-.22l-.1.22H384l-.22.32h-.22l-.54.65h-.21l-.11.22h-.11l-.22.32h-.21l-.65.76h-.22l-.33.44h-.21l-.44.54h-.21l-.54.65h-.22l-.54.65h-.22l-.43.54h-.22l-.65.76h-.22l-.43.54h-.22l-.54.65h-.21c-.22.25-.44.5-.65.76h-.22l-.54.65H374l-.65.75h-.21l-.22.33h-.11l-.11.22h-.21l-.65.75h-.22l-.43.55H371v.1l-.33.22-.1.22h-.22l-.43.54h-.22l-.43.54H369l-.54.65h-.22l-.32.43h-.22l-.22.33h-.21l-.44.54h-.21l-.33.43h-.22l-.21.33h-.22l-.32.43h-.22l-.33.44h-.21l-.22.32h-.22l-.21.33h-.22l-.22.32h-.21l-.22.33h-.22l-.21.32h-.22l-.22.33-.32.1-.11.22h-.22l-.1.22h-.22l-.22.32h-.21l-.11.22h-.22l-.22.32h-.21l-.11.22h-.22l-.21.33h-.22l-.11.21H359l-.1.22h-.22v.11l-.33.11-.1.21H358l-.22.33h-.21l-.11.21-.33.11v.11h-.21l-.11.22-.33.11v.1l-.43.11-.22.33-.43.11v.1l-.33.11-.1.22h-.22l-.11.22-.32.1V66h-.22l-.11.22-.43.11-.11.21-.33.11v.11l-.43.11-.11.22h-.21l-.11.21-.44.11-.1.22h-.22l-.11.21-.43.11-.11.22h-.22v.11h-.21l-.11.21-.33.11v.11l-.65.22-.11.21H349v.11h-.22l-.11.22-.43.11-.11.21-.65.22-.11.22h-.21v.11h-.22l-.11.21-.65.22-.11.22h-.21l-.22.21h-.22v.11h-.21l-.11.22h-.22l-.22.21h-.21l-.11.22h-.22l-.21.22h-.22v.11h-.22v.1h-.21l-.11.22-.44.11v.11h-.21v.11h-.22V73h-.22v.11h-.21v.11h-.22v.11l-.43.11v.11h-.2v.1h-.22v.11h-.21v.11h-.22V74h-.22v.11l-.43.11v.1l-.43.11v.11H339v.11h-.32v.11h-.22v.11l-.43.1v.11h-.33v.11l-.43.11v.11H337v.11h-.21v.1h-.33v.11h-.22v.11h-.32v.11h-.22v.11l-.65.11v.1l-.65.11v.11h-.21v.11h-.33v.11h-.43v.11h-.33v.1h-.32V77l-.76.11v.11l-1.3.22v.1l-1.08.11a12.05 12.05 0 0 1-3.8.33h-1.54v-.11h-.65v-.11h-.54v-.11h-.44v-.11h-.32v-.1H322v-.11h-.32v-.11l-.43-.11V77l-1-.32-.11-.22-.43-.11-.11-.21h-.22l-.1-.22h-.22l-.22-.33h-.21l-.11-.21h-.22l-.11-.22a2.88 2.88 0 0 0-1-.76v-.21H317V74h-.22a1.16 1.16 0 0 0-.32-.54h-.11l-.11-.33-.21-.11v-.22l-.22-.11v-.22l-.22-.11-.11-.43h-.1l-.22-.65h-.11V71H315v-.33h-.11v-.32h-.1V70h-.11l-.11-1.41h-.11a6.72 6.72 0 0 1 .11-2.27l.11-1.41h.11v-.65h.1v-.43h.11v-.44h.11v-.32h.11v-.44h.11v-.32h.11V62h.1v-.32h.11l.11-.65h.11v-.22h.13l.21-1h.11v-.22h.11v-.32h.11V59h.11v-.33h.11v-.17h.1v-.33h.11l.11-.43h.11v-.33h.11v-.21h.11v-.33h.1v-.21h.11v-.33h.11l.11-.54h.11v-.22h.05v-.32h.1l.11-.44h.11l.11-.65h.11V54h.11v-.33h.1v-.21h.11v-.33h.14v-.22h.11l.11-.65h.11V52h.1v-.33h.11v-.32h.11V51h.11v-.3h.11v-.33h.13v-.32h.1v-.33h.11l.22-1.08h.11v-.22h.11c.14-.61.28-1.22.43-1.84h.11l.11-.86h.1l.33-1.52h.11l.32-1.52h.11v-.32h.11V42h.11v-.32h.1v-.33h.11v-.32h.11v-.33h.11v-.32h.08v-.33h.11v-.32h.1v-.22h.11l.11-.65h.11v-.22h.11v-.32h.11l.1-.43h.14v-.19h.11v-.33h.11l.11-.43h.11v-.32h.1l.11-.44h.11V36h.11v-.33h.13l.21-.65h.11v-.22h.11v-.21h.11v-.22h.11v-.22l.21-.21v-.22l.22-.11.11-.54.22-.11.21-.65.22-.11v-.32h.11v-.22h.05v-.21h.1v-.25h.11V31h.11v-.21h.11v-.22h.11v-.22h.11v-.21l.21-.22v-.22l.22-.11v-.32h.11V29l.21-.11v-.29l.22-.11.11-.54h.11v-.22h.16v-.21h.1v-.22h.11v-.22h.11l.22-.65h.11l.32-1.08.22-.11v-.32h.11v-.22h.1l.33-1h.11v-.3h.11l.21-.65h.11v-.22h.11v-.32h.11V22l.21-.11v-.21l.22-.22v-.22h.08V21h.11v-.2h.11v-.22h.1l.22-.65h.11l.11-.65h.11v-.21h.1l.22-.65h.11v-.33h.11v-.54a2.33 2.33 0 0 0-1.63-3v-.11l-1.73.11v.1h-.54v.11l-.44.11-.21.33h-.22l-.11.21h-.21l-.33.44-.32.1-.22.33h-.11v.22l-.22.1v.11l-.21.11V17h-.11v.21l-.22.11v.22l-.21.11v.21h-.11v.33l-.22.11v.21l-.22.11-.1.44h-.11l-.11.43h-.11v.32h-.11v.33h-.11v.32h-.1v.33H325l-.11.43h-.11l-.11.65h-.11l-.1.44h-.11l-.11.54h-.11l-.11.65h-.11v.32h-.1v.22h-.11v.32h-.11v.33h-.11l-.22.65h-.1v.22H323v.21h-.11v.33h-.11l-.11.43h-.11l-.1.43-.22.11v.33l-.22.11-.1.54h-.11v.21l-.22.11v.22h-.11v.32l-.21.11-.22.65-.22.11v.33l-.21.1-.11.44-.22.11-.22.65-.21.1-.11.44-.22.11v.32l-.21.11-.11.43-.21.08-.11.33h-.11l-.1.43-.22.11-.11.43-.22.11v.22H318v.21l-.22.11-.11.33h-.11l-.11.43-.21.11-.11.32H317l-.11.44-.21.1-.11.33h-.11l-.11.43-.22.11v.22l-.21.11v.21l-.22.11-.11.43-.32.22-.11.43-.22.11v.22l-.21.11V40l-.22.11-.11.44-.32.21-.11.44-.22.1v.22l-.32.22-.11.43-.22.11v.22l-.22.1-.1.33h-.11v.22l-.22.1v.22l-.22.11v.22l-.21.1v.22H312l-.11.33-.22.1v.22l-.32.22-.11.43-.22.11v.22l-.21.1V46l-.22.11v.22h-.11l-.11.32-.21.11V47l-.33.21v.22l-.21.11v.21l-.22.11v.22h-.11l-.11.32-.21.11v.22l-.33.22v.21l-.22.11-.1.43-.33.22v.22l-.22.11-.1.32h-.11v.22l-.33.21v.22l-.21.11v.21l-.22.11v.22h-.11l-.11.32-.21.11v.22l-.33.22V53l-.22.11v.22l-.32.21-.11.33-.22.11v.21l-.21.11-.11.33h-.11v.21l-.32.22v.22l-.22.11v.21l-.33.22-.1.32-.22.11v.22l-.22.11-.11.32h-.1v.22l-.33.22v.21l-.22.11v.22l-.43.32v.22l-.22.11v.21l-.21.11-.11.33-.33.21v.22l-.32.22V60l-.33.22v.22l-.32.21v.22l-.33.22v.21l-.32.22v.22l-.43.32-.11.33-.22.11v.21l-.54.44v.21l-.33.22v.22l-.54.43v.22l-.43.32V65l-.54.43v.22l-.54.43v.22l-.65.54v.22c-.26.21-.51.43-.76.65l-.11.32-.87.76V69l-1 .86v.22l-2.06 2a18.74 18.74 0 0 1-2.28 2.17l-.65.75h-.21l-.44.55h-.21l-.44.54a18.49 18.49 0 0 1-5.52 3 5.51 5.51 0 0 1-2.6-.32l-.11-.22h-.22v-.11a.88.88 0 0 0-.43-.22V78h-.22a1.49 1.49 0 0 0-.43-.65h-.11l-.11-.44-.21-.1v-.22h-.11v-.33h-.11l-.22-.65h-.1v-.43h-.11v-.32h-.11v-.44h-.11v-.54h-.11v-.54h-.11v-.76h-.1V71a7.19 7.19 0 0 1-.11-2.39h.11l-.11-.21h.11v-1.78h.1v-1.19h.11v-1h.11v-.73h.11v-.87c.28-.92.37-2.13.65-3 .07-.58.14-1.16.22-1.74.47-1.47.7-3.22 1.19-4.65l.21-1.41h.11v-.33h.05v-.43h.11v-.43h.11v-.44h.11l.1-.86c.57-1.57 1-3.44 1.52-5l.11-.86h.11l.21-1.09h.11v-.32h.11v-.33h.11v-.34h.11v-.43h.18V41h.1v-.43h.11v-.33h.11v-.32h.11v-.33h.11l.11-.65h.1v-.22h.11l.11-.65h.11v-.37h.11v-.33h.11v-.32h.1v-.22h.11v-.32h.11v-.22h.11l.11-.65h.11v-.22h.1v-.32h.11v-.22h.11v-.32h.11l.11-.44h.11v-.32h.1l.11-.43h.11V33h.08v-.22h.11l.11-.43h.1v-.32h.11v-.22h.11v-.22h.11l.22-.65h.1v-.32h.11l.22-.65h.11v-.22h.11v-.22h.1v-.21h.11v-.22h.11v-.22h.16v-.21h.11v-.22h.11v-.22l.21-.21.11-.44.22-.1.21-.65.22-.11.11-.44.22-.1.1-.33h.11l.11-.43h.11l.11-.33.21-.11v-.21l.44-.33.11-.32.21-.11v-.22l1.19-1.08.33-.43.22-.11.1-.33h.13l.22-.32h.21l.65-.87.33-.11.54-.65.22-.11v-.21l.21-.11v-.22l.33-.21v-.22l.32-.22.11-.43.22-.11.11-.54h.11l.1-.76c.09-.19.36-.4.22-.87h-.11v-.43h-.11c0-.21.28-.47.11-.76h-.11c-.12-.42 0-.14-.32-.32v-.07h-.22v-.11H294l-.11-.22h-.22l-.32-.43-.55-.11a1.66 1.66 0 0 0-1.19-.21v.1h-.21v.11h-.4v.11h-.32v.11l-.65.22V14h-.22v.11l-.43.11-.11.22h-.22l-.65.76-.32.21v.22l-.44.32v.22l-.21.22v.21h-.11v.22l-.22.11v.22l-.22.1v.22h-.1v.22h-.11l-.11.65h-.11v.21h-.11l-.21.65h-.11c-.07.47-.15.94-.22 1.41h-.11v.22h-.11V21h-.1v.21h-.11v.22h-.11v.22h-.11v.21h-.11v.22H285v.22h-.1v.32l-.22.11v.32l-.22.11v.33h-.11l-.1.43h-.11v.22H284l-.22.65h-.11v.32h-.1v.22h-.11l-.22.65h-.11v.32H283v.22h-.1v.33h-.11l-.11.54h-.11l-.11.43h-.11l-.21 1h-.11l-.11.43h-.11v.43h-.11v.22h-.1l-.11.65h-.11v.22h-.11v.32h-.11l-.11.76H281v.22h-.11l-.22 1h-.11v.33h-.11v.32h-.1V34h-.11v.32h-.11v.33H280V35h-.11l-.11.65h-.1v.43h-.11v.33h-.11v.32h-.11c-.07.36-.14.73-.22 1.09H279v.43h-.11l-.33 1.63h-.11v.54h-.1l-.11.86h-.11v.33H278l-.18 1.39c-.67 2-1 4.3-1.62 6.28l-.11 1.08H276l-.11 1h-.1v.43h-.11l-.11 1h-.11v.54h-.11v.43h-.11v.54h-.1v.54H275v.55h-.11l-.11 1h-.11V57c-.33 1.08-.42 2.47-.76 3.58-.14 1.26-.28 2.52-.43 3.79h-.11v.86h-.11v1.2h-.1v1.3h-.11v2.7a15.62 15.62 0 0 0 .43 5.1l.11 1h.11v.33h.11v.32h.1v.33h.09v.32h.11V78h.11v.32h.11l.11.44h.1l.11.43.22.11v.21l.22.11v.22l.75.65.11.32h.22l.43.55.44.1.1.22h.33v.11h.22v.11a8.89 8.89 0 0 0 3.57.11v-.11h.43v-.11h.33v-.11h.32v-.11h.33v-.11l.65-.1 2.92-1.63.11-.22h.22l.11-.21h.21l.11-.22h.22l.11-.22.32-.1.22-.33h.22l.21-.32h.22l.22-.33h.26l.44-.54h.21l.44-.54h.21l.54-.65h.16l.76-.87h.24l1.62-1.73a20.85 20.85 0 0 0 2.49-2.39l1.3-1.19v-.21l1.09-1 .54-.65.32-.22.11-.32 1.08-1v-.17l1-.87v-.22l.65-.54v-.21l.65-.55v-.21l.54-.44v-.21l.65-.54v-.22l.43-.33v-.21l.55-.44v-.21l.43-.33v-.21l.22-.11.1-.33.55-.43v-.22l.21-.11.11-.32.43-.33v-.21l.33-.22v-.22l.32-.21v-.22l.33-.22v-.21l.32-.22v-.22l.33-.21v-.22l.32-.22v-.21l.33-.22v-.22l.32-.21V55l.33-.22v-.18l.22-.11v-.22l.32-.21v-.22l.22-.11v-.22l.32-.21v-.22l.33-.22v-.21l.32-.22v-.22l.33-.21v-.22l.21-.11.11-.32h.11v-.22l.33-.22v-.21l.32-.22v-.21l.33-.22v-.22l.43-.32v-.22l.22-.11a1.47 1.47 0 0 0 .43-.76c.26-.07.2 0 .32-.21a1 1 0 0 1 .44.11 4.8 4.8 0 0 1-.33 1.84v.54h-.11v.43h-.1v.43h-.11v.33h-.11v.43h-.11l-.11.87h-.11v.43h-.1V54H314l-.33 1.51h-.11l-.1.76h-.11v.44h-.11V57h-.11c-.07.36-.14.72-.22 1.08h-.1v.44h-.11l-.11.86h-.11c-.07.44-.14.87-.22 1.3h-.1v.55h-.11v.43H312v.54h-.11v.54h-.11v.65h-.11v.54h-.1v.65h-.11v1.09h-.11v2.27a12.3 12.3 0 0 0 1.08 5v.32h.11v.22h.11v.21l.22.22v.22l.21.11.11.43.22.11V75l.32.22v.22l.33.21v.22l1.19 1.08.54.65h.21l.32.44h.22l.11.21h.21l.22.33.43.11.11.21h.22l.22.22h.21v.11h.22l.11.22h.32v.1l.44.11v.11l2.81.87h.54v.11l1.95.1v.11l.33-.11v.11h1.51v-.11h1.5v-.1h.87v-.15h.86v-.11h.65v-.11l1.2-.11v-.11h.42v-.1h.43V80h.57l4.66-1.41v-.11h.22v-.11l1-.21V78h.12v-.11h.33v-.11h.21v-.11h.33v-.11l.43-.1v-.11h.33v-.11l.43-.11V77h.32v-.11h.22v-.1h.22v-.09l.65-.22v-.11h.32v-.11l.44-.1v-.11l.65-.22v-.11h.21v-.11h.22v-.1h.22v-.11h.21v-.11l.44-.11v-.11l.43-.11v-.1h.22v-.11h.21v-.11h.22v-.11h.22v-.11h.21l.22-.21h.22l.1-.22h.22l.22-.22h.21v-.11h.22v-.1h.22l.11-.22h.21v-.11l.44-.11.1-.21.65-.22.11-.22.65-.21.11-.22h.3v-.11l.43-.11.11-.21.43-.11.11-.22.43-.11.11-.21.44-.11.1-.22.44-.11.11-.21.43-.11.11-.22.43-.11.11-.21h.21v-.11h.21l.11-.22h.22l.11-.22h.21l.11-.21h.22l.11-.22.43-.11.11-.21h.16v-.11h.22v-.11l.33-.11.1-.22h.22l.11-.21.32-.11v-.11h.22l.11-.22h.22L359 67l.44-.11.21-.33h.22l.11-.21h.22l.1-.22h.22l.11-.22h.22v-.1l.32-.11.11-.22h.22l.21-.32h.22l.11-.22.32-.11v-.11h.22l.22-.32h.2l.11-.22h.22l.21-.32h.22l.11-.22h.22l.21-.33h.22l.11-.21h.21l.33-.44h.22l.21-.32h.22L366 62h.21l.22-.32h.22l.21-.33h.22l.32-.43h.22l.33-.43.32-.11.11-.22h.22l.43-.54.32-.11.11-.21h.22l.11-.22.32-.22v-.11h.22l.43-.54h.24l.32-.43h.22l.54-.65h.22l.65-.76h.22l.43-.54h.21l.65-.76h.22l.76-.87h.22l.86-1h.22l.87-1h.21l1.08-1.2h.21l.44-.54c.29-.29.68-.47 1-.76l1-1.08h.21l1.3-1.41.33-.11.76-.86h.21l.87-1h.22l.65-.76h.21l.87-1h.22l.65-.76h.21l.65-.76h.22v-.11l.32-.21.22-.33h.22l.65-.76h.21l.65-.75h.22l.54-.65.33-.11.54-.65h.22l.54-.65h.21l.44-.54.32-.11.76-.87.76-.65v-.22l.22-.1.1-1.2c-.18-.05-.16-.12-.26-.25z" style="fill-rule:evenodd" data-name="レイヤー 1"/></g></svg>