<?xml version="1.0" encoding="utf-8"?>
<!-- Generator: Adobe Illustrator 25.3.1, SVG Export Plug-In . SVG Version: 6.00 Build 0)  -->
<svg version="1.1" id="レイヤー_1" xmlns="http://www.w3.org/2000/svg" xmlns:xlink="http://www.w3.org/1999/xlink" x="0px"
	 y="0px" viewBox="0 0 24 19.2" style="enable-background:new 0 0 24 19.2;" xml:space="preserve">
<style type="text/css">
	.st0{fill:#320050;}
</style>
<g>
	<path class="st0" d="M24,1.2V18c0,0.7-0.5,1.2-1.2,1.2h0H1.2C0.5,19.2,0,18.7,0,18c0,0,0,0,0,0V1.2C0,0.5,0.5,0,1.2,0c0,0,0,0,0,0
		h1.2L6,3.6h3L5.4,0H9l3.6,3.6h3L12,0h3.6l3.6,3.6h3L18.6,0h4.2C23.5,0,24,0.5,24,1.2C24,1.2,24,1.2,24,1.2z"/>
</g>
</svg>
