<?xml version="1.0" encoding="utf-8"?>
<!-- Generator: Adobe Illustrator 25.3.1, SVG Export Plug-In . SVG Version: 6.00 Build 0)  -->
<svg version="1.1" id="レイヤー_1" xmlns="http://www.w3.org/2000/svg" xmlns:xlink="http://www.w3.org/1999/xlink" x="0px"
	 y="0px" viewBox="0 0 23.6 15.7" style="enable-background:new 0 0 23.6 15.7;" xml:space="preserve">
<style type="text/css">
	.st0{fill:#320050;}
</style>
<g>
	<path class="st0" d="M0.8,1.7L10.6,7c0.4,0.2,0.8,0.3,1.2,0.3c0.4,0,0.9-0.1,1.2-0.3c0.3-0.2,9.2-4.9,9.8-5.3S24,0,22.9,0H0.7
		C-0.5,0,0.1,1.3,0.8,1.7z M23.1,4.6L13,9.9c-0.4,0.2-0.8,0.3-1.2,0.3c-0.4,0-0.8-0.1-1.2-0.3L0.5,4.6C0,4.3,0,4.6,0,4.9v9.5
		c0.1,0.7,0.6,1.2,1.3,1.3h21c0.7-0.1,1.2-0.6,1.3-1.3V4.9C23.6,4.6,23.6,4.3,23.1,4.6z"/>
</g>
</svg>
