<?xml version="1.0" encoding="utf-8"?>
<!-- Generator: Adobe Illustrator 25.4.1, SVG Export Plug-In . SVG Version: 6.00 Build 0)  -->
<svg version="1.1" id="レイヤー_1" xmlns="http://www.w3.org/2000/svg" xmlns:xlink="http://www.w3.org/1999/xlink" x="0px"
	 y="0px" viewBox="0 0 396.5 157.5" style="enable-background:new 0 0 396.5 157.5;" xml:space="preserve">
<style type="text/css">
	.st0{fill-rule:evenodd;clip-rule:evenodd;fill:#FFFFFF;}
</style>
<g id="レイヤー_2_00000042698812773361404160000009258486923530689979_">
	<g id="レイヤー_1-2">
		<path class="st0" d="M264.4,33c-0.1-0.4-0.2-0.4-0.3-0.8h-0.2c-0.1-0.3-0.3-0.4-0.4-0.6h-0.1v-0.3h-0.1l-0.5-0.6h-0.2l-0.4-0.5
			h-0.2c-0.2-0.3-0.4-0.5-0.6-0.8h-0.2l-0.3-0.4h-0.2l-0.6-0.8h-0.2l-0.3-0.4H259l-0.5-0.6h-0.2l-0.4-0.5h-0.2l-0.4-0.5h-0.2
			l-0.5-0.6h-0.2l-0.3-0.4h-0.2l-0.1-0.2h-0.1l-0.1-0.2h-0.2l-0.2-0.3h-0.2l-0.1-0.2h-0.2l-0.3-0.4h-0.2l-0.1-0.2h-0.2l-0.2-0.3
			l-0.4-0.1l-0.1-0.2l-0.3-0.1v-0.1l-0.6-0.2l-0.1-0.2l-0.4-0.1v-0.1H251v-0.1l-0.6-0.2v-0.1H250v-0.1h-0.2v-0.1h-0.2V21h-0.2v-0.1
			H249v-0.1h-0.3v-0.1h-0.3v-0.1h-0.5c-2.5-0.7-5.2-0.7-7.7,0l-0.9,0.1v0.1H239v0.1h-0.4V21h-0.3v0.1H238v0.1h-0.3v0.1h-0.2v0.1
			h-0.3v0.1h-0.2v0.1h-0.3v0.1l-0.6,0.2v0.1h-0.2v0.1h-0.2v0.1h-0.2v0.1H235v0.1h-0.2l-0.2,0.2h-0.2l-0.1,0.2H234v0.1l-0.4,0.1
			l-0.1,0.2l-0.4,0.1l-0.1,0.2h-0.2v0.1l-0.3,0.1l-0.1,0.2h-0.2l-0.2,0.3h-0.2l-0.2,0.3h-0.2l-0.2,0.3h-0.2l-0.3,0.4h-0.2l-0.4,0.5
			l-0.3,0.1l-0.8,0.9l-1.7,1.6v0.2l-0.8,0.6v0.2l-0.2,0.1l-0.2,0.3h-0.1v0.2c-0.2,0.3-0.4,0.2-0.5,0.6H225c-0.1,0.2-0.2,0.4-0.3,0.5
			h-0.1v0.2l-0.6,0.4l-0.1,0.3l-0.2,0.1v0.2l-0.6,0.5v0.2l-0.5,0.4v0.2l-0.4,0.3v0.2l-0.4,0.3v0.2l-0.3,0.2v0.2l-0.4,0.3v0.2
			l-0.2,0.1v0.1l-0.2,0.1v0.2l-0.2,0.1v0.2l-0.4,0.3v0.2l-0.3,0.2l-0.1,0.3l-0.2,0.1v0.2l-0.2,0.1l-0.1,0.3h-0.1v0.2l-0.3,0.2v0.2
			l-0.2,0.1l-0.1,0.3H218v0.2l-0.3,0.2v0.2l-0.2,0.1l-0.1,0.4l-0.3,0.2l-0.1,0.4l-0.2,0.1v0.2l-0.2,0.1v0.2h-0.1v0.2l-0.3,0.2v0.2
			h-0.1v0.2l-0.2,0.1l-0.1,0.4l-0.2,0.1l-0.1,0.4l-0.2,0.1l-0.1,0.4l-0.2,0.1l-0.1,0.4l-0.2,0.1l-0.1,0.4l-0.2,0.1l-0.2,0.7
			l-0.2,0.1v0.2l-0.2,0.2v0.2l-0.2,0.1v0.2H213v0.2l-0.2,0.1l-0.2,0.7l-0.2,0.1l-0.1,0.4l-0.2,0.1l-0.1,0.4l-0.2,0.1l-0.2,0.6
			l-0.2,0.1l-0.1,0.3H211v0.2l-0.2,0.2V52h-0.1v0.2h-0.1l-0.1,0.3l-0.2,0.1l-0.1,0.4l-0.2,0.1l-0.1,0.4l-0.2,0.1l-0.1,0.4l-0.2,0.1
			v0.2l-0.2,0.1v0.2l-0.2,0.1l-0.1,0.4l-0.2,0.1v0.2l-0.2,0.1V56l-0.2,0.1v0.2l-0.2,0.1v0.2h-0.1l-0.1,0.3l-0.2,0.1v0.2l-0.3,0.2
			v0.2l-0.2,0.1v0.2l-0.4,0.3v0.2l-0.2,0.1v0.2l-0.2,0.1v0.1l-0.2,0.1v0.2c-0.2,0.3-0.4,0.2-0.5,0.7h-0.2v0.2
			c-0.3,0.2-0.6,0.3-0.9,0.4v-0.7c0-0.2-0.1,0-0.1-0.1h0.1v-0.8h0.1v-0.8h0.1v-0.4h0.1l0.2-1.1l0.5-2v-0.5h0.1v-0.3h0.1l0.2-1.4
			c0.6-1.6,0.9-3.6,1.4-5.2l0.2-1.4h0.1v-0.3h0.1v-0.4h0.1V45h0.1v-0.4h0.1v-0.4h0.2l0.1-0.9h0.1c0.1-0.7,0.3-1.4,0.4-2h0.1l0.1-0.8
			h0.1l0.1-0.8h0.1c0.1-0.4,0.1-0.7,0.2-1.1h0.1v-0.3h0.1V38h0.1v-0.3h0.1l0.2-1h0.1v-0.3h0.1l0.1-0.7h0.1l0.2-0.7h0.1v-0.2h0.1
			v-0.3l0.2-0.1v-0.2h0.1V34h0.1v-0.2h0.1v-0.2l0.2-0.2v-0.2l0.2-0.1v-0.2l0.2-0.2v-0.2h0.1v-0.2l0.2-0.1l0.1-0.4l0.2-0.1l0.2-0.6
			l0.2-0.1l0.2-0.6l0.2-0.1l0.2-0.6l0.2-0.1V29l0.2-0.2v-0.2l0.2-0.1v-0.2l0.2-0.2v-0.2h0.1v-0.2l0.2-0.1v-0.2h0.1V27h0.1v-0.2h0.1
			v-0.2l0.2-0.1l0.1-0.5l0.2-0.1l0.1-0.4h0.1l0.2-0.6h0.1v-0.3h0.1v-0.2h0.1l0.2-1h0.1V23h0.1v-0.3h0.1v-0.2h0.1V22h0.1v-0.5h0.1
			l-0.2-2.5l-1-1.3h-0.2l-0.1-0.2h-0.2v-0.1h-0.2v-0.1h-0.3v-0.1h-0.2V17h-0.4v-0.1h-0.9c-0.3-0.1-0.7-0.2-1-0.1v0.1h-0.2V17h-0.3
			v0.1H212v0.1h-0.2l-0.1,0.2l-0.4,0.1v0.1c-0.2,0.2-0.4,0.3-0.6,0.4c0,0.2-0.1,0.3-0.2,0.4h-0.1l-0.1,0.3L210,19v0.2h-0.1v0.2
			l-0.2,0.1l-0.2,0.6l-0.2,0.1v0.3h-0.1v0.2H209l-0.1,0.4h-0.1v0.3h-0.1v0.2h-0.1V22l-0.2,0.1v0.3h-0.1l-0.1,0.4H208v0.3h0l-0.1,0.4
			h-0.1V24h-0.1v0.2h-0.1v0.3h-0.1v0.2h-0.1l-0.1,0.5h-0.1v0.3H207l-0.1,0.6h-0.1v0.2h-0.1v0.3h-0.1V27h-0.1l-0.1,0.6h-0.1v0.2h-0.1
			v0.3H206v0.2h-0.1l-0.1,0.6h-0.1v0.2h-0.1l-0.1,0.6h-0.1l-0.1,0.4h-0.1v0.3H205v0.2h-0.1v0.3h-0.1l-0.2,0.6h-0.1v0.2h-0.1v0.2
			h-0.1v0.2h-0.1v0.2l-0.2,0.2v0.2h-0.1l-0.1,0.3l-0.2,0.1l-0.1,0.4l-0.2,0.1v0.2l-0.2,0.1v0.2l-0.2,0.1V35h-0.1l-0.1,0.3l-0.2,0.1
			v0.2l-0.3,0.2v0.2l-0.2,0.1v0.2l-0.4,0.3l-0.1,0.3l-0.2,0.1v0.2l-0.2,0.1v0.1l-0.2,0.1v0.2l-0.6,0.4v0.2l-0.3,0.2V39l-0.3,0.2v0.1
			l-0.2,0.1v0.2H199c-0.2,0.2-0.4,0.4-0.5,0.8h-0.2c-0.1,0.5-0.5,0.5-0.6,1h-0.2c-0.1,0.3-0.4,0.6-0.6,0.9l-0.2,0.1v0.2l-1.5,1.5
			v0.2l-0.2,0.1l-0.9,1h-0.2v0.2l-1,0.9l-0.1,0.2l-0.3,0.1V47h-0.1l-0.2,0.3h-0.2l-1.3,1.4h-0.2c-0.2,0.2-0.4,0.5-0.6,0.8h-0.2
			l-0.9,1c-0.3,0.2-0.4,0.2-0.6,0.5h-0.2v0.2c-0.6,0.2-0.7,0.7-1.3,0.9v0.2c-0.2,0.1-0.4,0.2-0.6,0.3v0.1h-0.2l-0.2,0.3h-0.2
			l-0.3,0.4l-0.3,0.1l-0.1,0.2h-0.2l-0.3,0.4h-0.2l-0.3,0.4H183l-0.1,0.2h-0.2l-0.3,0.4h-0.2l-0.1,0.2h-0.2l-0.2,0.3h-0.2l-0.1,0.2
			H181l-0.2,0.3l-0.3,0.1l-0.1,0.2h-0.2l-0.1,0.2l-0.3,0.1v0.1h-0.2l-0.2,0.3h-0.2l-0.1,0.2l-0.3,0.1V58h-0.2l-0.1,0.2h-0.2
			l-0.1,0.2h-0.2l-0.1,0.2l-0.4,0.1l-0.1,0.2l-0.3,0.1v0.1l-0.4,0.1l-0.1,0.2l-0.3,0.1v0.1l-0.6,0.2l-0.1,0.2l-0.4,0.1l-0.1,0.2
			l-0.4,0.1l-0.1,0.2h-0.2l-0.2,0.2h-0.2l-0.1,0.2h-0.2l-0.2,0.2h-0.2v0.1h-0.2l-0.1,0.2H172v0.1h-0.2V62h-0.2l-0.1,0.2h-0.2v0.1
			h-0.2v0.1h-0.3v0.1l-0.6,0.2v0.1h-0.2V63h-0.3v0.1l-0.4,0.1v0.1h-0.3l-0.1,0.2h-0.3v0.1h-0.2v0.1h-0.3v0.1h-0.2V64l-0.6,0v0.1
			l-0.4,0.1v0.1l-0.6,0.1v0.1h-0.3v0.1h-0.3v0.1H165v0.1h-0.4V65h-0.3v0.1h-0.4v0.1h-0.4v0.1h-0.5v0.1h-0.3v0.1l-1.2,0.1v0.1
			l-1.6,0.1c-1.1,0.2-2.2,0.2-3.4,0.1v-0.1h-0.9v-0.1h-0.5v-0.1h-0.5v-0.1h-0.2v-0.1h-0.4l-2-1l-0.1-0.2l-0.6-0.5
			c-0.2-0.3,0-0.4-0.4-0.7c-0.1-0.7,0-1.3,0.2-2h0.1v-0.2h0.1l0.1-0.5l0.2-0.1v-0.3h0.1v-0.2h0.1v-0.2l0.2-0.1v-0.2h0.1v-0.2h0.1
			v-0.3h0.1v-0.2l0.2-0.1v-0.2l0.2-0.2v-0.2h0.1v-0.2l0.2-0.1l0.1-0.4l0.2-0.2v-0.2h0.1v-0.2h0.1V56h0.1l0.1-0.4h0.1v-0.2h0.1v-0.2
			h0.1v-0.3l0.2-0.1v-0.3h0.1l0.1-0.4h0.1v-0.3l0.2-0.1v-0.3h0.1l0.1-0.4h0.1l0.1-0.5h0.1l0.2-1h0.1l0.1-0.4h0.1l0.1-0.7h0.1v-0.3
			h0.1v-0.3h0.1v-0.3h0.1v-0.4h0.1v-0.2h0.1l0.1-0.8h0.1v-0.3h0.1v-0.3h0.1l0.1-0.8h0.1l0.1-0.9h0.1l0.2-1.3h0.1v-0.5
			c0.3-0.9,0.4-2.1,0.6-2.9c0-0.5,0.1-1,0.1-1.5c0.3-0.9,0.1-1.6,0.4-2.5v-1h0.1c0.1-0.3-0.1-0.5-0.1-0.5h0.1v-1.4
			c0.2-1.2,0.2-2.5,0.1-3.7H159c0-0.1,0.2-0.3,0.1-0.5H159v-1.2h-0.1v-0.5h-0.1l0.1-0.2h-0.1c-0.1-1.1-0.2-2.2-0.3-3.2h-0.1V24h-0.1
			l-0.2-1.3h-0.1l-0.1-0.4h-0.1l-0.2-1h-0.1v-0.2h-0.1v-0.2l-0.3-0.1l-0.1-0.5l-0.2-0.1l-0.1-0.4l-0.3-0.2v-0.2l-0.5-0.4v-0.2
			l-0.9-0.8l-0.1-0.3h-0.2v-0.2l-0.2,0.1l-0.2-0.3l-0.5-0.1l-0.1-0.2h-0.2l-0.1-0.2h-0.4v-0.1l-0.4-0.1v-0.1H152v-0.1h-0.3V16h-0.3
			v-0.1H151v-0.1h-0.5v-0.1c-0.8-0.1-1.7,0-2.5,0.2c-0.4,0.1-0.6-0.1-0.8-0.1v0.1h-1.4c-0.1,0,0-0.1-0.3-0.2c0-0.4-0.3-0.8-0.6-1
			h-0.2v-0.1h-0.2v-0.1h-0.5v-0.1l-0.6-0.2V14H143c-0.2-0.1-0.3-0.4-0.5-0.5v-0.2l-2.5-0.5v-0.1h-0.2v-0.1h-0.3v-0.1l-1.6,0.1v-0.1
			l-0.2,0.1h-0.9v0.1h-0.2v0.1l-0.4,0.1l-0.1,0.2h-0.3v0.1h-0.2v0.1l-1.3,0.4l-0.2,0.3l-0.4,0.3v0.1h-0.2l-0.6,0.8h-0.2l-0.1,0.2
			l-0.4,0.1l-1.2,1.5h-0.2c-0.1,0.3-0.3,0.5-0.6,0.8h-0.1v0.2c-0.1,0.2-0.4,0.3-0.6,0.5h-0.2c-0.2,0.9-1.3,1.2-1.5,2h-0.2v0.2
			c-0.3,0.1-0.2,0-0.3,0.3h-0.2v0.2c-0.4,0.1-0.6,0.4-0.8,0.8c-0.4,0.1-0.1,0.1-0.3,0.3h-0.1v0.1h-0.2l-0.8,0.9l-0.4,0.2v0.2h-0.1
			l-0.2,0.3h-0.2l-0.1,0.3c-0.4,0.1-0.7,0.4-0.9,0.8h-0.2v0.2c-0.4,0.1-0.7,0.5-1,0.8v0.1l-0.3,0.1l-0.1,0.3h-0.2l-0.7,0.8
			c-0.3,0.2-0.4,0.2-0.6,0.5h-0.2v0.2c-0.5,0.3-1,0.6-1.3,1.1h-0.2v0.2c-0.2,0.1-0.4,0.2-0.5,0.3V30H117l-0.2,0.3h-0.2l-0.4,0.5H116
			l-0.4,0.5h-0.2l-0.3,0.4h-0.2l-0.3,0.4h-0.2l-0.3,0.4h-0.2l-0.3,0.4h-0.2l-0.3,0.4h-0.2l-0.4,0.5H112l-0.3,0.4h-0.2l-0.3,0.4
			c-0.4,0.3-0.6,0.2-0.9,0.7H110v0.2c-0.2,0-0.3,0.1-0.4,0.2v0.1l-0.3,0.1l-0.1,0.2h-0.2l-0.4,0.5l-0.3,0.1l-0.1,0.2h-0.2l-0.3,0.4
			h-0.2l-0.3,0.4h-0.2l-0.3,0.4h-0.2L106,39h-0.2l-0.3,0.4h-0.2l-0.1,0.2H105l-0.1,0.2h-0.2l-0.4,0.5H104l-0.1,0.2l-0.3,0.1
			l-0.4,0.5H103l-0.2,0.3h-0.2l-0.2,0.3h-0.2l-0.4,0.5h-0.2l-0.2,0.3H101l-0.3,0.4h-0.2l-0.3,0.4H100l-0.3,0.4h-0.2l-0.3,0.4h-0.2
			l-0.2,0.3h-0.2l-0.3,0.4h-0.2l-0.3,0.4h-0.2L97,46.3h-0.3l-0.1,0.2h-0.1l-0.1,0.2h-0.2l-0.3,0.4h-0.2l-0.4,0.5H95l-0.1,0.2h-0.1
			l-0.1,0.2c-2.9,2.1-5.5,4.5-8.4,6.6l-0.3,0.4h-0.2l-0.3,0.4h-0.2L84.8,56h-0.2l-0.4,0.5l-0.3,0.1l-0.1,0.2h-0.2l-0.4,0.5h-0.2
			l-0.3,0.4h-0.2L82,58.3h-0.2l-0.3,0.4h-0.2l-0.4,0.5h-0.2l-0.3,0.4H80l-0.3,0.4h-0.2l-0.3,0.4h-0.2L78.6,61h-0.2l-0.4,0.5h-0.2
			l-0.5,0.7H77l-0.3,0.4h-0.2L76,63.2h-0.2l-0.4,0.5h-0.2l-0.4,0.5h-0.2L74,64.9h-0.2l-0.1,0.2h-0.1l-0.2,0.3h-0.2l-0.7,0.8h-0.2
			v0.1l-0.3,0.2l-0.2,0.3h-0.2l-0.2,0.3h-0.1L71,67.4h-0.2l-0.8,0.9h-0.2L69.2,69H69l-0.5,0.7h-0.2c-0.3,0.3-0.5,0.6-0.8,0.9h-0.2
			c-0.2,0.3-0.4,0.5-0.7,0.8h-0.2v0.2c-0.3,0.1-0.6,0.4-0.9,0.7l-0.1,0.2h-0.2l-1.4,1.5h-0.2v0.2h-0.2L63,74.5l-1.2,1.1l-0.2,0.3
			h-0.2L60,77.5l-1,0.9l-0.3,0.4h-0.2l-1.6,1.7l-0.3,0.2v0.1h-0.2l-1.5,1.6h-0.2c-0.2,0.6-0.6,0.4-0.8,1c-0.5,0.1-0.4,0.3-0.7,0.6
			h-0.2l-0.2,0.3h-0.2l-0.1,0.2c-0.2,0.2-0.5,0.4-0.8,0.4v0.2l-1.1,0.7l-0.2-0.1l-0.1,0.2c-0.5-0.1-0.3-0.2-0.7-0.4
			c0-1.5,0.3-2.9,0.8-4.3l0.1-0.9h0.1l0.1-0.9h0.1l0.2-1.2h0.1v-0.3h0.1v-0.4h0.1V77h0.1v-0.3h0.1v-0.4c0.7-2,1.2-4.2,2-6.2v-0.4
			h0.1v-0.3h0.1V69h0.1v-0.4c1-2.8,1.8-5.9,2.8-8.7v-0.4h0.1v-0.3h0.1v-0.3h0.1v-0.3H57v-0.3h0.1v-0.3h0.1v-0.3h0.1l0.1-0.7h0.1
			v-0.2h0.1v-0.3h0.1l0.1-0.4H58v-0.3h0.1l0.1-0.4h0.1v-0.2l0.2-0.1l0.2-0.7l0.2-0.1l0.1-0.4l0.2-0.1l0.1-0.4h0.1l0.1-0.3l0.2-0.1
			v-0.2l0.2-0.1l0.1-0.3h0.1v-0.2l0.2-0.1l0.1-0.4l0.2-0.1v-0.2l0.2-0.1v-0.2h0.1v-0.2l0.2-0.1V50l0.2-0.1v-0.2l0.2-0.1v-0.2
			l0.2-0.1l0.1-0.4l0.2-0.1l0.1-0.3h0.1l0.1-0.4l0.2-0.1l0.1-0.3h0.1l0.1-0.4l0.2-0.1v-0.2l0.2-0.1v-0.2h0.1v-0.2l0.2-0.1l0.1-0.4
			l0.2-0.1l0.1-0.4l0.2-0.1l0.1-0.4l0.2-0.1l0.1-0.4l0.2-0.1l0.1-0.4l0.2-0.1l0.1-0.4l0.2-0.1l0.1-0.4l0.2-0.1l0.2-0.7l0.2-0.1v-0.2
			h0.1v-0.2l0.2-0.1l0.1-0.4l0.2-0.1v-0.2l0.2-0.2v-0.2h0.1v-0.2l0.2-0.1v-0.2l0.2-0.2v-0.2h0.1v-0.2l0.2-0.1l0.2-0.7l0.2-0.1v-0.2
			l0.2-0.2v-0.2h0.1v-0.2l0.2-0.1v-0.2l0.2-0.2v-0.2h0.1l0.2-0.7l0.2-0.1v-0.2l0.2-0.2v-0.2h0.1v-0.2h0.1v-0.2l0.2-0.1V34h0.1v-0.3
			l0.2-0.1l0.1-0.4h0.1v-0.2h0.1v-0.2h0.1v-0.2h0.1v-0.2h0.1l0.1-0.4H72l0.1-0.4l0.2-0.1l0.3-1l0.2-0.1l0.1-0.4h0.1l0.2-0.6h0.1
			v-0.3h0.1v-0.2h0.1l0.1-0.4h0.1V28H74v-0.2h0.1v-0.2h0.1v-0.3h0.1v-0.2h0.1v-0.2h0.1l0.1-0.5h0.1l0.2-0.6h0v-0.2h0.1v-0.2h0.1V25
			h0.1v-0.3h0.1l0.1-0.4h0.1v-0.3h0.1l0.2-0.6h0.1v-0.2h0.1v-0.3h0.1l0.1-0.4h0.1V22h0.1l0.1-0.4h0.1v-0.3H77V21h0.1l0.1-0.5h0.1
			v-0.3c1-2.2,1.8-4.8,2.6-7.1v-0.5H80V12h0.1v-0.4h0.1V9.6h0.1V9.5c-0.2-0.3-0.1-0.6-0.2-1H80V8.1h-0.1l-0.1-0.4h-0.1V7.5l-0.2-0.1
			V7.2L79,6.8l-0.2-0.3l-0.7-0.2V6.2L77.5,6V5.8h-0.4V5.7c-0.4,0-0.8,0.1-1.2,0.3l-1,0.1v0.1h-0.2v0.1l-0.4,0.1l-0.1,0.2H74
			l-1.3,1.2V8l-0.4,0.3v0.2l-0.3,0.2l-0.1,0.4l-0.2,0.1v0.2l-0.2,0.1l-0.1,0.3h-0.1L71,10.5h-0.1v0.2l-0.2,0.1l-0.1,0.5l-0.2,0.1
			L70.3,12h-0.1v0.2H70l-0.1,0.4h-0.1V13h-0.1v0.2h-0.1v0.2h-0.1v0.2h-0.1V14h-0.1l-0.1,0.4h-0.1v0.3H69V15h-0.1v0.3h-0.1l-0.1,0.4
			h-0.1V16h-0.1v0.3l-0.2,0.1v0.3h-0.2v0.2H68v0.3h-0.1v0.2h-0.1l-0.1,0.4h-0.1v0.3h-0.1v0.2h-0.1v0.3h-0.1l-0.1,0.4H67v0.3h-0.1
			L66.8,20h-0.1v0.3h-0.1v0.2h-0.1l-0.1,0.6h-0.1v0.2h-0.1v0.3H66l-0.1,0.5h-0.1v0.2h-0.1v0.3h-0.1V23h-0.1l-0.1,0.6h-0.1l-0.1,0.4
			h-0.1v0.3H65v0.2h-0.1l-0.1,0.5h-0.1l-0.1,0.6h-0.1V26h-0.1v0.3h-0.2v0.2h-0.1v0.3H64v0.3h-0.1v0.2h-0.1l-0.1,0.6
			c-2.1,4.8-3.8,10.1-5.7,15.2L57.9,44h-0.1v0.3h-0.1v0.3h-0.1V45h-0.1v0.3h-0.1l-0.2,1.1H57l-0.3,1.4h-0.1l-0.3,1.4h-0.1
			c-0.1,0.5-0.2,0.9-0.3,1.4h-0.1V51h-0.1v0.3h-0.1v0.3h-0.1V52h-0.1l-0.1,0.7h-0.1L55,53.1h-0.1v0.3h-0.1l-0.1,0.4h-0.1v0.2
			l-0.2,0.1l-0.2,0.7l-0.2,0.1v0.2l-0.2,0.1l-0.1,0.4h-0.1L53.4,56l-0.2,0.1v0.2l-0.2,0.1v0.2l-0.2,0.1V57l-0.2,0.1v0.2h-0.1
			l-0.1,0.3l-0.2,0.1V58l-0.3,0.2v0.2l-0.2,0.1v0.2l-0.2,0.1l-0.1,0.3l-0.3,0.2v0.2l-0.2,0.1l-0.1,0.3l-0.3,0.2v0.2l-0.4,0.3V61
			l-0.4,0.3v0.2l-0.4,0.3v0.2l-0.5,0.4v0.2l-0.5,0.4v0.2h-0.1l-0.2,0.3l-0.2,0.1c-1.1,1.4-2.2,2.6-3.5,3.8c-0.8,0.9-1.7,1.8-2.7,2.6
			l-0.8,0.9h-0.2l-0.7,0.8h-0.2l-0.5,0.7h-0.2l-0.3,0.4H38l-0.3,0.4h-0.2l-0.3,0.4h-0.2l-0.2,0.3h-0.2l-0.2,0.3H36l-0.1,0.2h-0.2
			L35.5,75h-0.2l-0.1,0.2l-0.3,0.1v0.1h-0.2l-0.1,0.2l-0.3,0.1v0.1L33.7,76l-0.1,0.2l-0.4,0.1l-0.1,0.2h-0.2l-0.2,0.2h-0.2v0.1h-0.2
			v0.1H32l-0.1,0.2l-0.5,0.1v0.1h-0.2v0.1l-0.6,0.2v0.1h-0.3v0.1H30V78h-0.3v0.1h-0.2v0.1h-0.4v0.1h-0.3v0.1h-0.3v0.1h-0.3v0.1h-0.4
			v0.1h-0.4v0.1h-0.6c-1.7,0.4-3.6,0.2-5.2-0.5h-0.3v-0.1l-0.4-0.1V78l-0.4-0.1v-0.1l-0.3-0.1l-0.1-0.2h-0.2l-0.1-0.2h-0.2l-0.4-0.5
			h-0.2l-0.1-0.2l-0.6-0.5v-0.2l-0.5-0.4v-0.2L17,74.9v-0.2l-0.2-0.1l-0.1-0.4L16.4,74l-0.1-0.4l-0.2-0.1L16,73h-0.1l-0.2-0.7h-0.1
			V72h-0.1v-0.2h-0.1v-0.3h-0.1v-0.2h-0.1c-0.1-0.3-0.1-0.7-0.2-1h-0.1v-0.4c-1-3.4-1.4-6.9-1.1-10.4l0.2-3.4H14V55h0.1v-0.9h0.1
			v-0.8h0.1v-0.8c0.2-0.6,0.2-1.5,0.4-2.1l0.1-1.3c0.4-1.4,0.6-3.2,1.1-4.5v-0.5h0.1l0.1-0.9h0.1v-0.4h0.1v-0.4h0.1V42h0.1v-0.4h0.1
			v-0.3h0.1l0.1-0.9H17l0.2-1.1h0.1l0.2-1.1h0.1v-0.3h0.1v-0.3h0.1c0.1-0.3,0.1-0.7,0.2-1h0.1v-0.2h0.1l0.2-1h0.1l0.1-0.5h0.1v-0.2
			H19l0.1-0.7h0.1l0.1-0.4h0.1l0.1-0.7h0.1l0.1-0.4h0.1v-0.3H20l0.2-0.6h0.1v-0.2h0.1V31h0.1l0.2-0.6h0.1v-0.2H21v-0.2h0.1v-0.2h0.1
			v-0.2l0.2-0.2V29l0.2-0.1l0.2-0.6l0.2-0.1V28l0.2-0.1v-0.2h0.1l0.2-0.3c0.1,0,0.3-0.1,0.4-0.1v0.1l1,0.2v0.1l0.4,0.1v0.1l0.6,0.1
			v0.1h0.2v0.1l0.6,0.1v0.1h0.2v0.1h0.4v0.1H27v0.1h0.4v0.1h0.4V29l1.1,0.1v0.1h1c0.9,0.2,1.7,0.2,2.6,0.1v-0.1h0.9V29h0.4v-0.1h0.4
			v-0.1h0.4v-0.1h0.4v-0.1l0.5-0.1v-0.1h0.2v-0.1h0.3v-0.1l0.4-0.1V28l0.4-0.1l0.1-0.2l0.4-0.1l0.1-0.2h0.2l0.2-0.3h0.2l0.4-0.5H39
			l0.1-0.2l0.7-0.5v-0.2l0.5-0.4v-0.2l0.2-0.1v-0.2l0.4-0.3v-0.3l0.2-0.1v-0.2l0.2-0.1v-0.2l0.2-0.1v-0.3h0.1v-0.2h0.1l0.1-0.4H42
			l0.1-0.5h0.1l0.2-1.1c0.4-1.3,0.6-2.6,0.5-3.9v-1.6h-0.1l-0.1-1.3h-0.1v-0.3h-0.1v-0.3h-0.1v-0.3h-0.1v-0.3h-0.1L42,11.8h-0.1
			l-0.1-0.4l-0.2-0.1v-0.2l-0.2-0.1v-0.2h-0.1c-0.1-0.1-0.2-0.3-0.2-0.4h-0.2v-0.2h-0.2V9.9l-0.3-0.1l-0.1-0.2h-0.2l-0.1-0.2h-0.2
			V9.2h-0.2V9.1h-0.2V9l-0.5-0.1V8.8h-0.4V8.7h-0.5V8.6c-0.3-0.1-0.7,0-1,0.1h-0.9v0.1h-0.4v0.1H35V9h-0.4v0.1l-0.4,0.1v0.1
			l-0.5,0.1l-0.1,0.2h-0.3l-0.1,0.2h-0.2V10h-0.2l-0.2,0.2h-0.2l-0.1,0.2l-0.3,0.1l-0.2,0.3h-0.2l-0.1,0.2H31l-0.2,0.3h-0.2L30.1,12
			h-0.2l-0.8,0.9h-0.2l-0.1,0.2L28,13.8V14l-0.9,0.8V15l-0.5,0.4v0.2L26,16.1v0.2l-0.3,0.2v0.2l-0.3,0.2v0.2l-0.2,0.1l-0.1,0.3H25
			v0.2l-0.2,0.1v0.2l-0.2,0.1v0.2l-0.2,0.1l-0.1,0.3h-0.1L24,19.3l-0.2,0.1v0.2h-0.1v0.2L23.5,20l-0.1,0.3h-0.1L23.1,21l-0.2,0.1
			l-0.1,0.4l-0.2,0.1v0.2l-0.2,0.1v0.2h-0.1l-0.3,0.4c-0.4,0-0.8-0.1-1.1-0.3v-0.2h-0.2l-0.2-0.3h-0.2L20,21.6l-0.4-0.1L19.2,21H19
			l-0.3-0.4h-0.2l-0.2-0.3H18l-0.6-0.8h-0.2l-1.3-1.4l-1.5-1.4l-0.1-0.3l-0.9-0.8v-0.2l-0.8-0.6v-0.2l-0.5-0.4v-0.2l-0.5-0.4v-0.2
			L11,12.8v-0.2l-0.3-0.2v-0.2l-0.3-0.2v-0.2L10,11.5l-0.1-0.3l-0.2-0.1v-0.2l-0.2-0.1l-0.1-0.3H9.2v-0.2L9,10.1V9.9L8.8,9.8V9.5
			L8.6,9.4L8.5,9L8.3,8.9L8.2,8.6H8.1L8,8.1L7.8,8L7.7,7.6H7.5V7.4H7.4L7.2,6.7H7.1V6.4H7V6.2L6.8,6.1C6.7,5.4,6.6,4.7,6.5,4h0.1
			c0-0.5,0.1-0.9,0.1-1.4H6.6V2.3H6.5L6.2,1.6H6.1V1.4L5.9,1.3V1.1H5.8L5.6,0.8C5.1,0.4,4.5,0.5,4.2,0C3.8,0,3.4,0.1,3.1,0.3L3,0.5
			L2.5,0.6L2.3,0.9H2.1C2.1,0.9,2,1,1.9,1.1C1.8,1.6,1.6,2,1.5,2.5V3L1,3.4L0.9,3H0.8c0-0.2,0.1,0,0.1-0.1C1,2.3,0.9,1.6,0.8,1
			C0.5,1.1,0.5,1.2,0.3,1.3L0.2,1.9H0.1c-0.1,1,0.1,2,0.8,2.8H1l0.1,0.2h0.3l0.1,0.2h0.3v0.1l0.5,0.1v0.1c0.4,0.3,0,0.1,0.2,0.4
			L2.9,6v0.3l0.2,0.1v0.2L3.6,7v0.2L4,7.5l0.2,0.7l0.3,0.2v0.2l0.3,0.2V9l0.4,0.3l0.1,0.3l0.2,0.1V10l0.4,0.3v0.2l0.4,0.3v0.2
			l0.3,0.2l0.1,0.3l0.2,0.1v0.2l0.2,0.1v0.2l0.4,0.3v0.2L8.1,13v0.2l0.4,0.3v0.2L9,14.1v0.2l0.5,0.4V15l0.5,0.4v0.2l0.6,0.4v0.2
			l0.9,0.8c1.1,1.4,2.4,2.8,3.7,4l1.4,1.5h0.2l0.6,0.8h0.2l0.8,0.9h0.2l0.1,0.2l0.3,0.2v0.1h0.2c0.3,0.2,0.2,0.4,0.6,0.5
			c0.1,0.3,0.4,0.6,0.2,1.1H20l-0.2,1h-0.1v0.2h-0.1v0.3h-0.1v0.2h-0.1v0.3h-0.1l-0.1,0.4H19V29h-0.1v0.3h-0.1v0.2h-0.1v0.3L18.5,30
			v0.3h-0.1v0.3h-0.1v0.2h-0.1v0.3H18v0.2h-0.1v0.3h-0.1V32h-0.1l-0.1,0.7h-0.1v0.2h-0.1l-0.1,0.7h-0.1l-0.2,1h-0.1v0.2h-0.1V35
			h-0.1c-0.1,0.6-0.3,1.2-0.4,1.8h-0.1v0.2H16l-0.1,0.9h-0.1v0.3h-0.1v0.4h-0.1l-0.1,1h-0.1V40h-0.1L15,41.4h-0.1l-0.1,1.1
			c-0.4,1.1-0.4,2.5-0.8,3.7v0.8h-0.1v0.7h-0.1v0.8h-0.1c0,0.6-0.1,1.2-0.1,1.7h-0.1v0.5h-0.1v1.1h-0.1v0.9h-0.1v1h-0.1v1H13V56
			h-0.1l-0.1,2.8V60c-0.2,0.7-0.2,1.4-0.1,2.2h0.1c0.2,0.7-0.1,1.7,0.1,2.4c0.1,0.9,0.1,1.9,0.2,2.8h0.1l0.2,1.6h0.1l0.1,0.9h0.1
			l0.1,0.8h0.1V71H14v0.3h0.1l0.1,0.7h0.1v0.2h0.1v0.3h0.1v0.2h0.1V73h0.1l0.2,0.7h0.1l0.1,0.4l0.2,0.1v0.2l0.2,0.2v0.2h0.1v0.2
			l0.2,0.1v0.2l0.3,0.2v0.2l0.2,0.1v0.2l0.3,0.2c0.2,0.3,0.2,0.4,0.5,0.7v0.2h0.2v0.1c0.2,0.2,0.1,0.2,0.4,0.3v0.2l0.3,0.1l0.5,0.7
			h0.2l0.2,0.3h0.2l0.1,0.2l0.4,0.1l0.1,0.2l0.4,0.1v0.1h0.2v0.1l0.6,0.2v0.1l1.1,0.2c1.3,0.5,2.7,0.6,4,0.3h0.9v-0.1H28v-0.1h0.5
			v-0.1H29v-0.1h0.4v-0.1h0.3v-0.1h0.3V80h0.3v-0.1l0.6-0.1v-0.1h0.2v-0.1h0.3v-0.1h0.2v-0.2h0.3v-0.1l0.4-0.1V79h0.3v-0.1h0.2v-0.1
			l0.4-0.1v-0.1h0.2v-0.1H34v-0.1h0.2v-0.1h0.2v-0.1h0.2V78h0.2v-0.1h0.2v-0.1h0.2l0.2-0.2h0.2l0.1-0.2l0.4-0.1l0.1-0.2l0.7-0.2
			l0.1-0.2h0.2l0.2-0.2h0.2l0.1-0.2h0.2l0.1-0.2h0.2l0.1-0.2l0.4-0.1l0.2-0.3l0.4-0.1l0.3-0.4h0.2l0.1-0.2l0.3-0.1v-0.1h0.2l0.3-0.4
			h0.2l0.3-0.4h0.2l0.3-0.4h0.2l0.4-0.5h0.2l0.8-0.9h0.2l0.7-0.8H45v-0.2c0.5-0.1,1.1-1,1.5-1.4l2.2-2.1V67l0.2-0.1l0.5-0.7l0.7-0.5
			v-0.2h0.1c0.2-0.2,0.4-0.5,0.5-0.8h0.2c0.2-0.6,0.8-0.7,1-1.3c0.2-0.1,0.1,0,0.2-0.1h0.2c-0.1,0.2,0,0.7-0.1,1h-0.1L52,65.2h-0.1
			L51.8,66h-0.1v0.4h-0.1l-0.1,0.8h-0.1v0.3h-0.2L51,68.8c-1.2,3.4-1.8,7.3-3,10.7v0.6c-0.5,1.4-0.8,3.2-1.3,4.7v0.7h-0.1v0.3h-0.1
			l-0.1,1.1c-0.3,1.1-0.5,2.6-0.9,3.7V91h-0.1v0.4h-0.1v0.4h-0.1v0.3H45L44.9,93h-0.1l-0.1,0.4h-0.1l-0.1,0.4l-0.2,0.1l-0.1,0.4
			l-0.2,0.1v0.2l-0.2,0.1V95l-0.2,0.1l-0.1,0.4l-0.2,0.1v0.2L43,96v0.2l-0.2,0.1v0.2l-0.2,0.1L42.4,97h-0.1v0.2l-0.2,0.1v0.2
			l-0.2,0.1v0.2L41.7,98v0.2l-0.2,0.1v0.2l-0.2,0.1L41.1,99l-0.3,0.2l-0.1,0.4l-0.2,0.1v0.2l-0.2,0.1v0.2l-0.2,0.1l-0.1,0.4
			l-0.2,0.1l-0.1,0.3h-0.1l-0.1,0.4l-0.2,0.1l-0.1,0.3H39v0.2h-0.1v0.2l-0.2,0.1l-0.1,0.4l-0.2,0.1l-0.1,0.4l-0.2,0.1l-0.1,0.4
			l-0.2,0.1l-0.1,0.4l-0.2,0.1l-0.2,0.7l-0.2,0.1v0.2h-0.1v0.2l-0.2,0.1v0.2l-0.2,0.2v0.2h-0.1v0.2l-0.2,0.1v0.2l-0.2,0.2v0.2h-0.1
			v0.2l-0.2,0.1v0.2l-0.2,0.2v0.2h-0.1v0.2l-0.2,0.1v0.2l-0.2,0.2v0.2h-0.1v0.2h-0.1v0.2l-0.2,0.2v0.2l-0.2,0.1v0.2l-0.2,0.2v0.2
			h-0.1v0.2h-0.1v0.2h-0.1v0.1h-0.1v0.2h-0.1v0.2h-0.1l-0.1,0.4H33l-0.1,0.4h-0.1v0.2h-0.1v0.2h-0.1v0.3l-0.2,0.2v0.2l-0.2,0.1v0.3
			H32l-0.1,0.4h-0.1v0.2h-0.1v0.2h-0.1l-0.2,0.7h-0.1v0.3h-0.1l-0.2,0.7h-0.1v0.2h-0.1v0.2h-0.1l-0.1,0.4h-0.1v0.3h-0.1l-0.2,0.7H30
			v0.2h-0.1v0.3h-0.1l-0.1,0.4h-0.1v0.2h-0.1v0.3h-0.1l-0.1,0.4h-0.1v0.3H29l-0.1,0.4h-0.1v0.3h-0.1v0.2h-0.1v0.3h-0.1v0.2h-0.1v0.3
			h-0.1l-0.1,0.5H28v0.1h-0.1v0.3h-0.1v0.2h-0.1l-0.1,0.7h-0.1v0.2h-0.1v0.4h-0.1v0.2h-0.1v0.3H27v0.3h-0.1v0.3h-0.1v0.3
			c-0.2,0.5-0.5,1-0.6,1.5l-0.2,1h-0.1v0.2h-0.1v0.4h-0.1v0.3h-0.1v0.2h-0.1v0.4h-0.1v0.2h-0.1v0.4h-0.1v0.3H25v0.2h-0.1v0.3h-0.1
			v0.4h-0.1v0.2h-0.1l-0.1,0.9h-0.1v0.3h-0.1v0.3h-0.1v0.3H24v0.3h-0.1v0.4h-0.1v0.3h-0.1v0.4c-0.5,1.2-0.8,2.7-1.2,4l-0.1,0.9h-0.1
			v0.4h-0.1v0.4h-0.1l-0.1,1h-0.1l-0.1,1h-0.1v0.6h-0.1v0.5h-0.1v0.4h-0.1v0.7h-0.1v0.6h-0.1l-0.1,1.3h-0.1c0,0.6-0.1,1.1-0.1,1.7
			h-0.1v1.4c-0.3,1.5-0.1,3.1,0.5,4.6l0.5,0.4l0.1,0.2h0.2v0.1l0.5,0.1v0.1c0.9,0,1.7-0.3,2.4-0.9h0.2l0.1-0.2h0.2l0.6-0.8h0.2
			l0.1-0.2L27,155v-0.2l0.8-0.6v-0.2l0.2-0.1v-0.2l0.4-0.3V153l0.2-0.1v-0.2l0.3-0.2v-0.2l0.2-0.1V152l0.2-0.1l0.1-0.3h0.1v-0.2h0.1
			v-0.2L30,151l0.1-0.4l0.2-0.1l0.1-0.4l0.2-0.1l0.1-0.4l0.2-0.1v-0.2l0.2-0.2v-0.2h0.1v-0.2l0.2-0.1v-0.2l0.2-0.2v-0.2h0.1v-0.2
			h0.1v-0.2H32v-0.2h0.1v-0.2h0.1v-0.2h0.1v-0.2h0.1v-0.2h0.1l0.1-0.4h0.1v-0.2h0.1v-0.3l0.2-0.1v-0.3h0.1v-0.2h0.1l0.2-0.6h0.1
			v-0.3h0.1l0.1-0.4H34v-0.3h0.1l0.1-0.4h0.1v-0.2h0.1v-0.3h0.1l0.1-0.4h0.1v-0.3h0.1l0.1-0.5h0.1v-0.2h0.1v-0.3h0.1l0.1-0.4h0.1
			v-0.3h0.1V139h0.1v-0.2h0.1v-0.3H36v-0.2h0v-0.3h0.1v-0.2h0.1l0.1-0.6h0.1v-0.2h0.1v-0.3h0.1v-0.2h0.1V136h0.1l0.1-0.6h0.1v-0.2
			h0.1l0.1-0.6h0.1v-0.2h0.1l0.2-1h0.1V133H38v-0.4h0.1v-0.2h0.1l0.1-0.6h0.1v-0.2h0.1v-0.4h0.1v-0.3h0.1v-0.2h0.1l0.2-1h0.1v-0.4
			h0.1v-0.3h0.1v-0.2h0.1l0.1-0.8h0.1v-0.2h0.1v-0.3H40v-0.4h0l0.1-0.7h0.1v-0.3h0.1v-0.3h0.1v-0.3h0.1v-0.3h0.1l0.2-1.1H41v-0.4
			h0.1V123h0.1v-0.4h0.1v-0.2h0.1V122h0.1v-0.4h0.1l0.1-0.8h0.1c0.1-0.4,0.2-0.7,0.2-1.1h0.1v-0.3h0.1V119c1.1-3,1.7-6.5,2.8-9.5
			V109h0.1v-0.4h0.1v-0.4h0.1v-0.4c1-2.8,1.4-6,2.4-8.8c0.2-1,0.4-2,0.7-3h0.1v-0.3h0.1v-0.3h0.1V95h0.1l0.1-0.7h0.1l0.1-0.4h0.1
			v-0.2l0.2-0.1l0.1-0.4h0.1l0.1-0.3l0.2-0.1v-0.2l0.5-0.4v-0.2l0.3-0.2v-0.2l0.5-0.4v-0.2l0.4-0.3v-0.2l0.7-0.5v-0.2l0.4-0.3v-0.2
			l0.7-0.5v-0.2c0.2-0.3,0.4-0.2,0.5-0.7h0.2c0.1-0.5,0.3-0.4,0.5-0.7v-0.2l0.2-0.1v-0.1l0.2-0.1v-0.2c0.3-0.2,0.5-0.4,0.8-0.7v-0.2
			l0.5-0.4v-0.2l0.9-0.8v-0.2h0.1l0.3-0.4c0.4-0.4,1.3-1,1.4-1.5c0.5-0.1,0.8-0.6,1.1-1l0.9-0.8l0.2-0.3h0.2l1-1.1H63l0.8-0.9H64
			c0.2-0.2,0.4-0.5,0.7-0.8h0.2l0.7-0.8h0.2l0.5-0.7h0.2v-0.1l0.3-0.2l0.2-0.3h0.2l0.4-0.6h0.2v-0.1l0.3-0.2l0.1-0.2h0.2l0.4-0.5
			h0.2l0.4-0.5h0.2l0.3-0.4h0.2l0.4-0.6H71l0.3-0.4h0.2l0.3-0.4h0.2l0.3-0.4h0.2L73,70h0.2l0.3-0.4h0.2l0.3-0.4h0.2l0.3-0.4h0.2
			l0.1-0.2l0.3-0.1l0.3-0.4h0.2l0.2-0.3l0.3-0.1l0.1-0.2h0.2l0.2-0.3h0.2l0.2-0.3h0.2l0.2-0.3H78l0.2-0.3h0.2l0.2-0.3l0.3-0.1
			l0.1-0.2h0.2l0.2-0.3h0.2l0.2-0.3h0.2l0.2-0.3h0.2l0.1-0.2h0.2l0.2-0.3h0.2l0.2-0.3h0.2l0.2-0.3h0.2l0.1-0.2h0.2l0.2-0.3l0.3-0.1
			l0.1-0.2h0.2l0.1-0.2h0.2l0.2-0.3h0.2l0.1-0.2h0.2l0.2-0.3h0.2L85,61h0.2l0.2-0.3h0.2l0.1-0.2H86l0.2-0.3h0.2l0.1-0.2l0.3-0.1
			v-0.1h0.2l0.2-0.3h0.2l0.1-0.2L88,59v-0.1h0.2l0.2-0.3h0.2l0.1-0.2h0.2l0.2-0.3h0.2l0.1-0.2l0.3-0.1v-0.1H90l0.2-0.3h0.2l0.1-0.2
			l0.3-0.1v-0.1h0.2l0.1-0.2h0.2l0.2-0.3l0.3-0.1l0-0.2h0.2l0.1-0.2h0.2l0.1-0.2h0.2v-0.1l0.3-0.1l0.1-0.2h0.2l0.2-0.3l0.3-0.1
			l0.1-0.2h0.2l0.1-0.2l0.4-0.1l0.2-0.3l0.3-0.1v-0.1h0.2l0.2-0.3l0.4-0.1l0.2-0.3h0.2l0.1-0.2l0.3-0.1v-0.1h0.2l0.1-0.2h0.2
			l0.1-0.2h0.2l0.1-0.2h0.2l0.1-0.2h0.2l0.1-0.2H99l0.1-0.2h0.2V51l0.3-0.1l0.1-0.2h0.2l0.2-0.3l0.4-0.1l0.2-0.3h0.2l0.1-0.2
			l0.3-0.1v-0.1h0.2l0.1-0.2l0.3-0.1V49l0.4-0.1l0.2-0.3h0.2l0.1-0.2h0.2l0.1-0.2l0.3-0.1V48h0.2l0.1-0.2l0.3-0.1v-0.1l0.4-0.1
			l0.1-0.2h0.2l0.2-0.3l0.7-0.2l0.2-0.3h0.2v-0.1h0.2l0.1-0.2l0.4-0.1l0.1-0.2l0.4-0.1l0.1-0.2l0.3-0.1v-0.1h0.2v-0.1h0.2V45h0.2
			v-0.1c0.2-0.1,0.2,0,0.4-0.2h0.8v0.1h0.1c-0.2,0.2,0,0.5-0.1,0.9H110V46h-0.1v0.4h-0.1v0.2h-0.1v0.4h-0.1v0.2h-0.1l-0.1,0.8h-0.1
			v0.2h-0.1L109,49h-0.1v0.2h-0.1l-0.2,1.1h-0.1v0.2h-0.1l-0.1,0.8h-0.1v0.2H108v0.3h0v0.4h-0.1v0.3h-0.1V53h-0.1v0.3h-0.1v0.3h-0.1
			v0.4h-0.1v0.3h-0.1v0.3h-0.1V55H107c-0.1,0.4-0.2,0.7-0.2,1.1h-0.1l-0.1,0.9h-0.1v0.4h-0.1v0.3h-0.1l-0.1,0.9H106l-0.1,1h-0.1v0.5
			c-0.2,0.5-0.3,1.3-0.4,1.8v0.8c-0.1,0.5-0.2,1-0.2,1.5v1.1H105v1.4h0.1v1.5h0.1v1h0.1V70h0.1v0.5h0.1v0.5h0.1v0.3h0.1v0.3h0.1
			l0.3,1.4h0.1l0.2,0.7h0.1V74h0.1v0.2h0.1v0.3l0.2,0.1l0.1,0.4l0.2,0.1l0.1,0.4l0.2,0.1V76l0.3,0.2v0.2l0.4,0.3v0.2l1,0.9l0.3,0.4
			h0.2l0.4,0.6h0.2l0.1,0.2l0.4,0.1l0.1,0.2l0.3,0.1v0.1l0.5,0.1l0.1,0.2l2.9,1h0.7c1.3,0.3,2.7,0.3,4,0.1h1.2v-0.1h0.8v-0.1h0.7
			v-0.2h0.5v-0.1h0.5v-0.1h0.5v-0.1h0.4v-0.1h0.5v-0.1h0.4V80l0.8-0.1v-0.1l0.8-0.1v-0.1h0.3v-0.1h0.3v-0.2h0.3v-0.1l0.6-0.1V79h0.2
			v-0.1l0.6-0.1v-0.1l0.4-0.1v-0.1h0.3v-0.1h0.2v-0.1h0.3v-0.1l0.6-0.2v-0.1h0.2v-0.1h0.2v-0.1h0.3l0.1-0.2h0.2l0.2-0.2h0.2V77h0.2
			v-0.1h0.2l0.2-0.2h0.2l0.1-0.2h0.3l0.1-0.2l0.4-0.1l0.1-0.2l0.4-0.1l0.1-0.2l0.4-0.1l0.1-0.2l0.4-0.1V75l0.3-0.1l0.1-0.2h0.2
			l0.2-0.3h0.2l0.1-0.2l0.3-0.1V74h0.2l0.2-0.3h0.2l0.1-0.2h0.2l0.2-0.3h0.2l0.2-0.3h0.2l0.1-0.2h0.2l0.3-0.4h0.2l0.1-0.2h0.1
			l0.1-0.2h0.2l0.1-0.2h0.2l0.2-0.3h0.2l0.2-0.3h0.2l0.1-0.2h0.2l0.1-0.2h0.3v-0.1l0.4-0.1v-0.1h0.3V70c0.1,0,0,0.1,0.1,0.1
			c0.3-0.1,0.6-0.1,0.9,0v0.1h0.3v0.1h0.2v0.1h0.3v0.1l0.6,0.2v0.1h0.2V71l0.4,0.1v0.1l0.3,0.1l0.1,0.2h0.3v0.1l0.4,0.1v0.1h0.2V72
			h0.2v0h0.2v0.1h0.2v0.1h0.3l0.1,0.2h0.4v0.1h0.2v0.1h0.3v0.1h0.3v0.1h0.3V73h0.4v0.1h0.4v0.1l1,0.1v0.1h0.9v0.1h1v0.1
			c1.1,0.1,2.1,0.1,3.1-0.1l2.4-0.1v-0.1h0.8c1-0.3,2.2-0.5,3.1-0.8h0.5v-0.1l0.9-0.1v-0.1h0.3v-0.1h0.3V72l0.8-0.1v-0.1l1.1-0.2
			v-0.1h0.2v-0.1l0.8-0.1l0.1-0.2l0.6-0.1v-0.1h0.2v-0.1h0.3v-0.1h0.2v-0.1l0.5-0.1v-0.1h0.3v-0.1l0.4-0.1V70h0.3v-0.1l0.4-0.1v-0.1
			h0.2v-0.1h0.3l0.1-0.2h0.2l0.2-0.2h0.2V69h0.1v-0.1h0.2v-0.1h0.2v-0.1h0.2v-0.1h0.2v-0.1h0.2v-0.1h0.2v-0.1h0.2v-0.1L176,68
			l0.1-0.2h0.3l0.1-0.2l0.6-0.2l0.1-0.2h0.3V67l0.3-0.1l0.1-0.2l0.4-0.1l0.1-0.2h0.2l0.1-0.2h0.2l0.1-0.2h0.3l0.2-0.3l0.4-0.1
			l0.1-0.2l0.3-0.1v-0.1l0.4-0.1v-0.1l0.3-0.1l0.1-0.2h0.2l0.2-0.3l0.4-0.1l0.2-0.3l0.4-0.1l0.1-0.2h0.2l0.3-0.4h0.2l0.1-0.2
			l0.3-0.1v-0.1h0.2l0.1-0.2l0.3-0.1l0.3-0.4h0.2l0.1-0.2h0.2l0.3-0.4l0.3-0.1l0.1-0.2h0.2l0.2-0.3h0.2l0.3-0.4h0.2l0.3-0.4h0.2
			l0.3-0.4h0.2V59c0.2,0,0.3-0.1,0.4-0.2v-0.1h0.2v-0.1l0.3-0.2l0.1-0.2h0.2V58l0.4-0.3l0.2-0.3c0.3-0.2,0.4-0.2,0.6-0.5h0.2v-0.2
			c0.4-0.1,0.7-0.4,0.9-0.8h0.2v-0.2h0.2c0.2-0.2,0.4-0.5,0.6-0.8h0.2v-0.1l0.4-0.3v-0.2c0.4-0.1,0.6-0.5,0.9-0.8l0.5-0.4l0.1-0.2
			h0.2l0.1-0.3h0.1l0.5-0.7h0.2c0.1-0.5,0.3-0.3,0.5-0.5l1.5-1.6h0.3c0.1-0.2,0-0.1,0.1-0.2v-0.1h0.3c0.1,0.6,0.1,1.2,0,1.7h-0.1
			v0.8h-0.1v0.3h-0.1v0.4h-0.1l0.1,0.2h-0.1v0.4h-0.1v0.5h-0.1l-0.1,1H199v0.3h-0.1v0.4h-0.1l-0.1,1.1h-0.1v0.5h-0.1l-0.1,1h-0.1
			v0.4h-0.1l-0.1,1h-0.1v0.5c-0.3,1-0.5,2.2-0.9,3.1l-0.1,0.9h-0.1l-0.5,1.8h-0.1v0.2h-0.1l-0.2,1.1h-0.1v0.3h-0.1v0.2h-0.1l-0.2,1
			h-0.1V69h-0.1v0.3h-0.1l-0.1,0.4h-0.1v0.3h-0.1v0.2h-0.1l-0.4,1.3h-0.1v0.2l-0.2,0.1v0.3h-0.1l-0.1,0.4h-0.1V73h-0.1l-0.1,0.4
			h-0.1v0.4h-0.1l-0.1,1h-0.1c-0.1,0.6-0.1,1.2,0.1,1.8c0,0.3,0.1,0.6,0.2,0.9l0.2,0.1l0.1,0.4l0.2,0.1l0.6,0.8h0.2l0.2,0.3
			c0.9,0.4,1.9,0.5,2.9,0.4v-0.1h0.3v-0.1h0.3v-0.1h0.4l0.1-0.2l0.3-0.1V79l0.4-0.1l0.3-0.4h0.2l0.2-0.3l0.8-0.7v-0.2l0.5-0.4
			l0.1-0.4l0.3-0.2V76l0.3-0.2v-0.2l0.2-0.1v-0.2l0.2-0.1l0.1-0.4l0.3-0.2v-0.2h0.1l0.1-0.4l0.3-0.2v-0.2l0.2-0.1V73l0.3-0.2v-0.2
			l0.2-0.1l0.1-0.3h0.1v-0.2l0.2-0.1v-0.2l0.2-0.1v-0.2l0.2-0.1l0.1-0.4l0.3-0.2l0.1-0.4l0.4-0.3l0.1-0.4l0.2-0.1l0.1-0.4h0.1
			l0.1-0.3l0.2-0.1v-0.2l0.3-0.2v-0.2l0.2-0.1l0.1-0.3h0.1V67l0.2-0.1v-0.2l0.2-0.1v-0.2l0.2-0.1v-0.2h0.1l0.1-0.3l0.2-0.1v-0.2
			l0.3-0.2l0.1-0.4l0.3-0.2v-0.2l0.2-0.1l0.1-0.4h0.1l0.1-0.3l0.2-0.1v-0.2L211,63l0.1-0.3h0.1v-0.2l0.2-0.1l0.1-0.4l0.2-0.1v-0.2
			h0.1v-0.2l0.2-0.1v-0.2l0.2-0.1v-0.2l0.2-0.1l0.2-0.7l0.2-0.1l0.1-0.4l0.2-0.1l0.1-0.4l0.2-0.1l0.2-0.7l0.2-0.1l0.2-0.7l0.2-0.1
			v-0.2h0.1v-0.2l0.2-0.1v-0.2l0.2-0.2v-0.2h0.1v-0.2l0.2-0.1l0.1-0.4h0.1v-0.2h0.1v-0.2h0.1v-0.2h0.1l0.1-0.4l0.2-0.1V54l0.2-0.2
			v-0.2h0.1v-0.3h0.1v-0.2h0.1v-0.2h0.1v-0.2h0.1v-0.2l0.2-0.2V52l0.2-0.1l0.1-0.4h0.1v-0.2h0.1V51h0.1v-0.2h0.1v-0.2h0.1l0.1-0.4
			h0.1v-0.2h0.1v-0.2h0.1v-0.2h0.1v-0.2h0.1V49l0.2-0.2v-0.2l0.2-0.1v-0.2l0.2-0.2v-0.2h0.1v-0.2h0.1v-0.2l0.2-0.1V47l0.2-0.1v-0.2
			h0.1v-0.2l0.2-0.2V46l0.2-0.1l0.1-0.4l0.2-0.1v-0.2l0.2-0.2v-0.2h0.1v-0.2l0.2-0.1v-0.2h0.1V44l0.2-0.1l0.1-0.3h0.1l0.1-0.4
			l0.2-0.1v-0.2l0.2-0.1v-0.2l0.2-0.1v-0.2l0.2-0.1l0.1-0.4l0.2-0.1v-0.2l0.2-0.1V41l0.2-0.1v-0.2h0.1l0.1-0.3l0.2-0.1V40l0.3-0.2
			l0.1-0.3l0.2-0.1v-0.2L225,39v-0.2l0.4-0.3v-0.2l0.2-0.1v-0.2l0.2-0.1l0.1-0.3l0.4-0.3v-0.2l0.3-0.2v-0.2l0.4-0.3V36l0.4-0.3
			l0.1-0.3l0.2-0.1V35l0.6-0.4v-0.2l0.5-0.4v-0.2l0.4-0.3v-0.2l0.6-0.5v-0.2l0.8-0.6v-0.2l0.2-0.1c0.3-0.3,0.6-0.6,0.8-1
			c0.5-0.1,0.6-0.5,0.9-0.8l0.6-0.5l0.2-0.3l0.3-0.1l0.3-0.4h0.2l0.2-0.3h0.2l0.2-0.3h0.2l0.2-0.3h0.2l0.2-0.3l0.4-0.1l0.1-0.2
			l0.3-0.1v-0.1l0.4-0.1l0.1-0.2l0.6-0.2v-0.1h0.2v-0.1h0.2v-0.1l0.6-0.2v-0.1h0.3v-0.1h0.2V25h0.3v-0.1h0.2v-0.1l0.8-0.1v-0.1h0.4
			v-0.1h0.3v-0.1h0.5c1-0.3,1.9-0.4,2.9-0.3v0.1h1.1l2.3,0.6v0.1l0.4,0.1v0.1h0.2v0.1l0.5,0.1l0.1,0.2l0.4,0.1l0.1,0.2h0.2V26h0.2
			l0.2,0.3h0.2l0.1,0.2l0.3,0.1v0.1h0.2L252,27l0.3,0.1l0.3,0.4h0.2l0.6,0.8h0.2v0.1l0.3,0.2l0.2,0.3h0.2l0.5,0.6h0.2l0.6,0.8h0.2
			l0.8,0.9h0.1v0.1c0.3,0.2,0.5,0.5,0.9,0.6v0.2c0.5,0.2,1.1,1,1.5,1.4l0.8,0.5l0.2,0.4h0.2l1,1.1c0.8,0.6,1.7,1.1,2.7,1.3
			c0.2-1.1,0.2-2.2,0.1-3.4l0.1-0.1v-0.1h-0.1L264.4,33L264.4,33z M65.9,33L65.9,33l0.1-0.2h0.1l0.1-0.4h0.1V32l0.2-0.1l0.2-1H67
			c0.1-0.9,0.7-1.2,0.8-2.2H68v-0.3h0.2l0.1-0.6h0.2v-0.4h0.2L68.5,28h-0.1v0.4h-0.1l-0.1,0.4h-0.1l0.1,0.2h-0.1l-0.2,0.6h-0.1V30
			h-0.1v0.2h-0.1v0.3l-0.2,0.1V31h-0.1v0.2L67,31.3v0.3l-0.2,0.1v0.3l-0.3,0.2c0.1,0.1,0.1,0.3,0,0.4h-0.1c-0.1,0.1-0.2,0.3-0.2,0.5
			H66v-0.1C66,33.1,65.9,33.2,65.9,33z M24.7,23.5h0.1l0.1-0.5l0.2-0.1l0.1-0.4l0.2-0.1l0.1-0.4l0.2-0.1v-0.2l0.2-0.1v-0.2l0.3-0.2
			v-0.2h0.1l0.1-0.3l0.2-0.1v-0.2l0.3-0.2v-0.2l0.3-0.2v-0.2l0.3-0.2v-0.2l0.6-0.5v-0.2l1.5-1.4l1-1.1h0.2l0.3-0.4l0.3-0.1l0.1-0.2
			H32l0.1-0.2l0.3-0.1v-0.1l0.4-0.1l0.1-0.2l0.4-0.1l0.1-0.2h0.3v-0.1h0.2v-0.1c0.6-0.2,1.3-0.3,2-0.3v0.1h0.3v0.1h0.2v0.1l1,0.1
			l0.1,0.2l0.4,0.1l0.1,0.3h0.1v0.2h0.1l0.2,0.6h0.1v0.4h0.1V16H39v0.9h0.1v1.2H39v0.8h-0.1v0.5h-0.1v0.4h-0.1v0.3h-0.1v0.3h-0.1
			v0.2h-0.1V21l-0.2,0.1v0.3l-0.2,0.1L37.8,22l-0.3,0.2v0.2l-0.3,0.2v0.2L36.9,23l-0.5,0.6h-0.2v0.2L35.8,24v0.1l-0.3,0.1l-0.1,0.2
			l-0.7,0.2v0.1h-0.2v0.1L33.9,25v0.1l-1.1,0.2c-2.1,0.5-4.3,0.4-6.3-0.4h-0.3v-0.1h-0.3v-0.1h-0.2v-0.1h-0.2v-0.1h-0.2v-0.1h-0.3
			v-0.1c-0.2-0.1-0.2-0.2-0.3-0.3C24.5,23.9,24.6,23.7,24.7,23.5z M42.9,103.7c-0.2,0.7-0.3,1.5-0.5,2.2v0.5
			c-0.8,3.3-1.7,6.7-2.5,10.1c0,0.2,0,0-0.1,0.1v0.3h-0.1v0.5h-0.1c-0.1,0.4-0.2,0.8-0.2,1.2h-0.1v0.4h-0.1v0.5H39v0.3h-0.1v0.4
			h-0.1c-0.1,0.4-0.1,0.8-0.2,1.2h-0.1l-0.1,0.8h-0.1v0.3h-0.1v0.3H38l-0.2,1.3h-0.1l-0.2,1.1h-0.1l-0.1,0.8h-0.1v0.3H37v0.3h-0.1
			v0.3h-0.1v0.4h-0.1v0.3h-0.1v0.3h-0.1v0.4h-0.1v0.2h-0.1v0.4h-0.1v0.3H36v0.3h-0.1c-0.1,0.5-0.2,0.9-0.3,1.4h-0.1v0.4h-0.1
			l-0.1,0.6c-0.4,1-0.8,2.2-1.2,3.2v0.3h0v0.3h-0.1v0.3h-0.1v0.3h-0.1v0.3h-0.1v0.2h-0.1v0.4h-0.1v0.2h-0.1v0.4h-0.1v0.2H33l-0.2,1
			h-0.1v0.2h-0.1v0.4h-0.1v0.2h-0.1l-0.1,0.6h-0.1v0.2H32l-0.1,0.6h-0.1v0.2h-0.1v0.3h-0.1v0.2h-0.1l-0.1,0.5h-0.1l-0.1,0.6H31
			l-0.1,0.4h-0.1l-0.1,0.6h-0.1l-0.1,0.4h-0.1v0.3h-0.1l-0.1,0.4h-0.1v0.2H30l-0.1,0.5l-0.2,0.1v0.3h-0.1v0.2h-0.1v0.2h-0.1v0.2
			h-0.1v0.2h-0.1v0.2H29v0.2h-0.1v0.2h-0.1v0.2l-0.2,0.2v0.2l-0.2,0.1l-0.2,0.6l-0.2,0.1l-0.2,0.6l-0.2,0.1l-0.1,0.4h-0.1l-0.1,0.3
			l-0.2,0.1v0.2l-0.3,0.2v0.2l-0.2,0.1v0.2l-0.5,0.4v0.2l-0.9,0.8l-0.2,0.3c-0.3,0.2-0.9,0.4-1.1,0.6h-0.8v-0.1
			c-0.3-0.2-0.2-0.3-0.4-0.6h-0.1v-0.2h-0.1c-0.2-1.1-0.3-2.2-0.2-3.4h0.1V150h0.1v-0.8h0.1v-0.8h0.1v-0.6h0.1l0.1-1.2
			c0.5-1.6,0.8-3.4,1.3-4.9v-0.4h0.1V141h0.1v-0.4c0.9-2.6,1.6-5.4,2.7-7.8l0.1-0.6h0.1v-0.2h0.1v-0.3h0.1v-0.3h0.1l0.1-0.4h0.1
			v-0.3h0.1v-0.2h0.1v-0.3H28v-0.2h0.1v-0.3h0.1v-0.2h0.1v-0.3h0.1l0.1-0.4h0.1v-0.3h0.1v-0.2h0.1v-0.3H29l0.1-0.4h0.1v-0.3h0.1
			l0.1-0.4h0.1v-0.2h0.1v-0.3h0.1l0.1-0.4H30v-0.2h0.1v-0.3h0.1l0.1-0.4h0.1c0.1-0.3,0.2-0.7,0.3-1h0.1v-0.2H31V123h0.1v-0.2h0.1
			v-0.2h0.1v-0.2h0.1v-0.2h0.1v-0.2h0.1v-0.2h0.1v-0.2h0.1v-0.3L32,121v-0.2l0.2-0.2v-0.2h0.1v-0.2h0.1v-0.2h0.1v-0.2h0.1v-0.2h0.1
			v-0.2h0.1l0.1-0.4h0.1l0.1-0.4h0.1v-0.2h0.1V118h0.1v-0.2l0.2-0.2v-0.2l0.2-0.1V117l0.2-0.2v-0.2h0.1v-0.2h0.1v-0.2l0.2-0.1v-0.2
			h0.1v-0.2h0.1v-0.2H35v-0.2h0.1v-0.2l0.2-0.2v-0.2l0.2-0.1l0.2-0.7l0.2-0.1l0.2-0.7l0.2-0.1v-0.2l0.2-0.2v-0.2h0.1V112l0.2-0.1
			v-0.2l0.2-0.2l0.1-0.4h0.1l0.1-0.3l0.2-0.1l0.1-0.4L38,110l0.2-0.7l0.2-0.1l0.1-0.4l0.2-0.1l0.1-0.4l0.2-0.1l0.1-0.4l0.2-0.1
			l0.1-0.3h0.1l0.1-0.4l0.2-0.1l0.1-0.3h0.1l0.1-0.4l0.2-0.1v-0.2l0.2-0.1v-0.2l0.2-0.1v-0.2l0.2-0.1v-0.2h0.1l0.1-0.3l0.2-0.1v-0.2
			l0.3-0.2v-0.2l0.2-0.1l0.1-0.3h0.1V103c0.1-0.2,0.4-0.3,0.5-0.5C43,102.9,43,103.3,42.9,103.7z M138.9,62.4h-0.1v0.7h-0.1v0.3
			h-0.1l-0.2,0.6h-0.1v0.2l-0.2,0.1l-0.1,0.3h-0.1c-0.2,0.1-0.3,0.3-0.3,0.5h-0.2c-0.1,0.6-0.7,0.8-1.1,1.2l-1.4,1.5l-0.3,0.1
			l-0.6,0.8h-0.2l-0.2,0.3h-0.2l-0.3,0.4h-0.2l-0.1,0.2h-0.2l-0.2,0.3l-0.3,0.1l-0.1,0.2l-0.4,0.1l-0.2,0.3l-0.4,0.1l-0.1,0.2
			l-0.3,0.1v0.1l-0.4,0.1l-0.1,0.2l-0.6,0.2l-0.1,0.2h-0.2l-0.2,0.2h-0.2v0.1h-0.2v0.1h-0.2v0.1h-0.2v0.1h-0.2v0.1l-0.7,0.2v0.1
			l-1.9,0.7V74h-0.2v0.1H124v0.1h-0.3v0.1h-0.3v0.1l-0.8,0.1v0.1h-0.4v0.1h-0.7c-1.9,0.5-3.9,0.5-5.8-0.1h-0.4l-0.1-0.2l-0.7-0.2
			v-0.1l-0.3-0.1l-0.1-0.2h-0.2l-0.3-0.4l-0.8-0.7v-0.2l-0.2-0.1v-0.2l-0.2-0.1l-0.1-0.4h-0.1l-0.1-0.4h-0.1v-0.3h-0.1v-0.2h-0.1
			v-0.3h-0.1V70h-0.1l-0.1-1.2c-0.6-1.9-0.1-5.6,0.4-7.2v-0.5h0.1l0.2-1.3h0.1l0.1-0.8h0.1v-0.3h0.1v-0.3h0.1v-0.3h0.1v-0.4h0.1
			v-0.2h0.2l0.1-0.7h0.1v-0.2h0.1l0.1-0.7h0.1l0.1-0.5h0.1l0.1-0.4h0.1v-0.3l0.2-0.1v-0.3h0.1l0.1-0.4h0.1v-0.3h0.1l0.2-0.7h0.1
			v-0.2h0v-0.2h0.1v-0.2h0.1V52h0.1v-0.2h0.1v-0.2l0.2-0.2v-0.2l0.2-0.1v-0.3l0.2-0.1v-0.3l0.2-0.1l0.2-0.7l0.2-0.1v-0.3L117,49
			l0.1-0.4l0.2-0.1l0.1-0.3h0.1v-0.3h0.1l0.1-0.3l0.2-0.1l0.1-0.4l0.2-0.1l0.1-0.3h0.1l0.1-0.4l0.3-0.2l0.2-0.7l0.4-0.3l0.1-0.4
			l0.3-0.2V44l0.2-0.1l0.1-0.3h0.1v-0.2l0.3-0.2v-0.2l0.3-0.2v-0.2l0.3-0.2V42l0.3-0.2v-0.2l0.2-0.1v-0.1l0.2-0.1v-0.2h0.1
			c0.2-0.1,0.3-0.3,0.3-0.5h0.2v-0.2h0.2c0.1-0.3,0.2-0.5,0.4-0.8l0.2-0.1v-0.2l1.2-1.1v-0.2l0.2-0.1l0.8-0.9h0.2
			c0.1-0.4,0.4-0.5,0.7-0.9h0.2v-0.2c0.4-0.1,0.7-0.4,0.9-0.8h0.2v-0.2h0.2l0.5-0.7l0.3-0.1v-0.2c0.2,0,0.3-0.1,0.4-0.2v-0.1h0.2
			l0.1-0.2h0.1l0.1-0.2h0.2l0.1-0.2h0.2l0.3-0.4l0.3-0.1l0.1-0.2h0.3l0.1-0.2c0.2-0.2,0.5-0.4,0.8-0.4v-0.2c0.2-0.1,0.5-0.2,0.6-0.3
			v-0.1l0.4-0.1l0.1-0.2h0.3l0.1-0.2c0.3-0.2,0.6-0.3,1-0.3v-0.2l0.3-0.1v-0.1h0.2v-0.1l0.8-0.1l0.1-0.2l1.4,0.2l0.1,1h0.1l-0.1,0.3
			h0.1c0,0.4,0,0.7-0.1,1.1h0.1v0.1h-0.1v1.3H138v1h-0.1v1.2h-0.1v0.4h-0.1v1.1h-0.1l-0.1,1.7h-0.1c0,0.8-0.1,1.5-0.1,2.3h-0.1
			l0.1,0.2h-0.1v1.1H137v1.1h-0.1l0.1,0.3h-0.1v1.7h-0.1l0.1,0.3c-0.1,1.4-0.2,2.7-0.1,4.1l0.1,2.5h0.1v1h0.1v0.9
			c0.2,0.6,0.3,1.3,0.4,1.8l0.2,1.7h0.1V58h0.1v0.5h0.1l0.1,1h0.1V60h0.1v0.4h0.1v0.4h0.1v0.4h0.1v0.5c0,0.2,0.1,0,0.1,0.1h-0.1
			C138.7,62,138.9,62.1,138.9,62.4L138.9,62.4z M149.7,38.4v1h-0.1v0.1h0.1v0.1h-0.1v0.7h-0.1v0.7h-0.1v0.8h-0.1l0.1,0.2h-0.1v0.3
			h-0.1v0.7H149v0.4h-0.1v0.4h-0.1l-0.1,1h-0.1V45h-0.1v0.4h-0.1v0.1h0.1v0.1h-0.1v0.3h-0.1v0.3h-0.1v0.4l-0.2,0.1v0.5h-0.1
			l-0.1,0.4h-0.1v0.4l-0.2,0.1v0.2h-0.1l-0.1,0.7l-0.2,0.1v0.3h-0.1c-0.1,0.1-0.2,0.3-0.2,0.5c-0.3,0.1-0.4,0.1-0.4,0.4h-0.4v-0.1
			h-0.3v-0.1h0.1v-0.1h-0.1v-0.4h-0.1v-0.4h-0.1V49h-0.1v-2.2H145v-0.1h0.1c-0.1-0.8-0.1-1.7,0-2.5h0.1v-1.6h0.1
			c0-0.5,0.1-1.1,0.1-1.6h0.1v-0.8h0.1v-0.3h0.1l-0.1-0.3h0.1V39h0.1v-0.4h0.1v-0.4h0.1l0.1-1h0.1v-0.3h0.1l-0.1-0.2h0.1v-0.4h0.1
			V36h0.1v-0.3h0.1c0.2-0.4,0.3-0.9,0.3-1.3h0.2c0.1-0.8,0.5-1.5,1-2.1c0.3-0.3,0.6-0.2,1.1-0.1c-0.1,0.3-0.1,0.2,0,0.5h0.1
			l-0.1,0.1c0,0.2,0.1,0,0.1,0.1v0.3h0.1v0.3h0.1v0.8h0.1v1.1C149.9,36.4,149.8,37.4,149.7,38.4L149.7,38.4z"/>
		<path class="st0" d="M396.3,33.8h-0.1v-0.2h-0.1l-0.1-0.2h-0.3v-0.1c-0.6,0-1.2,0.3-1.6,0.7l-0.2,0.3h-0.2l-0.2,0.3h-0.2l-0.4,0.5
			h-0.2l-0.4,0.5h-0.2l-0.5,0.7h-0.2l-0.4,0.5h-0.2l-0.4,0.5h-0.2l-0.4,0.5h-0.2l-0.5,0.7h-0.2l-0.5,0.7h-0.2l-0.4,0.5H387l-0.4,0.5
			h-0.2l-0.5,0.7h-0.2l-0.1,0.2h-0.1l-0.2,0.3H385l-0.5,0.7h-0.2l-0.1,0.2H384l-0.2,0.3h-0.2l-0.5,0.7h-0.2l-0.1,0.2h-0.1l-0.2,0.3
			h-0.2l-0.6,0.8h-0.2l-0.3,0.4h-0.2l-0.4,0.5h-0.2l-0.5,0.7h-0.2l-0.5,0.7h-0.2l-0.4,0.5h-0.2l-0.6,0.8h-0.2l-0.4,0.5h-0.2
			l-0.5,0.7h-0.2c-0.2,0.2-0.4,0.5-0.6,0.8h-0.2l-0.5,0.7H374l-0.6,0.8h-0.2l-0.2,0.3h-0.1l-0.1,0.2h-0.2l-0.6,0.8h-0.2l-0.4,0.5
			H371v0.1l-0.3,0.2l-0.1,0.2h-0.2l-0.4,0.5h-0.2l-0.4,0.5H369l-0.5,0.7h-0.2l-0.3,0.4h-0.2l-0.2,0.3h-0.2l-0.4,0.5h-0.2l-0.3,0.4
			h-0.2l-0.2,0.3h-0.2l-0.3,0.4h-0.2l-0.3,0.4h-0.2l-0.2,0.3h-0.2l-0.2,0.3h-0.2l-0.2,0.3h-0.2l-0.2,0.3h-0.2l-0.2,0.3h-0.2
			l-0.2,0.3l-0.3,0.1l-0.1,0.2h-0.2l-0.1,0.2h-0.2l-0.2,0.3h-0.2l-0.1,0.2h-0.2l-0.2,0.3H360l-0.1,0.2h-0.2l-0.2,0.3h-0.2l-0.1,0.2
			H359l-0.1,0.2h-0.2v0.1l-0.3,0.1l-0.1,0.2H358l-0.2,0.3h-0.2l-0.1,0.2l-0.3,0.1v0.1h-0.2l-0.1,0.2l-0.3,0.1v0.1l-0.4,0.1l-0.2,0.3
			l-0.4,0.1v0.1l-0.3,0.1l-0.1,0.2h-0.2l-0.1,0.2l-0.3,0.1V66h-0.2l-0.1,0.2l-0.4,0.1l-0.1,0.2l-0.3,0.1v0.1l-0.4,0.1l-0.1,0.2h-0.2
			l-0.1,0.2l-0.4,0.1l-0.1,0.2h-0.2l-0.1,0.2L351,68l-0.1,0.2h-0.2v0.1h-0.2l-0.1,0.2l-0.3,0.1v0.1l-0.6,0.2l-0.1,0.2H349v0.1h-0.2
			l-0.1,0.2l-0.4,0.1l-0.1,0.2l-0.6,0.2l-0.1,0.2h-0.2v0.1h-0.2l-0.1,0.2l-0.6,0.2l-0.1,0.2h-0.2l-0.2,0.2h-0.2v0.1h-0.2l-0.1,0.2
			h-0.2l-0.2,0.2h-0.2l-0.1,0.2h-0.2l-0.2,0.2h-0.2v0.1h-0.2v0.1h-0.2l-0.1,0.2l-0.4,0.1v0.1h-0.2v0.1h-0.2V73h-0.2v0.1h-0.2v0.1
			h-0.2v0.1l-0.4,0.1v0.1H341v0.1h-0.2v0.1h-0.2v0.1h-0.2V74h-0.2v0.1l-0.4,0.1v0.1l-0.4,0.1v0.1H339v0.1h-0.3v0.1h-0.2v0.1L338,75
			v0.1h-0.3v0.1l-0.4,0.1v0.1H337v0.1h-0.2v0.1h-0.3v0.1h-0.2v0.1h-0.3V76h-0.2v0.1l-0.6,0.1v0.1l-0.6,0.1v0.1h-0.2v0.1h-0.3v0.1
			h-0.4v0.1h-0.3v0.1h-0.3V77l-0.8,0.1v0.1l-1.3,0.2v0.1l-1.1,0.1c-1.2,0.3-2.5,0.4-3.8,0.3h-1.5v-0.1h-0.6v-0.1h-0.5v-0.1h-0.4
			v-0.1h-0.3v-0.1H322v-0.1h-0.3v-0.1l-0.4-0.1V77l-1-0.3l-0.1-0.2l-0.4-0.1l-0.1-0.2h-0.2l-0.1-0.2h-0.2l-0.2-0.3h-0.2l-0.1-0.2
			h-0.2l-0.1-0.2c-0.3-0.3-0.6-0.6-1-0.8v-0.2H317V74h-0.2c-0.1-0.2-0.2-0.4-0.3-0.5h-0.1l-0.1-0.3L316,73v-0.2l-0.2-0.1v-0.2
			l-0.2-0.1l-0.1-0.4h-0.1l-0.2-0.7h-0.1V71H315v-0.3h-0.1v-0.3h-0.1V70h-0.1l-0.1-1.4h-0.1c-0.1-0.8-0.1-1.5,0.1-2.3l0.1-1.4h0.1
			v-0.7h0.1v-0.4h0.1v-0.4h0.1v-0.3h0.1v-0.4h0.1v-0.3h0.1V62h0.1v-0.3h0.1l0.1-0.7h0.1v-0.2h0.1l0.2-1h0.1v-0.2h0.1v-0.3h0.1V59
			h0.1v-0.3h0.1v-0.2h0.1v-0.3h0.1l0.1-0.4h0.1v-0.3h0.1v-0.2h0.1v-0.3h0.1v-0.2h0.1v-0.3h0.1l0.1-0.5h0.1v-0.2h0.1v-0.3h0.1
			l0.1-0.4h0.1l0.1-0.7h0.1V54h0.1v-0.3h0.1v-0.2h0.1v-0.3h0.1v-0.2h0.1l0.1-0.7h0.1V52h0.1v-0.3h0.1v-0.3h0.1V51h0.1v-0.3h0.1v-0.3
			h0.1V50h0.1v-0.3h0.1l0.2-1.1h0.1v-0.2h0.1c0.1-0.6,0.3-1.2,0.4-1.8h0.1l0.1-0.9h0.1l0.3-1.5h0.1l0.3-1.5h0.1v-0.3h0.1V42h0.1
			v-0.3h0.1v-0.3h0.1V41h0.1v-0.3h0.1v-0.3h0.1V40h0.1v-0.3h0.1v-0.2h0.1l0.1-0.7h0.1v-0.2h0.1v-0.3h0.1l0.1-0.4h0.1v-0.2h0.1v-0.3
			h0.1l0.1-0.4h0.1v-0.3h0.1l0.1-0.4h0.1V36h0.1v-0.3h0.1l0.2-0.7h0.1v-0.2h0.1v-0.2h0.1v-0.2h0.1v-0.2l0.2-0.2v-0.2l0.2-0.1
			l0.1-0.5l0.2-0.1l0.2-0.7l0.2-0.1v-0.3h0.1v-0.2h0.1v-0.2h0.1v-0.2h0.1V31h0.1v-0.2h0.1v-0.2h0.1v-0.2h0.1v-0.2l0.2-0.2v-0.2
			l0.2-0.1v-0.3h0.1V29l0.2-0.1v-0.3l0.2-0.1l0.1-0.5h0.1v-0.2h0.2v-0.2h0.1v-0.2h0.1v-0.2h0.1l0.2-0.6h0.1l0.3-1.1l0.2-0.1v-0.3
			h0.1v-0.2h0.1l0.3-1h0.1v-0.3h0.1l0.2-0.6h0.1v-0.2h0.1v-0.3h0.1V22l0.2-0.1v-0.2l0.2-0.2v-0.2h0.1V21h0.1v-0.2h0.1v-0.2h0.1
			l0.2-0.6h0.1l0.1-0.6h0.1v-0.2h0.1l0.2-0.6h0.1v-0.3h0.1v-0.5c0.4-1.2-0.2-2.5-1.5-3c-0.1,0-0.1,0-0.2,0v-0.1l-1.7,0.1v0.1h-0.5
			v0.1l-0.4,0.1l-0.2,0.3h-0.2l-0.1,0.2h-0.2l-0.3,0.4l-0.3,0.1l-0.2,0.3h-0.1v0.2l-0.2,0.1v0.1l-0.2,0.1V17h-0.1v0.2l-0.2,0.1v0.2
			l-0.2,0.1v0.2h-0.1v0.3l-0.2,0.1v0.2l-0.2,0.1l-0.1,0.4h-0.1l-0.1,0.4h-0.1v0.3h-0.1v0.3h-0.1v0.3h-0.1v0.3H325l-0.1,0.4h-0.1
			l-0.1,0.6h-0.1l-0.1,0.4h-0.1l-0.1,0.5h-0.1l-0.1,0.6h-0.1v0.3h-0.1V24h-0.1v0.3h-0.1v0.3h-0.1l-0.2,0.6h-0.1v0.2H323v0.2h-0.1
			v0.3h-0.1l-0.1,0.4h-0.1l-0.1,0.4l-0.2,0.1v0.3l-0.2,0.1l-0.1,0.5h-0.1v0.2l-0.2,0.1v0.2h-0.1v0.3l-0.2,0.1l-0.2,0.6l-0.2,0.1v0.3
			l-0.2,0.1l-0.1,0.4l-0.2,0.1l-0.2,0.6l-0.2,0.1l-0.1,0.4l-0.2,0.1v0.3l-0.2,0.1l-0.1,0.4L319,33l-0.1,0.3h-0.1l-0.1,0.4l-0.2,0.1
			l-0.1,0.4l-0.2,0.1v0.2H318v0.2l-0.2,0.1l-0.1,0.3h-0.1l-0.1,0.4l-0.2,0.1l-0.1,0.3H317l-0.1,0.4l-0.2,0.1l-0.1,0.3h-0.1l-0.1,0.4
			l-0.2,0.1v0.2l-0.2,0.1v0.2l-0.2,0.1l-0.1,0.4l-0.3,0.2l-0.1,0.4l-0.2,0.1v0.2l-0.2,0.1V40l-0.2,0.1l-0.1,0.4l-0.3,0.2l-0.1,0.4
			l-0.2,0.1v0.2l-0.3,0.2l-0.1,0.4l-0.2,0.1v0.2l-0.2,0.1l-0.1,0.3h-0.1v0.2l-0.2,0.1v0.2l-0.2,0.1v0.2l-0.2,0.1v0.2h0l-0.1,0.3
			l-0.2,0.1v0.2l-0.3,0.2l-0.1,0.4l-0.2,0.1v0.2l-0.2,0.1V46l-0.2,0.1v0.2h-0.1l-0.1,0.3l-0.2,0.1V47l-0.3,0.2v0.2l-0.2,0.1v0.2
			l-0.2,0.1v0.2h-0.1l-0.1,0.3l-0.2,0.1v0.2l-0.3,0.2v0.2l-0.2,0.1l-0.1,0.4l-0.3,0.2v0.2l-0.2,0.1l-0.1,0.3h-0.1v0.2l-0.3,0.2v0.2
			l-0.2,0.1v0.2l-0.2,0.1v0.2h-0.1l-0.1,0.3l-0.2,0.1v0.2l-0.3,0.2V53l-0.2,0.1v0.2l-0.3,0.2l-0.1,0.3l-0.2,0.1v0.2l-0.2,0.1
			l-0.1,0.3h-0.1v0.2l-0.3,0.2v0.2l-0.2,0.1v0.2l-0.3,0.2l-0.1,0.3l-0.2,0.1v0.2l-0.2,0.1l-0.1,0.3h-0.1v0.2l-0.3,0.2v0.2l-0.2,0.1
			v0.2l-0.4,0.3v0.2l-0.2,0.1v0.2l-0.2,0.1l-0.1,0.3l-0.3,0.2v0.2l-0.3,0.2V60l-0.3,0.2v0.2l-0.3,0.2v0.2l-0.3,0.2v0.2l-0.3,0.2v0.2
			l-0.4,0.3l-0.1,0.3l-0.2,0.1v0.2l-0.5,0.4v0.2l-0.3,0.2v0.2l-0.5,0.4v0.2l-0.4,0.3V65l-0.5,0.4v0.2l-0.5,0.4v0.2l-0.6,0.5v0.2
			c-0.3,0.2-0.5,0.4-0.8,0.7l-0.1,0.3l-0.9,0.8V69l-1,0.9v0.2l-2.1,2c-0.7,0.8-1.5,1.5-2.3,2.2l-0.6,0.8h-0.2l-0.4,0.6h-0.2
			l-0.4,0.5c-1.7,1.3-3.5,2.3-5.5,3c-0.9,0.1-1.8,0-2.6-0.3l-0.1-0.2h-0.2v-0.1c-0.1-0.1-0.3-0.2-0.4-0.2V78h-0.2
			c-0.1-0.3-0.2-0.5-0.4-0.7h-0.1l-0.1-0.4l-0.2-0.1v-0.2h-0.1v-0.3h-0.1l-0.2-0.7h-0.1v-0.4h-0.1v-0.3h-0.1v-0.4h-0.1v-0.5h-0.1
			v-0.5h-0.1v-0.8h-0.1V71c-0.2-0.8-0.2-1.6-0.1-2.4h0.1l-0.1-0.2h0.1v-1.8h0.1v-1.2h0.1v-1h0.1v-0.7h0.1v-0.9
			c0.3-0.9,0.4-2.1,0.6-3c0.1-0.6,0.1-1.2,0.2-1.7c0.5-1.5,0.7-3.2,1.2-4.7l0.2-1.4h0.1v-0.3h0v-0.4h0.1v-0.4h0.1v-0.4h0.1l0.1-0.9
			c0.6-1.6,1-3.4,1.5-5l0.1-0.9h0.1l0.2-1.1h0.1v-0.3h0.1v-0.3h0.1v-0.3h0.1v-0.4h0.2V41h0.1v-0.4h0.1v-0.3h0.1v-0.3h0.1v-0.3h0.1
			l0.1-0.7h0.1v-0.2h0.1l0.1-0.7h0.1v-0.4h0.1v-0.3h0.1V37h0.1v-0.2h0.1v-0.3h0.1v-0.2h0.1l0.1-0.7h0.1v-0.2h0.1v-0.3h0.1v-0.2h0.1
			v-0.3h0.1l0.1-0.4h0.1v-0.3h0.1l0.1-0.4h0.1V33h0.1v-0.2h0.1l0.1-0.4h0.1V32h0.1v-0.2h0.1v-0.2h0.1l0.2-0.6h0.1v-0.3h0.1l0.2-0.6
			h0.1v-0.2h0.1v-0.2h0.1v-0.2h0.1v-0.2h0.1v-0.2h0.2v-0.2h0.1v-0.2h0.1v-0.2l0.2-0.2l0.1-0.4l0.2-0.1l0.2-0.6l0.2-0.1l0.1-0.4
			l0.2-0.1l0.1-0.3h0.1l0.1-0.4h0.1l0.1-0.3l0.2-0.1v-0.2l0.4-0.3l0.1-0.3L289,24v-0.2l1.2-1.1l0.3-0.4l0.2-0.1l0.1-0.3h0.1l0.2-0.3
			h0.2l0.6-0.9l0.3-0.1l0.5-0.6l0.2-0.1v-0.2l0.2-0.1v-0.2l0.3-0.2v-0.2l0.3-0.2l0.1-0.4l0.2-0.1l0.1-0.5h0.1l0.1-0.8
			c0.1-0.2,0.4-0.4,0.2-0.9h-0.1v-0.4h-0.1c0-0.2,0.3-0.5,0.1-0.8h-0.1c-0.1-0.4,0-0.1-0.3-0.3v-0.1h-0.2v-0.1H294l-0.1-0.2h-0.2
			l-0.3-0.4l-0.5-0.1c-0.4-0.2-0.8-0.3-1.2-0.2v0.1h-0.2v0.1H291v0.1h-0.3v0.1l-0.6,0.2V14h-0.2v0.1l-0.4,0.1l-0.1,0.2h-0.2
			l-0.6,0.8l-0.3,0.2v0.2l-0.4,0.3v0.2l-0.2,0.2v0.2h-0.1v0.2l-0.2,0.1v0.2l-0.2,0.1v0.2h-0.1v0.2h-0.1l-0.1,0.6h-0.1v0.2h-0.1
			l-0.2,0.6H286c-0.1,0.5-0.1,0.9-0.2,1.4h-0.1v0.2h-0.1V21h-0.1v0.2h-0.1v0.2h-0.1v0.2h-0.1v0.2H285v0.2h0v0.2h-0.1v0.3l-0.2,0.1
			V23l-0.2,0.1v0.3h-0.1l-0.1,0.4h-0.1v0.2H284l-0.2,0.6h-0.1v0.3h-0.1v0.2h-0.1l-0.2,0.6h-0.1v0.3H283v0.2h-0.1v0.3h-0.1l-0.1,0.5
			h-0.1l-0.1,0.4h-0.1l-0.2,1H282l-0.1,0.4h-0.1v0.4h-0.1v0.2h-0.1l-0.1,0.6h-0.1v0.2h-0.1v0.3h-0.1l-0.1,0.8H281v0.2h-0.1l-0.2,1
			h-0.1v0.3h-0.1v0.3h-0.1V34h-0.1v0.3h-0.1v0.3H280V35h-0.1l-0.1,0.7h-0.1v0.4h-0.1v0.3h-0.1v0.3h-0.1c-0.1,0.4-0.1,0.7-0.2,1.1
			H279v0.4h-0.1l-0.3,1.6h-0.1v0.5h-0.1l-0.1,0.9h-0.1v0.3H278l-0.2,1.4c-0.7,2-1,4.3-1.6,6.3l-0.1,1.1H276l-0.1,1h-0.1v0.4h-0.1
			l-0.1,1h-0.1v0.5h-0.1v0.4h-0.1v0.5h-0.1v0.5H275v0.5h-0.1l-0.1,1h-0.1V57c-0.3,1.1-0.4,2.5-0.8,3.6c-0.1,1.3-0.3,2.5-0.4,3.8
			h-0.1v0.9h-0.1v1.2h-0.1v1.3h-0.1v2.7c-0.1,1.7,0,3.4,0.4,5.1l0.1,1h0.1v0.3h0.1v0.3h0.1v0.3h0.1v0.3h0.1V78h0.1v0.3h0.1l0.1,0.4
			h0.1l0.1,0.4l0.2,0.1v0.2l0.2,0.1v0.2l0.8,0.7l0.1,0.3h0.2l0.4,0.6l0.4,0.1l0.1,0.2h0.3v0.1h0.2v0.1c1.2,0.3,2.4,0.3,3.6,0.1v-0.1
			h0.4v-0.1h0.3v-0.1h0.3v-0.1h0.3v-0.1l0.6-0.1l2.9-1.6l0.1-0.2h0.2l0.1-0.2h0.2l0.1-0.2h0.2l0.1-0.2l0.3-0.1l0.2-0.3h0.2l0.2-0.3
			h0.2l0.2-0.3h0.3l0.4-0.5h0.2l0.4-0.5h0.2l0.5-0.7h0.2l0.8-0.9h0.2l1.6-1.7c0.9-0.7,1.7-1.5,2.5-2.4l1.3-1.2v-0.2l1.1-1L299,68
			l0.3-0.2l0.1-0.3l1.1-1v-0.2l1-0.9v-0.2l0.6-0.5v-0.2l0.6-0.5v-0.2l0.5-0.4v-0.2l0.6-0.5v-0.2l0.4-0.3v-0.2l0.5-0.4v-0.2l0.4-0.3
			v-0.2l0.2-0.1l0.1-0.3l0.5-0.4v-0.2l0.2-0.1l0.1-0.3l0.4-0.3v-0.2l0.3-0.2v-0.2l0.3-0.2v-0.2l0.3-0.2v-0.2l0.3-0.2v-0.2l0.3-0.2
			v-0.2l0.3-0.2v-0.2l0.3-0.2v-0.2l0.3-0.2V55l0.3-0.2v-0.2l0.2-0.1v-0.2l0.3-0.2v-0.2l0.2-0.1v-0.2l0.3-0.2v-0.2l0.3-0.2v-0.2
			l0.3-0.2v-0.2l0.3-0.2v-0.2l0.2-0.1l0.1-0.3h0.1v-0.2l0.3-0.2v-0.2l0.3-0.2v-0.2l0.3-0.2v-0.2l0.4-0.3v-0.2l0.2-0.1
			c0.2-0.2,0.4-0.5,0.4-0.8c0.3-0.1,0.2,0,0.3-0.2c0.2,0,0.3,0,0.4,0.1c0,0.6-0.1,1.3-0.3,1.8v0.5h-0.1v0.4h-0.1v0.4h-0.1v0.3h-0.1
			v0.4h-0.1l-0.1,0.9h-0.1v0.4h-0.1V54H314l-0.3,1.5h-0.1l-0.1,0.8h-0.1v0.4h-0.1V57h-0.1c-0.1,0.4-0.1,0.7-0.2,1.1h-0.1v0.4h-0.1
			l-0.1,0.9h-0.1c-0.1,0.4-0.1,0.9-0.2,1.3h-0.1v0.5h-0.1v0.4H312v0.5h-0.1v0.5h-0.1v0.7h-0.1v0.5h-0.1v0.6h-0.1v1.1h-0.1v2.3
			c0,1.7,0.4,3.4,1.1,5v0.3h0.1v0.2h0.1v0.2l0.2,0.2v0.2l0.2,0.1l0.1,0.4l0.2,0.1V75l0.3,0.2v0.2l0.3,0.2v0.2l1.2,1.1l0.5,0.7h0.2
			l0.3,0.4h0.2l0.1,0.2h0.2l0.2,0.3l0.4,0.1l0.1,0.2h0.2l0.2,0.2h0.2v0.1h0.2l0.1,0.2h0.3v0.1l0.4,0.1v0.1l2.8,0.9h0.5v0.1l2,0.1V81
			l0.3-0.1V81h1.5v-0.1h1.5v-0.1h0.9v-0.2h0.9v-0.1h0.6v-0.1l1.2-0.1v-0.1h0.4v-0.1h0.4V80h0.6l4.7-1.4v-0.1h0.2v-0.1l1-0.2V78h0.1
			v-0.1h0.3v-0.1h0.2v-0.1h0.3v-0.1l0.4-0.1v-0.1h0.3v-0.1l0.4-0.1V77h0.3v-0.1h0.2v-0.1h0.2v-0.1l0.6-0.2v-0.1h0.3v-0.1l0.4-0.1V76
			l0.6-0.2v-0.1h0.2v-0.1h0.2v-0.1h0.2v-0.1h0.2v-0.1l0.4-0.1v-0.1l0.4-0.1v-0.1h0.2v-0.1h0.2v-0.1h0.2v-0.1h0.2v-0.1h0.2l0.2-0.2
			h0.2l0.1-0.2h0.2l0.2-0.2h0.2v-0.1h0.2v-0.1h0.2l0.1-0.2h0.2v-0.1l0.4-0.1l0.1-0.2l0.6-0.2l0.1-0.2l0.6-0.2l0.1-0.2h0.3v-0.1
			l0.4-0.1l0.1-0.2l0.4-0.1l0.1-0.2l0.4-0.1l0.1-0.2l0.4-0.1l0.1-0.2l0.4-0.1l0.1-0.2l0.4-0.1l0.1-0.2l0.4-0.1l0.1-0.2h0.2v-0.1h0.2
			l0.1-0.2h0.2l0.1-0.2h0.2l0.1-0.2h0.2l0.1-0.2l0.4-0.1l0.1-0.2h0.2v-0.1h0.2v-0.1l0.3-0.1l0.1-0.2h0.2l0.1-0.2l0.3-0.1v-0.1h0.2
			l0.1-0.2h0.2L359,67l0.4-0.1l0.2-0.3h0.2l0.1-0.2h0.2l0.1-0.2h0.2l0.1-0.2h0.2v-0.1l0.3-0.1l0.1-0.2h0.2l0.2-0.3h0.2l0.1-0.2
			l0.3-0.1v-0.1h0.2l0.2-0.3h0.2l0.1-0.2h0.2l0.2-0.3h0.2l0.1-0.2h0.2l0.2-0.3h0.2l0.1-0.2h0.2l0.3-0.4h0.2l0.2-0.3h0.2L366,62h0.2
			l0.2-0.3h0.2l0.2-0.3h0.2l0.3-0.4h0.2l0.3-0.4l0.3-0.1l0.1-0.2h0.2l0.4-0.5l0.3-0.1l0.1-0.2h0.2l0.1-0.2l0.3-0.2v-0.1h0.2l0.4-0.5
			h0.2l0.3-0.4h0.2l0.5-0.7h0.2l0.6-0.8h0.2l0.4-0.5h0.2l0.6-0.8h0.2l0.8-0.9h0.2l0.9-1h0.2l0.9-1h0.2l1.1-1.2h0.2l0.4-0.5
			c0.3-0.3,0.7-0.5,1-0.8l1-1.1h0.2l1.3-1.4l0.3-0.1l0.8-0.9h0.2l0.9-1h0.2l0.6-0.8h0.2l0.9-1h0.2l0.6-0.8h0.2l0.6-0.8h0.2v-0.1
			l0.3-0.2l0.2-0.3h0.2l0.6-0.8h0.2l0.6-0.8h0.2l0.5-0.7l0.3-0.1l0.5-0.7h0.2l0.5-0.7h0.2l0.4-0.5l0.3-0.1l0.8-0.9l0.8-0.7v-0.2
			l0.2-0.1l0.1-1.2C396.4,34,396.4,33.9,396.3,33.8z"/>
	</g>
</g>
</svg>
